<svg width="15" height="15" viewBox="0 0 15 15" fill="none" xmlns="http://www.w3.org/2000/svg">
<g clip-path="url(#clip0_71_157)">
<path d="M12.8099 9.70033L12.8104 9.69924C12.9342 9.40154 13.1283 9.14393 13.3135 8.92922C13.4403 8.78217 13.5868 8.62917 13.7193 8.49093C13.7748 8.43294 13.8279 8.37754 13.876 8.32627C14.0541 8.13631 14.1906 7.9763 14.2831 7.82634C14.3732 7.6803 14.4 7.5778 14.4 7.5C14.4 7.4222 14.3732 7.3197 14.2831 7.17366C14.1906 7.0237 14.0541 6.86369 13.876 6.67373C13.8279 6.62246 13.7748 6.56706 13.7193 6.50906C13.5868 6.37082 13.4403 6.21782 13.3135 6.07078C13.1283 5.85607 12.9342 5.59846 12.8104 5.30076L12.81 5.29984C12.688 5.00507 12.647 4.68735 12.6289 4.40943C12.6172 4.22801 12.614 4.02484 12.6112 3.84028C12.6098 3.75234 12.6085 3.66862 12.6064 3.5935C12.5906 3.03711 12.5218 2.76357 12.3791 2.6209C12.2364 2.47823 11.9629 2.40942 11.4065 2.39363C11.3314 2.3915 11.2477 2.3902 11.1597 2.38884C10.9752 2.38598 10.772 2.38283 10.5906 2.37107C10.3126 2.35305 9.99493 2.31196 9.70016 2.18999L9.70007 2.18995C9.40129 2.06627 9.14308 1.87211 8.9279 1.68671C8.77967 1.559 8.62589 1.41157 8.48713 1.27854C8.42995 1.22372 8.37531 1.17134 8.32467 1.1238C8.13482 0.945562 7.97517 0.809173 7.82552 0.716722C7.67989 0.626758 7.5777 0.6 7.5 0.6C7.4222 0.6 7.3197 0.626825 7.17366 0.716917C7.0237 0.809433 6.86369 0.945904 6.67373 1.12403C6.62246 1.17211 6.56706 1.22517 6.50907 1.28073C6.37083 1.41316 6.21783 1.55973 6.07078 1.68654C5.85607 1.87169 5.59846 2.06584 5.30077 2.18961L5.29967 2.19006C5.00481 2.31196 4.6871 2.35305 4.40912 2.37107C4.22769 2.38283 4.02453 2.38598 3.83999 2.38884C3.75205 2.3902 3.66834 2.3915 3.59323 2.39363C3.037 2.40942 2.76359 2.47821 2.6209 2.6209C2.47821 2.76359 2.40942 3.037 2.39363 3.59323C2.3915 3.66834 2.3902 3.75205 2.38884 3.83999C2.38598 4.02453 2.38283 4.22769 2.37107 4.40912C2.35305 4.6871 2.31196 5.00481 2.19006 5.29967L2.18995 5.29993C2.06627 5.59871 1.87211 5.85692 1.68671 6.0721C1.559 6.22033 1.41156 6.37411 1.27854 6.51287C1.22371 6.57006 1.17134 6.62469 1.1238 6.67533C0.945561 6.86518 0.809173 7.02483 0.716722 7.17448C0.626758 7.32011 0.6 7.4223 0.6 7.5C0.6 7.5778 0.626825 7.6803 0.716917 7.82634C0.809433 7.9763 0.945904 8.13631 1.12403 8.32627C1.17211 8.37754 1.22518 8.43294 1.28074 8.49094C1.41316 8.62917 1.55974 8.78218 1.68654 8.92922C1.87169 9.14393 2.06584 9.40154 2.18961 9.69923L2.19006 9.70033C2.31196 9.99519 2.35305 10.3129 2.37107 10.5909C2.38283 10.7723 2.38598 10.9755 2.38884 11.16C2.3902 11.2479 2.3915 11.3317 2.39363 11.4068C2.40942 11.963 2.47821 12.2364 2.6209 12.3791C2.76359 12.5218 3.037 12.5906 3.59323 12.6064C3.66834 12.6085 3.75205 12.6098 3.83999 12.6112C4.02453 12.614 4.22769 12.6172 4.40912 12.6289C4.6871 12.647 5.00481 12.688 5.29967 12.8099L5.30076 12.8104C5.59846 12.9342 5.85607 13.1283 6.07078 13.3135C6.21782 13.4403 6.37083 13.5868 6.50906 13.7193C6.56706 13.7748 6.62246 13.8279 6.67373 13.876C6.86369 14.0541 7.0237 14.1906 7.17366 14.2831C7.3197 14.3732 7.4222 14.4 7.5 14.4C7.5778 14.4 7.6803 14.3732 7.82634 14.2831C7.9763 14.1906 8.13631 14.0541 8.32627 13.876C8.37755 13.8279 8.43295 13.7748 8.49095 13.7193C8.62918 13.5868 8.78218 13.4403 8.92922 13.3135C9.14393 13.1283 9.40154 12.9342 9.69924 12.8104L9.70016 12.81C9.99493 12.688 10.3126 12.647 10.5906 12.6289C10.772 12.6172 10.9752 12.614 11.1597 12.6112C11.2477 12.6098 11.3314 12.6085 11.4065 12.6064C11.9629 12.5906 12.2364 12.5218 12.3791 12.3791C12.5218 12.2364 12.5906 11.963 12.6064 11.4068C12.6085 11.3317 12.6098 11.2479 12.6112 11.16C12.614 10.9755 12.6172 10.7723 12.6289 10.5909C12.647 10.3129 12.688 9.99519 12.8099 9.70033Z" stroke="#C56D1C" stroke-width="1.2" stroke-linecap="round" stroke-linejoin="round"/>
<path d="M7.5 3.75V7.96875" stroke="#C56D1C" stroke-width="1.2" stroke-linecap="round" stroke-linejoin="round"/>
<path d="M7.4625 10.3125C7.4625 10.3332 7.47929 10.35 7.5 10.35C7.52071 10.35 7.5375 10.3332 7.5375 10.3125C7.5375 10.2918 7.52071 10.275 7.5 10.275C7.47929 10.275 7.4625 10.2918 7.4625 10.3125Z" fill="#C56D1C" stroke="#C56D1C" stroke-width="1.8"/>
</g>
<defs>
<clipPath id="clip0_71_157">
<rect width="15" height="15" fill="white" transform="matrix(-1 0 0 1 15 0)"/>
</clipPath>
</defs>
</svg>
