<svg width="10" height="9" viewBox="0 0 10 9" fill="none" xmlns="http://www.w3.org/2000/svg">
<g clip-path="url(#clip0_111_619)">
<path d="M4.66651 9C3.77649 9 2.90646 8.73608 2.16644 8.24161C1.42642 7.74714 0.849642 7.04434 0.509048 6.22207C0.168454 5.3998 0.0793387 4.495 0.252972 3.62209C0.426606 2.74918 0.855189 1.94735 1.48453 1.31802C2.11386 0.688679 2.91569 0.260096 3.7886 0.0864625C4.66151 -0.087171 5.56631 0.00194407 6.38858 0.342538C7.21085 0.683133 7.91365 1.25991 8.40812 1.99993C8.90259 2.73995 9.16651 3.60998 9.16651 4.5C9.16522 5.69307 8.6907 6.83692 7.84706 7.68055C7.00343 8.52419 5.85958 8.99871 4.66651 9ZM4.66651 0.749996C3.92483 0.749996 3.1998 0.96993 2.58312 1.38199C1.96643 1.79404 1.48579 2.37971 1.20196 3.06493C0.918129 3.75016 0.843867 4.50416 0.988561 5.23159C1.13326 5.95901 1.49041 6.6272 2.01486 7.15165C2.5393 7.67609 3.20749 8.03325 3.93492 8.17794C4.66235 8.32264 5.41635 8.24837 6.10157 7.96455C6.78679 7.68072 7.37246 7.20007 7.78452 6.58338C8.19657 5.9667 8.41651 5.24168 8.41651 4.5C8.41541 3.50577 8.01998 2.55258 7.31695 1.84955C6.61393 1.14653 5.66073 0.751088 4.66651 0.749996Z" fill="#C56D1C"/>
<path d="M3.14665 5.84925L2.74878 5.21325L4.29153 4.24687V2.25H5.04153V4.66237L3.14665 5.84925Z" fill="#C56D1C"/>
</g>
<defs>
<clipPath id="clip0_111_619">
<rect width="9" height="9" fill="white" transform="translate(0.166504)"/>
</clipPath>
</defs>
</svg>
