<svg width="173" height="35" viewBox="0 0 173 35" fill="none" xmlns="http://www.w3.org/2000/svg">
<path d="M154.729 9.40207H156.37L156.35 9.50571H155.698L155.717 11.7316L155.905 11.5638L156.286 11.3121L156.854 10.9765L157.126 10.7889L157.338 10.6014L157.466 10.4138L157.511 10.2855V10.0141L157.427 9.82652L157.343 9.72287L157.091 9.57481L157.111 9.407H157.279L157.615 9.49091L157.827 9.59455L157.975 9.72287L158.079 9.89068L158.124 10.019V10.3546L158.059 10.5422L157.911 10.7297L157.743 10.8778L157.387 11.0653L156.987 11.2134L157.259 11.2973L157.447 11.4454L157.575 11.6576L157.891 12.6447L158.059 13.0444L158.188 13.2567L158.316 13.3406H158.484H158.568L158.524 13.4442L158.395 13.5479L158.208 13.612H158.02L157.807 13.5479L157.595 13.3603L157.466 13.1481L157.298 12.7286L157.047 11.8895L156.943 11.6378L156.814 11.47L156.686 11.4059H156.498L156.246 11.5095L156.014 11.6576L155.762 11.8895L155.717 11.934V12.9309L155.762 13.2468L155.826 13.4146L155.91 13.4985L156.098 13.5429V13.6071H154.729V13.5429L154.897 13.4985L155.001 13.3949L155.065 13.2073L155.085 13.1037V9.91042L155.021 9.65871L154.937 9.53039L154.789 9.46623L154.724 9.44649V9.40207H154.729Z" fill="white"/>
<path d="M153.445 6.75665H155.485L155.841 6.82081L156.197 6.94914L156.429 7.0972L156.642 7.28475L156.829 7.58088L156.958 7.87701L157.042 8.23236L157.061 8.38042V9.17997L156.997 9.6439L156.894 9.95977L156.745 10.2559L156.558 10.4879L156.345 10.6557L156.009 10.8235L155.797 10.8876L155.777 10.8679V10.7001L155.965 10.552L156.152 10.3003L156.301 9.98445L156.404 9.6291L156.449 9.35765L156.469 9.00229V8.66668L156.424 8.24717L156.36 7.9313L156.231 7.57594L156.083 7.32423L155.935 7.15643L155.723 7.00836L155.49 6.92446L155.387 6.90472L154.433 6.8603V10.8284H155.021V10.9567H153.445V10.8926L153.633 10.8482L153.736 10.7198L153.801 10.5323L153.82 10.404V7.29462L153.756 6.99849L153.672 6.87017L153.544 6.80601L153.44 6.78627V6.75665H153.445Z" fill="white"/>
<path d="M143.711 15.8876C143.682 15.8481 143.904 15.8777 143.968 15.8678C144.591 15.8629 146.019 15.8481 146.281 15.9172C146.77 16.0554 146.992 16.4354 146.814 16.924C146.691 17.235 146.404 17.4176 146.108 17.5706C146.038 17.6051 145.964 17.6347 146.093 17.6643C146.651 17.768 146.967 18.2665 146.913 18.8192C146.903 19.2042 146.656 19.5645 146.295 19.7027C145.984 19.831 144.378 19.757 143.726 19.7718C143.613 19.7619 143.904 19.6484 143.914 19.6089C143.973 19.5398 144.003 19.4263 144.018 19.3177C144.057 18.8538 144.037 17.6397 144.033 16.7118C144.028 16.5242 144.023 16.3712 144.013 16.2824C144.008 16.2133 143.983 16.1541 143.944 16.085C143.904 15.9962 143.781 15.9468 143.711 15.8876ZM144.64 15.9715C144.625 15.9764 144.62 15.9813 144.62 15.9912C144.62 16.0455 144.62 16.2232 144.62 16.4552C144.62 16.8697 144.62 17.9901 144.62 18.2023C144.625 18.2467 144.709 18.1579 144.734 18.148C145.218 17.7532 145.969 17.4719 146.251 16.8993C146.389 16.5933 146.31 16.2429 146.004 16.0801C145.702 15.9221 145.021 15.9665 144.64 15.9715ZM145.441 17.8716C145.174 17.9259 144.927 18.0937 144.714 18.2813C144.675 18.3158 144.63 18.3504 144.625 18.3997C144.62 18.6465 144.625 19.446 144.625 19.6287C144.625 19.6731 144.65 19.6731 144.695 19.6731C144.853 19.6731 145.302 19.6731 145.51 19.6731C145.643 19.683 145.757 19.6533 145.88 19.604C146.36 19.377 146.488 18.7156 146.276 18.2615C146.113 17.9407 145.801 17.8272 145.455 17.8716H145.441Z" fill="white"/>
<path d="M152.19 15.8675C152.758 15.833 153.361 15.9761 153.84 16.2871C153.885 16.3117 153.924 16.3561 153.934 16.4006C153.944 16.4302 153.944 16.4598 153.929 16.4943C153.899 16.5733 153.811 16.8053 153.776 16.8892C153.756 16.9385 153.731 16.9139 153.682 16.8596C153.583 16.751 153.484 16.6079 153.386 16.4943C153.173 16.2525 152.837 16.0551 152.516 16.0008C152.412 15.986 152.294 15.9959 152.195 15.9909C152.145 15.9909 152.126 15.9959 152.071 16.0057C151.977 16.0353 151.844 16.0501 151.75 16.0995C151.543 16.1883 151.375 16.3463 151.306 16.5634C151.217 16.978 151.671 17.1754 152.002 17.284C152.64 17.4962 153.514 17.4617 153.855 18.1379C154.216 18.9818 153.638 19.6876 152.783 19.7666C152.481 19.7912 152.096 19.7764 151.785 19.7024C151.528 19.6284 151.256 19.5198 151.034 19.3668C150.97 19.3224 150.91 19.2779 150.861 19.2286C150.821 19.1891 150.792 19.1694 150.792 19.12C150.792 18.9719 150.792 18.3698 150.792 18.2464C150.802 18.1773 150.871 18.2366 150.881 18.281C151.004 18.6659 151.212 19.0213 151.503 19.273C151.701 19.4458 151.943 19.5691 152.22 19.6284C152.343 19.653 152.491 19.6382 152.625 19.6432C152.793 19.6432 153.015 19.5741 153.173 19.5099C153.297 19.4408 153.41 19.347 153.484 19.2286C153.751 18.7943 153.465 18.3106 153.035 18.1379C152.615 17.9651 152.066 17.9009 151.602 17.748C151.469 17.7085 151.36 17.6344 151.227 17.5703C151.167 17.5407 151.147 17.5308 151.103 17.4913C150.905 17.3383 150.762 17.1063 150.797 16.8546C150.871 16.2229 151.607 15.9268 152.17 15.8675H152.19Z" fill="white"/>
<path d="M155.703 15.8675C156.142 15.8527 156.636 15.9169 157.022 16.1044C157.17 16.1834 157.392 16.2624 157.462 16.4104C157.466 16.445 157.457 16.4746 157.447 16.5092C157.417 16.5931 157.363 16.7313 157.333 16.8152C157.308 16.8793 157.269 16.9237 157.205 16.8546C156.898 16.4401 156.483 16.0057 155.94 15.9909C155.624 15.9663 155.293 16.0502 155.041 16.2426C154.724 16.5141 154.759 16.9089 155.125 17.1162C155.732 17.4272 156.463 17.3877 157.042 17.7529C157.57 18.0688 157.625 18.8683 157.254 19.3224C156.557 20.038 155.154 19.8505 154.423 19.2631C154.369 19.2187 154.334 19.1842 154.334 19.12C154.334 18.9572 154.334 18.4291 154.334 18.2662C154.334 18.2267 154.354 18.202 154.383 18.2464C154.403 18.2711 154.428 18.3205 154.438 18.36C154.551 18.7054 154.749 19.0262 155.021 19.2681C155.253 19.4803 155.554 19.6185 155.876 19.6432C156.118 19.6531 156.345 19.6481 156.567 19.5543C156.898 19.4556 157.126 19.2138 157.111 18.8683C157.106 18.4044 156.676 18.1329 156.271 18.0342C155.811 17.9158 155.248 17.8269 154.828 17.6048C154.349 17.3433 154.161 16.8744 154.522 16.4104C154.798 16.06 155.273 15.9169 155.708 15.8626L155.703 15.8675Z" fill="white"/>
<path d="M159.107 15.907C159.171 15.8626 159.255 15.8725 159.334 15.8676C159.507 15.8725 159.66 15.8379 159.729 16.0057C160.125 17.0175 160.51 18.1872 160.89 19.199C160.95 19.3372 160.994 19.505 161.093 19.6086C161.261 19.7468 161.434 19.7666 161.098 19.7666C160.811 19.7616 160.396 19.7814 160.204 19.7567C160.164 19.7419 160.248 19.7024 160.268 19.6876C160.347 19.6432 160.396 19.584 160.367 19.4902C160.317 19.2582 160.139 18.7548 160.041 18.5179C159.971 18.3304 159.843 18.587 159.754 18.6364C159.403 18.9226 158.973 18.6561 158.583 18.6117C158.39 18.587 158.203 18.6561 158.138 18.8535C158.089 18.9868 158.025 19.125 158.03 19.2681C158.044 19.4803 158.143 19.6481 158.346 19.7123C158.44 19.7518 158.331 19.7567 158.287 19.7616C158.119 19.7616 157.783 19.7616 157.6 19.7616C157.565 19.7616 157.461 19.7616 157.486 19.7271C157.506 19.7024 157.6 19.6531 157.664 19.6086C157.723 19.5642 157.753 19.5001 157.778 19.4359C158.193 18.36 158.583 17.1409 159.008 16.065C159.033 16.0057 159.052 15.9367 159.097 15.9021L159.107 15.907ZM159.146 16.0452C159.117 16.06 159.092 16.1291 159.077 16.1686C158.855 16.7856 158.558 17.6147 158.346 18.2267C158.336 18.2613 158.306 18.3353 158.331 18.355C158.366 18.36 158.405 18.3304 158.435 18.3205C158.791 18.1181 159.171 18.3155 159.527 18.3846C159.719 18.434 160.021 18.3402 159.912 18.0935C159.724 17.5555 159.413 16.6819 159.215 16.1489C159.206 16.1045 159.181 16.0354 159.146 16.0452Z" fill="white"/>
<path d="M148.568 15.8676H149.136C149.537 16.904 149.981 18.2662 150.357 19.3125C150.386 19.3915 150.475 19.6136 150.545 19.6679L150.757 19.732V19.7764H149.601V19.732L149.813 19.6876L149.833 19.5001L149.453 18.4291L149.433 18.3846C149.28 18.661 149.067 18.814 148.741 18.7844C148.583 18.7449 148.267 18.666 148.109 18.6166H147.837C147.649 18.6758 147.585 19.0065 147.521 19.1644C147.521 19.2878 147.541 19.4112 147.58 19.5297C147.595 19.579 147.625 19.6185 147.664 19.6531L147.709 19.6876L147.896 19.732L147.916 19.7764H146.948V19.732L147.18 19.6481C147.378 19.2928 147.56 18.6413 147.704 18.2613C147.926 17.669 148.321 16.4401 148.568 15.8676ZM148.613 16.0354C148.376 16.6622 148.025 17.6986 147.793 18.3254L147.812 18.3698C147.877 18.3254 148.03 18.2168 148.109 18.202H148.425L148.805 18.3057L149.038 18.3698H149.206L149.374 18.2859L149.393 18.1823C149.196 17.6048 148.85 16.6079 148.637 16.0403H148.613V16.0354Z" fill="white"/>
<path d="M161.473 15.8774C161.528 15.8478 162.096 15.8774 162.264 15.8676C162.303 15.8676 162.308 15.8676 162.343 15.8972C163.163 16.6227 163.939 17.5752 164.457 18.4883C164.453 18.2168 164.482 16.3611 164.423 16.1933C164.369 16.0748 164.319 15.9663 164.181 15.9317C164.161 15.9218 164.072 15.8873 164.122 15.8676C164.225 15.8676 164.838 15.8676 164.927 15.8676C164.971 15.9021 164.912 15.9465 164.863 15.9465C164.349 15.9416 164.69 19.426 164.591 19.7567C164.576 19.7814 164.541 19.7666 164.492 19.7715C164.443 19.7715 164.413 19.7764 164.393 19.7468C163.963 18.3846 163.03 17.2445 162.007 16.2723C161.982 16.2525 161.962 16.2229 161.957 16.2476C161.967 16.371 161.962 16.6967 161.953 17.0965C161.943 18.0737 161.883 19.4853 162.111 19.6679C162.135 19.6876 162.363 19.7123 162.293 19.7715C162.2 19.7715 161.557 19.7715 161.483 19.7715C161.463 19.7616 161.473 19.737 161.498 19.7222C161.538 19.7024 161.626 19.6827 161.656 19.6629C161.745 19.5692 161.794 19.4063 161.804 19.278C161.77 18.967 161.908 16.2426 161.696 16.0057C161.646 15.9416 161.483 15.9761 161.473 15.8774Z" fill="white"/>
<path d="M165.233 15.8676H168.069L168.302 16.6868V16.7313H168.237L168.109 16.4993L167.896 16.2871L167.625 16.1193L167.328 16.0156C167.244 15.9909 167.017 15.9959 166.928 15.9959C166.933 16.1884 166.913 19.2434 166.948 19.3323L167.012 19.5642L167.096 19.6679L167.284 19.732V19.7764H166.004V19.732L166.192 19.6679C166.236 19.6185 166.301 19.5198 166.32 19.4556C166.39 19.352 166.375 16.1686 166.385 15.9712L165.965 16.0156L165.668 16.1193C165.426 16.2476 165.164 16.4697 165.06 16.7263H165.006C165.046 16.519 165.174 16.0748 165.233 15.8676Z" fill="white"/>
<path d="M169.67 9.00229H169.734L169.838 9.21451V9.31816L169.626 9.61429L169.354 10.0141L169.334 10.0338L170.258 10.0141L170.386 10.2016L170.406 10.3053L169.858 10.6014L169.374 10.8728L169.245 10.9173L169.141 10.7297V10.6606L169.542 10.4484L169.813 10.3003H169.858V10.2559L169.754 10.2756H169.082L168.998 10.172L169.018 10.0437L169.398 9.47609L169.082 9.6439L168.702 9.85613L168.637 9.79196L168.553 9.6439V9.59948L169.102 9.30335L169.586 9.0319L169.67 9.00229Z" fill="white"/>
<path d="M165.633 4.40738L165.737 4.47154L166.034 4.72325L166.137 4.82689L166.221 4.93054L166.305 5.16251V5.33031L166.241 5.54254L166.113 5.71034L165.964 5.83867L165.752 5.92257H165.52L165.307 5.83867L165.179 5.75476L164.882 5.50305L164.798 5.43889L164.843 5.35499L165.139 4.99964L165.371 4.72818L165.559 4.49622L165.633 4.40738ZM165.717 4.78247L165.485 5.05393L165.297 5.28589L165.194 5.43396L165.381 5.60176L165.465 5.64618H165.678L165.826 5.56228L165.974 5.39447L166.038 5.20693L165.994 5.01938L165.89 4.91573L165.742 4.78741H165.717V4.78247Z" fill="white"/>
<path d="M157.205 1.17462H157.392L157.541 1.19436L157.921 2.49733V2.54175H157.669L157.585 2.47759L157.545 2.22094L157.042 2.2012L156.938 2.43317L156.893 2.45291H156.706L156.602 2.43317L156.79 2.03339L157.126 1.36217L157.205 1.17462ZM157.333 1.48556L157.145 1.90507V1.96923L157.19 1.98897L157.486 2.00872L157.442 1.75701L157.378 1.5053L157.333 1.48556Z" fill="white"/>
<path d="M163.217 2.89218L163.321 2.91192L163.509 3.01557L163.489 3.3117L163.361 4.31853L163.341 4.42218L163.237 4.37776L163.089 4.29386L163.069 4.16553L163.114 3.95331L162.985 3.90889L162.713 3.76082L162.629 3.78057L162.481 3.90889L162.333 3.88915L162.185 3.80524L162.205 3.74108L162.437 3.55353L162.669 3.34131L162.901 3.15376L163.133 2.94154L163.217 2.89218ZM163.198 3.22779V3.27221L163.114 3.31663L162.842 3.58808L162.926 3.65224L163.114 3.75589H163.158L163.242 3.29195V3.22779H163.198Z" fill="white"/>
<path d="M167.965 6.63327L168.069 6.73692L168.321 7.03304L168.509 7.26501V7.30943L168.341 7.43775L168.237 7.33411L168.049 7.12188L168.005 7.05772L167.921 7.10214L167.793 7.20579L167.837 7.30943L168.005 7.52166L167.985 7.58582L167.882 7.66972L167.798 7.64998L167.61 7.41801H167.546L167.378 7.54633L167.397 7.63024L167.649 7.92636L167.669 8.01027L167.521 8.13859H167.476L167.244 7.84246L166.992 7.54633L166.972 7.46243L167.244 7.23046L167.476 7.04291L167.748 6.81095L167.965 6.63327Z" fill="white"/>
<path d="M160.129 1.73727H160.401L160.633 1.82118L160.801 1.9495L160.866 2.0334L160.821 2.11731L160.717 2.18147L160.614 2.16172L160.485 2.05808L160.381 2.01366H160.233L160.065 2.09756L159.962 2.26537L159.942 2.32953V2.60098L160.026 2.7293L160.11 2.79347L160.194 2.81321H160.362L160.465 2.79347L160.549 2.89711L160.569 3.00075L160.381 3.08466H160.169L159.957 3.0205L159.769 2.89217L159.685 2.78853L159.621 2.66021L159.601 2.5763V2.30485L159.685 2.07289L159.769 1.94456L159.917 1.81624L160.129 1.73727Z" fill="white"/>
<path d="M171.162 12.1511H171.206L171.29 12.4226L171.226 12.5262L170.89 12.8421L170.826 12.9063L171.434 12.9902L171.498 13.0543L171.562 13.2665V13.3307L171.038 13.2271L170.638 13.1432L170.238 13.2715L170.154 13.2517L170.09 13.0395V12.9753L170.554 12.8273L170.806 12.5558L170.994 12.3436L171.162 12.1511Z" fill="white"/>
<path d="M143.104 7.59567L143.291 7.724L143.627 7.9757L144.008 8.24716L144.156 8.3508L144.111 8.45445L144.008 8.55809L143.039 8.60251L143.143 8.70615L143.44 8.91838L143.627 9.06644L143.608 9.15035L143.504 9.29841L143.42 9.25399L142.664 8.70615L142.432 8.53835L142.476 8.4347L142.605 8.33106L143.128 8.31132H143.593V8.2669L143.489 8.22248L143.217 8.01025L142.965 7.8227L143.01 7.71906L143.104 7.59567Z" fill="white"/>
<path d="M149.705 2.43317H149.769L150.041 3.00075L150.293 3.54858L150.273 3.63249L150.085 3.69665L149.601 3.46468L149.181 3.25246L149.477 3.85952L149.522 3.98784L149.309 4.09149H149.265L148.949 3.44L148.717 2.93658V2.89217L148.865 2.828L149.013 2.84775L149.833 3.24752L149.645 2.828L149.517 2.5763V2.51707L149.705 2.43317Z" fill="white"/>
<path d="M141.527 10.4928H141.779L141.967 10.557L142.155 10.6853L142.283 10.8531L142.348 11.0209V11.2923L142.244 11.5441L142.096 11.7119L141.908 11.8402L141.824 11.8599H141.527L141.276 11.7563L141.147 11.6526L141.019 11.4404L140.974 11.2726L140.994 11.0406L141.078 10.8284L141.226 10.6409L141.439 10.5125L141.527 10.4928ZM141.527 10.7889L141.399 10.8531L141.295 10.9814L141.251 11.0653V11.2775L141.335 11.4059L141.503 11.5342L141.631 11.5786H141.844L141.972 11.4947L142.076 11.3466L142.096 11.1344L142.031 11.0061L141.863 10.858L141.695 10.7939H141.527V10.7889Z" fill="white"/>
<path d="M152.476 1.51025H152.58L152.624 1.63858L152.605 1.74222L152.204 1.84587H152.12L152.185 2.14199L152.521 2.05809L152.605 2.0729L152.649 2.26045L152.293 2.36409H152.249L152.313 2.59606V2.66515L152.837 2.53683L152.901 2.72438V2.7688L152.521 2.87244L152.12 2.97609H152.076L151.972 2.59606L151.765 1.7817V1.6978L152.476 1.51025Z" fill="white"/>
<path d="M144.68 5.81396L144.764 5.85838L144.996 6.09035L145.144 6.25816L145.441 6.55429L145.525 6.50987L145.777 6.25816L145.861 6.30258L145.965 6.4309L145.441 6.95406L145.357 6.93432L145.041 6.61845L144.892 6.45064L144.492 6.05087L144.537 5.96696L144.68 5.81396Z" fill="white"/>
<path d="M146.868 4.0076L146.933 4.02734L147.204 4.42711L147.456 4.78247L147.644 5.05392V5.09834L147.432 5.2464L147.348 5.20198L147.012 4.71831L146.76 4.36295L146.656 4.21489L146.7 4.13099L146.868 4.0076Z" fill="white"/>
<path d="M172.995 17.516C173 17.3581 173 17.2248 173 17.1212V17.0965C173 17.0224 173 16.9533 173 16.8793C173 16.7362 172.995 16.5931 172.99 16.4499C172.985 16.3759 172.985 16.3068 172.98 16.2328C172.881 14.229 172.437 12.2844 171.656 10.4385C171.602 10.3102 171.547 10.1868 171.488 10.0585C171.404 9.87094 171.315 9.6834 171.221 9.49585C170.885 8.81475 170.5 8.15834 170.075 7.53153C169.655 6.90966 169.191 6.31247 168.692 5.74983C168.553 5.59683 168.415 5.44383 168.272 5.29576C168.178 5.19705 168.079 5.09834 167.985 4.99963C167.842 4.8565 167.694 4.71338 167.541 4.57025C166.888 3.96318 166.187 3.40548 165.451 2.91193C165.164 2.71945 164.873 2.53683 164.576 2.35916C164.28 2.18148 163.978 2.02354 163.672 1.86561C163.301 1.67806 162.926 1.50038 162.545 1.34245C161.029 0.700837 159.443 0.286257 157.817 0.103645C157.674 0.0888385 157.536 0.0740321 157.392 0.0592257C156.893 0.0197419 156.389 0 155.885 0C155.811 0 155.742 0 155.668 0C155.624 0 155.579 0 155.535 0.00493547C155.515 0.00493547 155.495 0.00493547 155.475 0.00493547C155.475 0.00493547 155.475 0.00493547 155.47 0.00493547C155.47 0.00493547 155.47 0.00493547 155.465 0.00493547C155.465 0.00493547 155.465 0.00493547 155.46 0.00493547C155.46 0.00493547 155.46 0.00493547 155.456 0.00493547C155.456 0.00493547 155.456 0.00493547 155.451 0.00493547C155.451 0.00493547 155.451 0.00493547 155.446 0.00493547C155.446 0.00493547 155.446 0.00493547 155.441 0.00493547C155.441 0.00493547 155.441 0.00493547 155.436 0.00493547C155.436 0.00493547 155.436 0.00493547 155.431 0.00493547C153.044 0.0690966 150.796 0.592257 148.721 1.56454C147.886 1.94951 147.081 2.40357 146.315 2.91686C145.411 3.52886 144.556 4.2297 143.781 5.00457C143.005 5.77944 142.303 6.62834 141.691 7.53647C141.073 8.44953 140.54 9.42675 140.115 10.4385C139.853 11.0555 139.63 11.6773 139.448 12.314C139.018 13.7157 138.791 15.0927 138.786 16.3907C138.776 16.6227 138.771 16.8596 138.771 17.0965C138.771 19.4063 139.225 21.642 140.115 23.7495C140.544 24.7613 141.073 25.7385 141.691 26.6515C142.303 27.5547 143.005 28.4086 143.781 29.1834C144.556 29.9583 145.406 30.6592 146.315 31.2712C147.229 31.8881 148.208 32.4211 149.22 32.8456C151.33 33.7389 153.573 34.188 155.88 34.188C158.193 34.188 160.431 33.734 162.541 32.8456C163.553 32.4162 164.532 31.8881 165.446 31.2712C166.35 30.6592 167.205 29.9583 167.98 29.1834C168.489 28.6751 168.968 28.1273 169.413 27.5597C169.976 26.8983 170.48 26.1728 170.92 25.3831C171.543 24.2628 172.032 23.0141 172.387 21.6717C172.462 21.3953 172.526 21.1238 172.58 20.8622C172.832 19.7666 172.97 18.6511 172.995 17.516ZM143.909 27.4017C145.026 28.2704 146.177 28.8676 147.536 29.2871C148.781 29.6721 150.085 29.8744 151.597 30.1113C152.659 30.2791 153.87 30.4667 155.194 30.748C155.999 30.9158 156.73 31.0935 157.377 31.2514C158.573 31.5377 159.606 31.7894 160.604 31.8832C160.895 31.9128 161.182 31.9226 161.459 31.9226C162.066 31.9226 162.649 31.8585 163.257 31.7203C162.516 31.898 161.829 31.972 161.147 31.972C159.853 31.972 158.568 31.7055 156.953 31.3699C156.424 31.2613 155.876 31.1478 155.278 31.0342C154.235 30.8319 153.287 30.6789 152.368 30.5308C148.959 29.9781 146.498 29.5783 143.919 27.5103C142.659 26.4986 141.587 25.2104 140.757 23.7643C141.597 25.1956 142.674 26.4393 143.909 27.4017ZM140.554 23.3004C141.439 24.8748 142.6 26.2271 143.944 27.2438C144.996 28.0335 146.063 28.5813 147.318 28.9515C148.46 29.292 149.635 29.4648 150.999 29.6671C152.205 29.8448 153.568 30.0472 155.125 30.4025C156.103 30.6295 156.958 30.8664 157.709 31.0737C158.805 31.3797 159.754 31.6413 160.688 31.7598C161.029 31.8042 161.36 31.8239 161.691 31.8239C162.165 31.8239 162.634 31.7795 163.119 31.6907C162.531 31.8141 161.987 31.8634 161.449 31.8634C160.174 31.8634 158.954 31.5673 157.392 31.1922C156.745 31.0342 156.014 30.8615 155.209 30.6888C153.884 30.4074 152.674 30.2199 151.612 30.0521C148.563 29.5734 146.36 29.2279 143.954 27.3524C142.575 26.2863 141.419 24.8847 140.554 23.3004ZM161.686 31.7696C160.416 31.7696 159.24 31.4439 157.718 31.0194C156.967 30.8122 156.113 30.5753 155.134 30.3482C153.578 29.9879 152.21 29.7905 151.004 29.6079C148.346 29.218 146.246 28.9071 143.978 27.1945C142.481 26.0642 141.236 24.5342 140.352 22.8019C141.266 24.5392 142.516 26.0198 143.978 27.0859C146.147 28.6702 148.074 28.9268 150.515 29.2525C151.824 29.4253 153.301 29.6276 155.055 30.062C156.182 30.3433 157.13 30.6443 157.961 30.9059C159.413 31.3699 160.579 31.74 161.898 31.74C162.234 31.74 162.58 31.7153 162.946 31.6611C162.506 31.7351 162.091 31.7696 161.686 31.7696ZM140.258 22.9746C141.147 24.7859 142.397 26.3752 143.875 27.5597C145.065 28.5172 146.32 29.1785 147.817 29.6474C149.191 30.0768 150.653 30.3137 152.353 30.5901C153.272 30.7381 154.215 30.8911 155.263 31.0935C155.861 31.207 156.409 31.3205 156.938 31.4291C158.558 31.7647 159.848 32.0312 161.142 32.0312C161.878 32.0312 162.615 31.9473 163.415 31.74C162.491 31.9967 161.636 32.1003 160.762 32.1003C159.428 32.1003 158.059 31.8585 156.36 31.5574C156.034 31.4982 155.693 31.439 155.342 31.3797C154.645 31.2613 153.983 31.1527 153.341 31.0491C149.467 30.4272 146.671 29.9781 143.884 27.6732C142.353 26.4048 141.113 24.7711 140.248 22.945C140.248 22.9499 140.253 22.9598 140.258 22.9746ZM161.898 31.6808C160.584 31.6808 159.423 31.3106 157.975 30.8516C157.14 30.5851 156.197 30.2841 155.065 30.0027C153.311 29.5684 151.829 29.371 150.52 29.1933C148.089 28.8676 146.167 28.6109 144.008 27.0365C142.728 26.0988 141.617 24.8402 140.757 23.3991C141.631 24.8205 142.743 26.0297 144.003 26.923C146.078 28.3839 147.862 28.5912 150.11 28.8577C151.493 29.0206 153.059 29.2032 154.976 29.7165C156.236 30.0521 157.254 30.4173 158.148 30.7431C159.576 31.2563 160.712 31.666 162.051 31.666C162.259 31.666 162.471 31.6561 162.694 31.6364C162.422 31.666 162.16 31.6808 161.898 31.6808ZM143.845 27.7176C146.641 30.0323 149.448 30.4864 153.331 31.1083C153.968 31.2119 154.63 31.3156 155.332 31.439C155.688 31.4982 156.024 31.5623 156.35 31.6166C157.886 31.8881 159.102 32.1052 160.283 32.1546C160.446 32.1595 160.609 32.1645 160.767 32.1645C161.745 32.1645 162.634 32.0362 163.573 31.7548C162.437 32.1201 161.394 32.2582 160.297 32.2582C158.909 32.2582 157.432 32.0312 155.559 31.745L155.406 31.7203C155.164 31.6808 154.922 31.6462 154.685 31.6117C150.179 30.9306 146.923 30.4371 143.85 27.8262C142.521 26.691 141.414 25.2844 140.584 23.7199C141.434 25.2746 142.55 26.6466 143.845 27.7176ZM162.481 31.592C160.955 31.6907 159.744 31.2514 158.173 30.6838C157.274 30.3581 156.256 29.9929 154.996 29.6573C153.074 29.144 151.503 28.9613 150.12 28.7985C147.876 28.5369 146.103 28.3296 144.038 26.8736C142.713 25.931 141.567 24.6477 140.693 23.172C141.587 24.6379 142.733 25.8668 144.033 26.7601C146.029 28.1174 147.684 28.2803 149.779 28.4826C151.216 28.6208 152.842 28.7787 154.907 29.3661C156.281 29.756 157.353 30.1903 158.296 30.5752C159.71 31.1478 160.811 31.5969 162.185 31.5969C162.289 31.5969 162.382 31.5969 162.481 31.592ZM143.81 27.8755C144.561 28.5122 145.332 29.0354 146.172 29.4746C146.943 29.8793 147.768 30.215 148.697 30.4963C150.46 31.0343 152.412 31.3304 154.675 31.6709C154.912 31.7055 155.154 31.745 155.396 31.7795L155.549 31.8042C157.308 32.0707 158.697 32.2829 160.011 32.3125C160.105 32.3125 160.199 32.3175 160.293 32.3175C161.513 32.3175 162.59 32.1447 163.721 31.7696C161.068 32.7123 158.81 32.51 155.475 32.0707C150.5 31.4093 146.997 30.7727 143.82 27.994C142.481 26.8144 141.37 25.3634 140.54 23.7594C141.379 25.3436 142.506 26.7552 143.81 27.8755ZM158.326 30.5259C157.382 30.1409 156.31 29.7066 154.932 29.3167C152.862 28.7294 151.231 28.5714 149.793 28.4333C147.709 28.2309 146.058 28.073 144.077 26.7206C142.625 25.7237 141.389 24.3171 140.485 22.7032C141.414 24.322 142.654 25.6694 144.072 26.6071C144.957 27.1895 145.821 27.5646 146.79 27.7916C147.669 27.9989 148.563 28.0631 149.507 28.1322C150.979 28.2408 152.649 28.3642 154.843 29.0255C156.325 29.4697 157.437 29.9731 158.415 30.4173C159.803 31.0441 160.88 31.5327 162.274 31.5377C160.876 31.5574 159.759 31.1033 158.326 30.5259ZM141.74 25.8026C142.348 26.6269 143.035 27.3771 143.781 28.0335C145.288 29.3513 146.943 30.2594 148.993 30.8911C150.95 31.4982 153.173 31.819 155.47 32.125C157.081 32.3372 158.445 32.4951 159.719 32.4951C161.128 32.4951 162.437 32.3027 163.865 31.7795C161.271 32.7962 158.919 32.7863 155.549 32.4112C150.475 31.8437 146.923 30.9652 143.791 28.147C142.61 27.076 141.607 25.7977 140.821 24.3911C141.098 24.8797 141.404 25.3535 141.74 25.8026ZM158.44 30.363C157.457 29.9188 156.34 29.4154 154.858 28.9663C152.664 28.3049 150.989 28.1815 149.512 28.073C147.56 27.9298 146.019 27.8163 144.102 26.5578C142.565 25.5411 141.261 24.0555 140.342 22.3429C140.367 22.3824 140.386 22.4268 140.411 22.4663C141.36 24.1394 142.639 25.5164 144.102 26.4492C144.957 26.9921 145.787 27.3376 146.715 27.535C147.55 27.7127 148.39 27.7522 149.275 27.7966C150.772 27.8706 152.471 27.9496 154.774 28.685C156.35 29.1884 157.491 29.7609 158.504 30.2643C159.319 30.674 160.026 31.0293 160.777 31.2465C161.221 31.3748 161.656 31.4538 162.106 31.4784C160.801 31.434 159.764 30.9652 158.44 30.363ZM141.71 25.9162C142.313 26.7503 143 27.5153 143.746 28.1914C144.537 28.9021 145.357 29.4944 146.251 30.0027C147.101 30.4815 148 30.8763 149.003 31.2119C150.708 31.7746 152.659 32.1546 155.535 32.4754C156.972 32.6333 158.079 32.7123 159.043 32.7123C159.403 32.7123 159.744 32.7024 160.075 32.6827C161.473 32.5939 162.723 32.3125 164.003 31.7943C161.246 32.9788 158.652 33.0381 155.609 32.7666C150.06 32.2632 146.622 30.975 143.751 28.3197C142.318 26.9822 141.162 25.3831 140.332 23.6212C140.727 24.4207 141.192 25.1956 141.71 25.9162ZM158.529 30.21C157.516 29.7017 156.37 29.1292 154.794 28.6257C152.486 27.8904 150.782 27.8064 149.28 27.7374C147.516 27.6535 145.994 27.5794 144.136 26.3998C142.699 25.4818 141.562 24.2282 140.717 22.8611C141.641 24.3023 142.812 25.4818 144.136 26.2913C145.955 27.4017 147.402 27.4314 149.077 27.4659C150.589 27.4955 152.303 27.5301 154.7 28.3345C156.36 28.8923 157.531 29.5339 158.563 30.1064C159.349 30.5407 160.026 30.9109 160.752 31.1527C161.132 31.281 161.513 31.3649 161.898 31.4044C160.708 31.3008 159.744 30.8171 158.529 30.21ZM141.686 26.0297C142.289 26.8736 142.97 27.6584 143.716 28.3543C145.243 29.7708 146.982 30.8072 149.028 31.5278C150.841 32.1645 152.931 32.5791 155.609 32.8209C156.617 32.9147 157.496 32.9591 158.292 32.9591C158.954 32.9591 159.561 32.9295 160.144 32.8653C161.562 32.7123 162.832 32.3767 164.136 31.8042C161.671 32.9541 159.141 33.349 155.688 33.1121C150.475 32.7567 146.676 31.281 143.731 28.4777C142.417 27.2241 141.34 25.7434 140.535 24.1295C140.866 24.7859 141.256 25.4226 141.686 26.0297ZM158.593 30.057C157.56 29.4894 156.389 28.8429 154.719 28.2852C152.313 27.4807 150.594 27.4412 149.077 27.4116C147.407 27.3771 145.969 27.3475 144.166 26.2419C142.629 25.2992 141.429 23.9568 140.564 22.5008C141.518 24.0506 142.763 25.3042 144.171 26.1333C145.95 27.1796 147.328 27.1698 148.919 27.155C150.436 27.1402 152.15 27.1254 154.635 27.994C156.37 28.606 157.555 29.3216 158.598 29.9534C159.354 30.4074 160.006 30.8023 160.717 31.0688C160.999 31.1724 161.276 31.2514 161.557 31.3057C160.525 31.1182 159.66 30.6443 158.593 30.057ZM143.682 28.5073C145.228 29.983 146.982 31.0688 149.043 31.8387C150.95 32.5494 153.124 32.9838 155.678 33.1565C156.34 33.2009 156.953 33.2256 157.536 33.2256C158.494 33.2256 159.369 33.1664 160.204 33.0381C161.617 32.8258 162.931 32.4261 164.23 31.8141C164.245 31.8091 164.255 31.8042 164.27 31.7943C162.032 32.9295 159.645 33.4674 156.834 33.4674C156.478 33.4674 156.118 33.4576 155.752 33.4428C150.782 33.2157 146.725 31.592 143.692 28.6257C142.496 27.4511 141.493 26.0938 140.722 24.6181C141.498 26.0544 142.496 27.3721 143.682 28.5073ZM158.627 29.904C157.58 29.2723 156.389 28.5566 154.65 27.9397C152.471 27.1796 150.88 27.0957 149.497 27.0957C149.299 27.0957 149.102 27.0957 148.909 27.1007C147.323 27.1155 145.955 27.1254 144.191 26.0889C142.55 25.1216 141.291 23.6903 140.406 22.1553C140.426 22.1899 140.446 22.2244 140.465 22.259C141.444 23.8679 142.733 25.1561 144.191 25.9853C145.93 26.9724 147.239 26.9181 148.756 26.8539C150.273 26.7897 151.987 26.7157 154.551 27.6633C156.365 28.3296 157.565 29.1193 158.623 29.8152C159.556 30.4272 160.357 30.9553 161.33 31.207C160.386 30.9602 159.571 30.4716 158.627 29.904ZM141.631 26.2518C142.224 27.1204 142.906 27.9348 143.652 28.6652C144.433 29.4253 145.283 30.1064 146.187 30.6888C147.076 31.2613 148.044 31.7548 149.057 32.1546C151.039 32.9344 153.292 33.3885 155.747 33.502C156.123 33.5217 156.493 33.5267 156.849 33.5267C158.069 33.5267 159.196 33.428 160.263 33.2207C161.681 32.9492 163 32.5001 164.299 31.8387C164.329 31.8239 164.354 31.8091 164.383 31.7943C164.369 31.7992 164.359 31.8091 164.344 31.8141C161.898 33.1368 159.265 33.7882 156.305 33.7882C156.142 33.7882 155.984 33.7882 155.821 33.7833C151.014 33.6698 146.809 31.9374 143.662 28.7787C142.195 27.2981 141.034 25.5904 140.223 23.7297C140.614 24.6132 141.088 25.4621 141.631 26.2518ZM156.977 0.093774C157.269 0.113516 157.555 0.138193 157.837 0.172742C158.049 0.197419 158.262 0.227032 158.474 0.256645C158.618 0.276386 158.756 0.301064 158.894 0.325741C159.033 0.350419 159.171 0.375096 159.314 0.404709C159.453 0.434322 159.591 0.463934 159.729 0.493547C160.006 0.557708 160.278 0.626805 160.544 0.705773C167.486 2.67996 172.639 8.94801 172.926 16.4401C172.936 16.6572 172.941 16.8793 172.941 17.0965C172.941 17.1261 172.941 17.1557 172.941 17.1853C172.936 17.5407 172.906 18.4636 172.704 19.6925C172.704 19.6975 172.704 19.7073 172.699 19.7123C172.699 19.7172 172.699 19.7172 172.699 19.7221C172.59 20.3588 172.437 21.0745 172.219 21.8395C172.165 22.0319 172.101 22.2294 172.037 22.4317C171.503 24.0604 170.708 25.7237 169.586 27.2142C169.576 27.2241 169.571 27.2339 169.561 27.2487C169.542 27.2784 169.517 27.303 169.497 27.3326L169.492 27.3376C169.428 27.4215 169.364 27.5005 169.299 27.5794C169.285 27.5992 169.265 27.6189 169.245 27.6436C169.22 27.6732 169.196 27.7028 169.171 27.7324C169.166 27.7374 169.166 27.7374 169.161 27.7423C169.141 27.762 169.127 27.7867 169.107 27.8065C169.087 27.8262 169.072 27.8459 169.052 27.8657C169.047 27.8706 169.043 27.8755 169.038 27.8854C169.028 27.8953 169.018 27.9101 169.003 27.92C168.919 28.0137 168.835 28.1026 168.746 28.1914C168.721 28.2161 168.697 28.2408 168.672 28.2654C168.667 28.2704 168.662 28.2753 168.657 28.2803C168.647 28.2901 168.642 28.2951 168.632 28.3049C168.435 28.4974 168.227 28.6899 168.01 28.8725C167.037 29.7017 165.406 31.0836 163.059 31.2662C162.901 31.2761 162.748 31.286 162.605 31.286C161.009 31.286 159.961 30.5999 158.662 29.7461C157.6 29.0502 156.399 28.2556 154.576 27.5893C152.664 26.8885 151.221 26.7453 149.986 26.7453C149.556 26.7453 149.151 26.7601 148.756 26.7799C147.249 26.844 145.945 26.8983 144.22 25.9211C141.014 24.0999 139.22 20.3687 138.914 17.6789C138.904 17.59 138.894 17.4962 138.889 17.4074C138.889 17.3926 138.889 17.3778 138.884 17.363C138.884 17.3383 138.879 17.3186 138.879 17.2939C138.875 17.2199 138.87 17.1458 138.87 17.0718C138.865 16.978 138.865 16.8793 138.86 16.7806C138.86 16.7658 138.86 16.7461 138.86 16.7313C138.86 16.7016 138.86 16.672 138.86 16.6473V16.6424C138.86 16.6128 138.86 16.5783 138.86 16.5486C138.86 16.5141 138.86 16.4845 138.86 16.4499C138.86 16.4302 138.86 16.4104 138.86 16.3907C138.86 16.3759 138.86 16.3611 138.86 16.3463C138.904 14.8953 139.166 13.4294 139.63 12.0031C140.169 10.3793 140.969 8.78514 141.992 7.33411C142.032 7.27982 142.066 7.22553 142.106 7.17618C142.121 7.15643 142.135 7.13669 142.15 7.11202C142.175 7.07747 142.2 7.04785 142.224 7.01331C142.254 6.97382 142.284 6.93434 142.313 6.89485C142.323 6.88005 142.333 6.86524 142.348 6.85044C142.694 6.39637 143.059 5.95218 143.45 5.53266C143.751 5.20199 144.067 4.89105 144.388 4.58999C144.393 4.58999 144.393 4.58505 144.398 4.58505C144.448 4.54063 144.492 4.49621 144.542 4.4518C144.551 4.44192 144.556 4.43699 144.566 4.42712C144.606 4.38763 144.65 4.35309 144.695 4.3136C144.709 4.2988 144.724 4.28893 144.739 4.27412C144.774 4.23957 144.813 4.20996 144.848 4.18034C144.868 4.1606 144.887 4.1458 144.907 4.12605C144.937 4.10138 144.966 4.07176 145.001 4.04709C145.026 4.02241 145.055 4.00267 145.08 3.97799C145.105 3.95825 145.129 3.93851 145.154 3.91383C145.189 3.88915 145.218 3.85954 145.253 3.83486C145.273 3.82006 145.292 3.80525 145.312 3.79044C145.352 3.76083 145.391 3.72628 145.431 3.69667C145.446 3.6868 145.456 3.67693 145.47 3.66706C145.515 3.63251 145.559 3.59796 145.609 3.55848C145.614 3.55354 145.624 3.5486 145.628 3.54367C145.678 3.50419 145.727 3.46964 145.777 3.43015C145.782 3.43015 145.782 3.42522 145.787 3.42522C145.836 3.38573 145.885 3.35119 145.935 3.31664C145.945 3.3117 145.955 3.30183 145.964 3.2969C146.009 3.26728 146.053 3.23273 146.098 3.20312C146.113 3.19325 146.132 3.17844 146.147 3.16857C146.187 3.1439 146.221 3.11428 146.261 3.08961C146.286 3.0748 146.305 3.05506 146.33 3.04025C146.36 3.02051 146.394 2.99583 146.424 2.97609C146.454 2.95635 146.483 2.93661 146.513 2.91686C146.538 2.90206 146.562 2.88232 146.587 2.86751C146.622 2.84283 146.661 2.81815 146.696 2.79348C146.715 2.78361 146.73 2.7688 146.75 2.75893C146.794 2.72932 146.839 2.70464 146.878 2.67503C146.888 2.66515 146.903 2.66022 146.913 2.65035C146.962 2.62074 147.012 2.58619 147.061 2.55657C147.066 2.55164 147.071 2.55164 147.076 2.5467C147.126 2.51709 147.175 2.48748 147.229 2.45293C147.239 2.44799 147.244 2.44306 147.254 2.43812C147.303 2.40851 147.348 2.3789 147.397 2.35422C147.412 2.34435 147.427 2.33448 147.442 2.32954C147.481 2.30487 147.526 2.28019 147.565 2.26045C147.585 2.24564 147.61 2.23577 147.629 2.22096C147.664 2.20122 147.699 2.18148 147.733 2.16174C147.763 2.14693 147.793 2.13212 147.817 2.11238C147.847 2.09758 147.872 2.08277 147.901 2.06796C147.936 2.04822 147.97 2.02848 148.01 2.00874C148.03 1.99887 148.054 1.98406 148.074 1.97419C148.119 1.95445 148.158 1.92977 148.203 1.91003C148.217 1.90016 148.232 1.89522 148.247 1.88535C148.296 1.86067 148.346 1.836 148.395 1.81132C148.405 1.80638 148.415 1.80145 148.425 1.79651C148.474 1.77183 148.529 1.74716 148.578 1.72248C148.583 1.71754 148.588 1.71754 148.593 1.71261C148.593 1.71261 148.598 1.71261 148.598 1.70767C148.647 1.683 148.697 1.65832 148.746 1.63858C148.761 1.63364 148.771 1.62377 148.786 1.61883C148.83 1.59909 148.875 1.57935 148.924 1.55467C148.944 1.5448 148.963 1.53493 148.983 1.52506C149.023 1.50532 149.062 1.49051 149.102 1.47077C149.126 1.4609 149.156 1.44609 149.181 1.43622C149.215 1.42142 149.245 1.40661 149.28 1.3918C149.314 1.377 149.344 1.36219 149.378 1.34738C149.403 1.33751 149.433 1.32764 149.458 1.31284C149.497 1.29803 149.537 1.27829 149.576 1.26348C149.596 1.25361 149.621 1.24867 149.64 1.2388C149.685 1.21906 149.729 1.20426 149.779 1.18451C149.793 1.17958 149.808 1.17464 149.823 1.16477C149.873 1.14503 149.922 1.13022 149.966 1.11048C149.971 1.11048 149.971 1.10555 149.976 1.10555C149.986 1.10061 149.996 1.10061 150.006 1.09567C150.055 1.07593 150.1 1.06113 150.149 1.04138C150.159 1.03645 150.169 1.03151 150.184 1.03151C150.189 1.03151 150.189 1.02658 150.194 1.02658C150.238 1.01177 150.288 0.99203 150.332 0.977223C150.352 0.972288 150.367 0.962417 150.386 0.957482C150.431 0.942675 150.475 0.927869 150.52 0.913062C150.544 0.903191 150.569 0.898256 150.594 0.888385C150.633 0.873579 150.668 0.863708 150.708 0.853837C150.737 0.843966 150.767 0.834095 150.796 0.824224C150.831 0.814353 150.861 0.804482 150.895 0.794611C150.93 0.78474 150.964 0.774869 150.999 0.760063C151.029 0.750192 151.053 0.745256 151.083 0.735385C151.123 0.725514 151.162 0.710708 151.207 0.700837C151.231 0.695902 151.251 0.686031 151.276 0.681095C151.32 0.666289 151.365 0.656418 151.409 0.646547H151.414C151.434 0.641611 151.449 0.636676 151.468 0.63174C151.513 0.62187 151.552 0.607063 151.597 0.597192C151.607 0.597192 151.612 0.592257 151.622 0.592257C151.636 0.587321 151.651 0.587321 151.661 0.582386C151.701 0.572515 151.745 0.562644 151.785 0.552773C151.799 0.547837 151.814 0.547837 151.829 0.542902C151.839 0.542902 151.849 0.537966 151.859 0.537966C151.898 0.528095 151.938 0.518225 151.977 0.508354C151.997 0.503418 152.017 0.498483 152.037 0.493547C152.042 0.493547 152.051 0.488612 152.056 0.488612C152.096 0.478741 152.13 0.473805 152.17 0.463934C152.195 0.458999 152.219 0.454063 152.244 0.449128C152.249 0.449128 152.249 0.449128 152.254 0.449128C152.289 0.439257 152.328 0.434322 152.363 0.424451C152.392 0.419515 152.422 0.41458 152.447 0.404709C153.277 0.236903 154.127 0.128322 154.991 0.083903C154.996 0.083903 154.996 0.083903 155.001 0.083903C155.065 0.0789676 155.129 0.0789676 155.194 0.0740321C155.204 0.0740321 155.209 0.0740321 155.218 0.0740321C155.278 0.0740321 155.337 0.0690966 155.396 0.0690966C155.411 0.0690966 155.421 0.0690966 155.436 0.0690966H155.441C155.495 0.0690966 155.554 0.0690966 155.609 0.0641611C155.614 0.0641611 155.624 0.0641611 155.628 0.0641611C155.633 0.0641611 155.633 0.0641611 155.638 0.0641611C155.643 0.0641611 155.648 0.0641611 155.648 0.0641611H155.653C155.727 0.0641611 155.801 0.0641611 155.876 0.0641611C156.251 0.0592257 156.617 0.0690966 156.977 0.093774ZM155.885 34.1337C149.309 34.1337 143.593 30.3976 140.747 24.9389C141.009 25.4276 141.295 25.9063 141.602 26.3653C142.195 27.2487 142.872 28.073 143.618 28.8232C145.179 30.3926 147.017 31.6216 149.072 32.4705C151.142 33.3243 153.41 33.7882 155.811 33.8425C155.969 33.8475 156.127 33.8475 156.286 33.8475C157.694 33.8475 159.047 33.6994 160.322 33.4033C161.691 33.0874 163.015 32.5889 164.265 31.9226C161.794 33.3342 158.934 34.1337 155.885 34.1337Z" fill="white"/>
<path d="M139.186 20.8622C139.24 21.1238 139.304 21.3953 139.378 21.6717C139.729 23.0141 140.223 24.2677 140.846 25.3831C141.286 26.1728 141.79 26.8983 142.353 27.5597C142.797 28.1322 143.277 28.6751 143.786 29.1834C144.561 29.9583 145.411 30.6592 146.32 31.2712C147.234 31.8881 148.212 32.4211 149.225 32.8456C151.335 33.7389 153.578 34.188 155.885 34.188C158.198 34.188 160.436 33.734 162.545 32.8456C163.558 32.4162 164.537 31.8881 165.451 31.2712C166.355 30.6592 167.21 29.9583 167.985 29.1834C168.761 28.4086 169.462 27.5597 170.075 26.6515C170.693 25.7385 171.226 24.7613 171.651 23.7495C172.546 21.642 172.995 19.4013 172.995 17.0965C172.995 16.8596 172.99 16.6276 172.98 16.3907C172.975 15.0927 172.748 13.7107 172.318 12.3189C172.135 11.6823 171.908 11.0555 171.651 10.4435C171.221 9.43169 170.693 8.45446 170.075 7.5414C169.462 6.63821 168.761 5.78437 167.985 5.0095C167.21 4.23463 166.36 3.5338 165.451 2.9218C164.69 2.40851 163.879 1.95445 163.045 1.56948C160.974 0.592257 158.726 0.0690966 156.365 0.00493547C156.365 0.00493547 156.365 0.00493547 156.36 0.00493547C156.36 0.00493547 156.36 0.00493547 156.355 0.00493547C156.355 0.00493547 156.355 0.00493547 156.35 0.00493547C156.35 0.00493547 156.35 0.00493547 156.345 0.00493547C156.345 0.00493547 156.345 0.00493547 156.34 0.00493547C156.34 0.00493547 156.34 0.00493547 156.335 0.00493547C156.335 0.00493547 156.335 0.00493547 156.33 0.00493547C156.33 0.00493547 156.33 0.00493547 156.325 0.00493547C156.325 0.00493547 156.325 0.00493547 156.32 0.00493547C156.3 0.00493547 156.281 0.00493547 156.261 0.00493547C156.216 0.00493547 156.172 0.00493547 156.127 0C156.053 0 155.984 0 155.91 0C155.406 0 154.902 0.0197419 154.403 0.0641611C154.26 0.0740321 154.117 0.0888385 153.978 0.10858C152.348 0.291193 150.767 0.705772 149.25 1.34738C148.87 1.51025 148.494 1.683 148.124 1.87054C147.817 2.02848 147.516 2.19629 147.214 2.36903C146.913 2.54177 146.626 2.72932 146.34 2.9218C145.604 3.42028 144.902 3.97799 144.25 4.58012C144.102 4.71831 143.954 4.86144 143.805 5.0095C143.707 5.10821 143.613 5.20199 143.519 5.30563C143.376 5.4537 143.237 5.6067 143.099 5.7597C142.6 6.32234 142.135 6.91953 141.715 7.5414C141.291 8.16821 140.905 8.82956 140.569 9.50572C140.475 9.69327 140.386 9.87588 140.302 10.0684C140.248 10.1917 140.189 10.3201 140.134 10.4484C139.334 12.2844 138.889 14.229 138.791 16.2328C138.786 16.3019 138.786 16.3759 138.781 16.4499C138.776 16.5931 138.771 16.7362 138.771 16.8793C138.771 16.9533 138.771 17.0224 138.771 17.0965V17.1212C138.771 17.2248 138.771 17.3581 138.776 17.516C138.805 18.6511 138.939 19.7666 139.186 20.8622ZM171.019 23.7643C170.189 25.2153 169.117 26.5035 167.857 27.5103C165.283 29.5783 162.817 29.9781 159.408 30.5308C158.489 30.6789 157.545 30.8319 156.498 31.0342C155.895 31.1478 155.352 31.2613 154.823 31.3699C153.208 31.7055 151.923 31.972 150.628 31.972C149.942 31.972 149.255 31.898 148.519 31.7203C149.126 31.8535 149.714 31.9226 150.317 31.9226C150.599 31.9226 150.88 31.9078 151.172 31.8832C152.17 31.7894 153.203 31.5426 154.398 31.2514C155.045 31.0984 155.777 30.9207 156.582 30.748C157.906 30.4667 159.112 30.2791 160.179 30.1113C161.691 29.8744 162.995 29.6671 164.24 29.2871C165.599 28.8676 166.75 28.2704 167.867 27.4017C169.097 26.4393 170.174 25.1956 171.019 23.7643ZM167.827 27.3524C165.421 29.2279 163.217 29.5734 160.169 30.0521C159.102 30.2199 157.896 30.4074 156.572 30.6888C155.767 30.8566 155.036 31.0342 154.388 31.1922C152.827 31.5673 151.607 31.8634 150.332 31.8634C149.793 31.8634 149.245 31.8091 148.662 31.6907C149.141 31.7795 149.616 31.8239 150.09 31.8239C150.421 31.8239 150.752 31.8042 151.093 31.7598C152.027 31.6462 152.975 31.3797 154.072 31.0737C154.823 30.8664 155.678 30.6295 156.656 30.4025C158.212 30.0472 159.576 29.8448 160.782 29.6671C162.145 29.4648 163.321 29.292 164.462 28.9515C165.712 28.5764 166.785 28.0335 167.837 27.2438C169.181 26.232 170.342 24.8748 171.221 23.3053C170.352 24.8847 169.201 26.2863 167.827 27.3524ZM148.83 31.6611C149.196 31.7153 149.542 31.74 149.877 31.74C151.197 31.74 152.363 31.3699 153.815 30.9059C154.65 30.6394 155.594 30.3383 156.72 30.062C158.469 29.6276 159.952 29.4302 161.261 29.2525C163.702 28.9268 165.628 28.6702 167.797 27.0859C169.26 26.0198 170.51 24.5392 171.424 22.8019C170.54 24.5342 169.295 26.0642 167.797 27.1945C165.525 28.9071 163.43 29.218 160.772 29.6079C159.566 29.7856 158.198 29.9879 156.641 30.3482C155.663 30.5753 154.808 30.8122 154.057 31.0194C152.536 31.4439 151.365 31.7696 150.09 31.7696C149.68 31.7696 149.27 31.7351 148.83 31.6611ZM171.528 22.9401C170.663 24.7711 169.423 26.3998 167.891 27.6683C165.105 29.9731 162.308 30.4223 158.435 31.0441C157.797 31.1478 157.135 31.2514 156.434 31.3748C156.078 31.434 155.742 31.4982 155.416 31.5525C153.716 31.8535 152.348 32.0954 151.014 32.0954C150.144 32.0954 149.285 31.9917 148.361 31.7351C149.161 31.9424 149.897 32.0263 150.633 32.0263C151.928 32.0263 153.217 31.7598 154.838 31.4242C155.367 31.3156 155.91 31.2021 156.513 31.0885C157.555 30.8862 158.504 30.7332 159.423 30.5851C161.118 30.3087 162.585 30.0718 163.959 29.6424C165.456 29.1736 166.706 28.5122 167.901 27.5547C169.379 26.3653 170.633 24.781 171.518 22.9697C171.518 22.9598 171.523 22.9499 171.528 22.9401ZM149.072 31.6314C149.294 31.6512 149.507 31.6611 149.714 31.6611C151.058 31.6611 152.19 31.2514 153.618 30.7381C154.512 30.4173 155.53 30.0472 156.79 29.7115C158.707 29.2032 160.273 29.0156 161.656 28.8528C163.909 28.5863 165.688 28.379 167.763 26.9181C169.028 26.0247 170.139 24.8156 171.009 23.3941C170.149 24.8304 169.043 26.0938 167.758 27.0316C165.599 28.606 163.682 28.8626 161.246 29.1884C159.937 29.3611 158.455 29.5635 156.701 29.9978C155.569 30.2791 154.626 30.5802 153.791 30.8467C152.343 31.3057 151.182 31.6759 149.868 31.6759C149.616 31.6808 149.349 31.666 149.072 31.6314ZM171.187 23.7248C170.357 25.2894 169.25 26.696 167.921 27.8311C164.848 30.4371 161.592 30.9306 157.086 31.6166C156.849 31.6512 156.607 31.6907 156.365 31.7252L156.211 31.7499C154.339 32.0361 152.862 32.2632 151.473 32.2632C150.377 32.2632 149.334 32.1201 148.198 31.7598C149.136 32.0361 150.026 32.1694 151.004 32.1694C151.162 32.1694 151.325 32.1645 151.488 32.1595C152.669 32.1102 153.884 31.893 155.421 31.6216C155.747 31.5623 156.088 31.5031 156.439 31.4439C157.135 31.3254 157.797 31.2169 158.44 31.1132C162.323 30.4864 165.125 30.0373 167.926 27.7225C169.22 26.6466 170.337 25.2746 171.187 23.7248ZM149.581 31.5969C150.95 31.5969 152.056 31.1478 153.469 30.5752C154.413 30.1903 155.485 29.7609 156.859 29.3661C158.924 28.7787 160.549 28.6208 161.987 28.4826C164.082 28.2803 165.737 28.1174 167.733 26.7601C169.038 25.8668 170.184 24.6329 171.073 23.172C170.199 24.6428 169.057 25.931 167.728 26.8736C165.663 28.3247 163.889 28.532 161.646 28.7985C160.263 28.9613 158.692 29.144 156.77 29.6573C155.51 29.9929 154.492 30.3581 153.593 30.6838C152.022 31.2514 150.806 31.6857 149.285 31.592C149.388 31.5969 149.482 31.5969 149.581 31.5969ZM171.236 23.7544C170.406 25.3585 169.295 26.8095 167.956 27.9891C164.779 30.7677 161.276 31.4093 156.3 32.0658C152.965 32.51 150.708 32.7123 148.054 31.7647C149.186 32.1398 150.263 32.3125 151.483 32.3125C151.577 32.3125 151.671 32.3125 151.765 32.3076C153.084 32.278 154.472 32.0658 156.226 31.7992L156.379 31.7746C156.622 31.7351 156.864 31.7005 157.101 31.666C159.364 31.3254 161.32 31.0244 163.079 30.4913C164.008 30.21 164.833 29.8744 165.604 29.4697C166.444 29.0304 167.214 28.5073 167.965 27.8706C169.265 26.7552 170.391 25.3436 171.236 23.7544ZM149.497 31.5377C150.89 31.5327 151.967 31.0441 153.356 30.4173C154.339 29.9731 155.451 29.4697 156.928 29.0255C159.117 28.3642 160.787 28.2408 162.264 28.1322C163.212 28.0631 164.107 27.994 164.981 27.7916C165.95 27.5646 166.814 27.1895 167.699 26.6071C169.117 25.6694 170.357 24.322 171.286 22.7032C170.381 24.3171 169.146 25.7237 167.699 26.7157C165.712 28.0631 164.067 28.226 161.982 28.4283C160.544 28.5665 158.914 28.7244 156.844 29.3118C155.465 29.7017 154.393 30.136 153.45 30.521C152.012 31.1033 150.895 31.5574 149.497 31.5377ZM170.955 24.3911C170.169 25.7977 169.166 27.076 167.985 28.147C164.853 30.9652 161.3 31.8437 156.226 32.4112C152.852 32.7863 150.505 32.7962 147.911 31.7795C149.339 32.3027 150.643 32.4951 152.056 32.4951C153.331 32.4951 154.695 32.3372 156.305 32.125C158.603 31.819 160.826 31.4982 162.783 30.8911C164.833 30.2594 166.488 29.3463 167.995 28.0335C168.741 27.3771 169.428 26.6219 170.036 25.8026C170.367 25.3535 170.673 24.8797 170.955 24.3911ZM149.67 31.4784C150.12 31.4538 150.554 31.3797 150.999 31.2465C151.75 31.0244 152.457 30.674 153.272 30.2643C154.28 29.7609 155.426 29.1834 157.002 28.685C159.304 27.9545 160.999 27.8706 162.501 27.7966C163.39 27.7522 164.23 27.7127 165.06 27.535C165.984 27.3376 166.814 26.9921 167.674 26.4492C169.141 25.5164 170.416 24.1345 171.365 22.4663C171.389 22.4268 171.409 22.3873 171.434 22.3429C170.51 24.0555 169.211 25.5411 167.674 26.5578C165.757 27.8163 164.215 27.9298 162.264 28.073C160.787 28.1815 159.112 28.3049 156.918 28.9663C155.436 29.4154 154.319 29.9188 153.336 30.363C152.007 30.9652 150.969 31.434 149.67 31.4784ZM171.434 23.6113C170.604 25.3733 169.448 26.9724 168.015 28.3099C165.144 30.9701 161.706 32.2582 156.157 32.7567C153.114 33.0331 150.52 32.969 147.763 31.7844C149.043 32.3027 150.293 32.584 151.691 32.6728C152.022 32.6926 152.363 32.7024 152.723 32.7024C153.687 32.7024 154.798 32.6284 156.231 32.4655C159.107 32.1447 161.058 31.7647 162.763 31.2021C163.771 30.8714 164.67 30.4716 165.515 29.9929C166.414 29.4845 167.234 28.8923 168.02 28.1815C168.766 27.5054 169.453 26.7404 170.055 25.9063C170.584 25.1956 171.044 24.4207 171.434 23.6113ZM149.868 31.4044C150.258 31.3649 150.633 31.281 151.014 31.1527C151.74 30.9109 152.417 30.5358 153.203 30.1064C154.235 29.5388 155.401 28.8923 157.066 28.3345C159.467 27.5301 161.177 27.4955 162.689 27.4659C164.364 27.4314 165.811 27.4017 167.629 26.2913C168.954 25.4769 170.125 24.2973 171.048 22.8611C170.204 24.2282 169.067 25.4868 167.629 26.3998C165.772 27.5745 164.25 27.6485 162.486 27.7374C160.984 27.8114 159.28 27.8904 156.972 28.6257C155.391 29.1292 154.245 29.7017 153.237 30.21C152.032 30.8171 151.063 31.3008 149.868 31.4044ZM171.246 24.1197C170.441 25.7336 169.364 27.2093 168.049 28.4678C165.105 31.2712 161.305 32.7469 156.093 33.1022C152.639 33.3391 150.11 32.9492 147.644 31.7943C148.949 32.3668 150.218 32.7074 151.636 32.8554C152.219 32.9196 152.827 32.9492 153.489 32.9492C154.285 32.9492 155.159 32.9048 156.172 32.811C158.85 32.5692 160.94 32.1595 162.753 31.5179C164.798 30.7973 166.533 29.7609 168.064 28.3444C168.81 27.6485 169.497 26.8687 170.095 26.0198C170.515 25.4226 170.905 24.7859 171.246 24.1197ZM150.209 31.3008C150.49 31.2465 150.772 31.1675 151.048 31.0639C151.76 30.8023 152.412 30.4074 153.168 29.9484C154.215 29.3167 155.396 28.6011 157.13 27.9891C159.616 27.1204 161.33 27.1352 162.847 27.15C164.443 27.1648 165.816 27.1747 167.595 26.1284C169.003 25.2992 170.243 24.0456 171.202 22.4959C170.337 23.9518 169.136 25.2894 167.6 26.237C165.796 27.3425 164.354 27.3721 162.689 27.4067C161.172 27.4363 159.453 27.4708 157.046 28.2803C155.381 28.838 154.21 29.4845 153.173 30.0521C152.111 30.6443 151.246 31.1182 150.209 31.3008ZM171.053 24.6181C170.278 26.0938 169.28 27.4511 168.084 28.6257C165.05 31.592 160.994 33.2157 156.029 33.4477C155.663 33.4625 155.302 33.4724 154.947 33.4724C152.14 33.4724 149.754 32.9344 147.511 31.7992C147.526 31.8042 147.536 31.8091 147.55 31.819C148.85 32.431 150.164 32.8357 151.577 33.043C152.412 33.1664 153.282 33.2305 154.245 33.2305C154.828 33.2305 155.446 33.2059 156.103 33.1614C158.657 32.9838 160.831 32.5544 162.738 31.8437C164.794 31.0737 166.547 29.9879 168.099 28.5122C169.28 27.3721 170.273 26.0544 171.053 24.6181ZM150.426 31.1922C151.399 30.9405 152.2 30.4124 153.133 29.8004C154.191 29.1045 155.391 28.3148 157.205 27.6485C159.769 26.7058 161.488 26.7799 163 26.8391C164.517 26.9033 165.826 26.9576 167.565 25.9705C169.023 25.1413 170.312 23.8531 171.291 22.2442C171.31 22.2096 171.33 22.1751 171.35 22.1405C170.465 23.6804 169.211 25.1067 167.565 26.0741C165.801 27.1155 164.433 27.1007 162.847 27.0859C162.654 27.0859 162.461 27.0809 162.259 27.0809C160.876 27.0809 159.29 27.1648 157.106 27.9249C155.367 28.5418 154.181 29.2575 153.128 29.8892C152.2 30.4716 151.384 30.9602 150.426 31.1922ZM171.552 23.7347C170.737 25.5954 169.581 27.303 168.114 28.7837C164.966 31.9473 160.762 33.6747 155.955 33.7882C155.792 33.7932 155.628 33.7932 155.47 33.7932C152.511 33.7932 149.877 33.1466 147.432 31.819C147.417 31.8141 147.407 31.8042 147.392 31.7992C147.422 31.8141 147.447 31.8289 147.476 31.8437C148.776 32.5001 150.095 32.9541 151.513 33.2256C152.58 33.428 153.707 33.5316 154.927 33.5316C155.288 33.5316 155.653 33.5217 156.029 33.5069C158.484 33.3934 160.732 32.9393 162.718 32.1595C163.731 31.7598 164.7 31.2662 165.589 30.6937C166.493 30.1113 167.348 29.4302 168.124 28.6702C168.87 27.9397 169.551 27.1254 170.144 26.2567C170.683 25.4621 171.157 24.6132 171.552 23.7347ZM155.885 0.0592257C155.96 0.0592257 156.034 0.0592257 156.108 0.0592257H156.113C156.118 0.0592257 156.123 0.0592257 156.123 0.0592257C156.127 0.0592257 156.127 0.0592257 156.132 0.0592257C156.137 0.0592257 156.147 0.0592257 156.152 0.0592257C156.207 0.0592257 156.266 0.0592257 156.32 0.0641611H156.325C156.34 0.0641611 156.35 0.0641611 156.365 0.0641611C156.424 0.0641611 156.483 0.0690966 156.543 0.0690966C156.552 0.0690966 156.557 0.0690966 156.567 0.0690966C156.631 0.0740321 156.696 0.0740321 156.76 0.0789676C156.765 0.0789676 156.765 0.0789676 156.77 0.0789676C157.634 0.123387 158.484 0.231967 159.314 0.399773C159.344 0.404709 159.374 0.409644 159.398 0.419515C159.433 0.429386 159.472 0.434322 159.507 0.444192C159.512 0.444192 159.512 0.444192 159.517 0.444192C159.542 0.449128 159.566 0.454063 159.591 0.458999C159.63 0.46887 159.665 0.473805 159.705 0.483676C159.71 0.483676 159.719 0.488612 159.724 0.488612C159.744 0.493547 159.764 0.498483 159.784 0.503418C159.823 0.513289 159.863 0.52316 159.902 0.533031C159.912 0.533031 159.922 0.537966 159.932 0.537966C159.947 0.542902 159.961 0.542902 159.976 0.547837C160.016 0.557708 160.06 0.567579 160.1 0.57745C160.115 0.582386 160.129 0.582386 160.139 0.587321C160.149 0.587321 160.154 0.592257 160.164 0.592257C160.209 0.602128 160.248 0.616934 160.293 0.626805C160.312 0.63174 160.327 0.636676 160.347 0.641611H160.352C160.396 0.651482 160.441 0.666289 160.485 0.67616C160.51 0.681095 160.53 0.690966 160.554 0.695902C160.594 0.705773 160.633 0.720579 160.678 0.73045C160.708 0.740321 160.732 0.745256 160.762 0.755127C160.796 0.764998 160.831 0.774869 160.866 0.789676C160.9 0.799546 160.93 0.809417 160.964 0.819288C160.994 0.829159 161.024 0.83903 161.053 0.848901C161.093 0.858772 161.128 0.873579 161.167 0.883449C161.192 0.89332 161.216 0.898256 161.241 0.908127C161.286 0.922933 161.33 0.93774 161.375 0.952546C161.394 0.957482 161.409 0.967353 161.429 0.972288C161.473 0.987094 161.523 1.00684 161.567 1.02164C161.572 1.02164 161.572 1.02658 161.577 1.02658C161.587 1.03151 161.597 1.03645 161.612 1.03645C161.661 1.05126 161.706 1.071 161.755 1.09074C161.765 1.09567 161.775 1.09567 161.785 1.10061C161.79 1.10061 161.79 1.10555 161.795 1.10555C161.844 1.12529 161.893 1.14009 161.938 1.15984C161.953 1.16477 161.967 1.16971 161.982 1.17958C162.027 1.19932 162.071 1.21413 162.121 1.23387C162.14 1.24374 162.165 1.24867 162.185 1.25855C162.224 1.27335 162.264 1.29309 162.303 1.3079C162.328 1.31777 162.358 1.32764 162.382 1.34245C162.417 1.35725 162.447 1.37206 162.481 1.38687C162.516 1.40167 162.545 1.41648 162.58 1.43129C162.605 1.44116 162.634 1.45596 162.659 1.46584C162.699 1.48064 162.738 1.50038 162.778 1.52013C162.797 1.53 162.817 1.53987 162.837 1.54974C162.881 1.56948 162.926 1.58922 162.975 1.6139C162.99 1.61883 163 1.62871 163.015 1.63364C163.064 1.65832 163.114 1.683 163.163 1.70274C163.163 1.70274 163.168 1.70274 163.168 1.70767C163.173 1.71261 163.178 1.71261 163.183 1.71754C163.232 1.74222 163.287 1.7669 163.336 1.79158C163.346 1.79651 163.356 1.80145 163.366 1.80638C163.415 1.83106 163.464 1.85574 163.514 1.88041C163.529 1.89029 163.544 1.89522 163.558 1.90509C163.603 1.92483 163.642 1.94951 163.687 1.96925C163.707 1.97912 163.731 1.99393 163.751 2.0038C163.786 2.02354 163.82 2.04329 163.86 2.06303C163.889 2.07783 163.914 2.09264 163.944 2.10745C163.973 2.12225 164.003 2.13706 164.028 2.1568C164.062 2.17654 164.097 2.19629 164.131 2.21603C164.151 2.2259 164.176 2.2407 164.196 2.25551C164.235 2.28019 164.28 2.30487 164.319 2.32461C164.334 2.33448 164.349 2.34435 164.364 2.34928C164.413 2.3789 164.458 2.40357 164.507 2.43319C164.517 2.43812 164.522 2.44306 164.532 2.44799C164.581 2.47761 164.63 2.50722 164.685 2.54177C164.69 2.5467 164.695 2.5467 164.7 2.55164C164.749 2.58125 164.798 2.6158 164.848 2.64541C164.858 2.65528 164.873 2.66022 164.882 2.67009C164.927 2.6997 164.971 2.72438 165.011 2.75399C165.031 2.76386 165.045 2.77867 165.065 2.78854C165.1 2.81322 165.139 2.8379 165.174 2.86257C165.199 2.87738 165.223 2.89712 165.248 2.91193C165.278 2.93167 165.307 2.95141 165.337 2.97115C165.367 2.9909 165.401 3.01557 165.431 3.03532C165.456 3.05012 165.475 3.06986 165.5 3.08467C165.54 3.10935 165.574 3.13896 165.614 3.16364C165.628 3.17351 165.648 3.18832 165.663 3.19819C165.708 3.2278 165.752 3.26235 165.796 3.29196C165.806 3.2969 165.816 3.30677 165.826 3.3117C165.876 3.34625 165.925 3.38573 165.974 3.42028C165.979 3.42028 165.979 3.42522 165.984 3.42522C166.034 3.4647 166.083 3.49925 166.132 3.53873C166.137 3.54367 166.147 3.5486 166.152 3.55354C166.197 3.58809 166.241 3.62264 166.291 3.66212C166.305 3.67199 166.315 3.68186 166.33 3.69173C166.37 3.72135 166.409 3.75589 166.449 3.78551C166.468 3.80031 166.488 3.81512 166.508 3.82993C166.543 3.8546 166.572 3.88422 166.607 3.90889C166.631 3.92864 166.656 3.94838 166.681 3.97306C166.706 3.99773 166.735 4.01747 166.76 4.04215C166.79 4.06683 166.824 4.09644 166.854 4.12112C166.874 4.14086 166.893 4.15567 166.913 4.17541C166.948 4.20502 166.987 4.23957 167.022 4.26918C167.037 4.28399 167.051 4.29386 167.066 4.30867C167.111 4.34815 167.15 4.3827 167.195 4.42218C167.205 4.43205 167.21 4.43699 167.219 4.44686C167.269 4.49128 167.313 4.5357 167.363 4.58012C167.368 4.58012 167.368 4.58505 167.373 4.58505C167.694 4.88612 168.01 5.20199 168.311 5.52773C168.702 5.95218 169.067 6.39144 169.413 6.8455C169.423 6.86031 169.438 6.87511 169.448 6.88992C169.477 6.9294 169.507 6.96889 169.537 7.00837C169.561 7.04292 169.586 7.07253 169.611 7.10708C169.626 7.12682 169.64 7.14656 169.655 7.17124C169.695 7.22553 169.729 7.27489 169.769 7.32918C170.796 8.78514 171.597 10.3744 172.13 11.9981C172.595 13.4245 172.862 14.8953 172.901 16.3413C172.901 16.3562 172.901 16.371 172.901 16.3858C172.901 16.4055 172.901 16.4253 172.901 16.445C172.901 16.4795 172.901 16.5092 172.901 16.5437C172.901 16.5733 172.901 16.6079 172.901 16.6375V16.6424C172.901 16.672 172.901 16.7016 172.901 16.7263C172.901 16.7411 172.901 16.7609 172.901 16.7757C172.901 16.8744 172.896 16.9682 172.891 17.0669C172.886 17.1409 172.886 17.2149 172.881 17.289C172.881 17.3136 172.877 17.3334 172.877 17.3581C172.877 17.3729 172.877 17.3877 172.872 17.4025C172.862 17.4913 172.857 17.5851 172.847 17.6739C172.541 20.3687 170.742 24.095 167.526 25.9211C165.801 26.8983 164.497 26.844 162.99 26.7799C162.6 26.7651 162.19 26.7453 161.76 26.7453C160.52 26.7453 159.082 26.8885 157.17 27.5893C155.352 28.2605 154.146 29.0502 153.084 29.7461C151.79 30.5999 150.742 31.286 149.141 31.286C148.993 31.286 148.84 31.281 148.687 31.2662C146.34 31.0836 144.709 29.7017 143.736 28.8725C143.519 28.6899 143.311 28.4974 143.114 28.3049C143.104 28.2951 143.099 28.2901 143.089 28.2803C143.084 28.2753 143.079 28.2704 143.074 28.2654C143.049 28.2408 143.025 28.2161 143 28.1914C142.911 28.1026 142.827 28.0088 142.743 27.92C142.733 27.9101 142.723 27.8953 142.709 27.8854C142.704 27.8805 142.699 27.8755 142.694 27.8657C142.674 27.8459 142.659 27.8262 142.639 27.8065C142.62 27.7867 142.6 27.762 142.585 27.7423C142.58 27.7374 142.58 27.7374 142.575 27.7324C142.55 27.7028 142.526 27.6732 142.501 27.6436C142.481 27.6238 142.466 27.6041 142.447 27.5794C142.382 27.5005 142.318 27.4165 142.254 27.3376L142.249 27.3326C142.229 27.303 142.205 27.2784 142.185 27.2487C142.175 27.2389 142.17 27.229 142.16 27.2142C141.043 25.7237 140.248 24.0604 139.709 22.4317C139.645 22.2294 139.586 22.0319 139.527 21.8395C139.309 21.0745 139.156 20.3588 139.047 19.7221C139.047 19.7172 139.047 19.7172 139.047 19.7123C139.047 19.7073 139.047 19.6975 139.042 19.6925C138.84 18.4636 138.81 17.5357 138.805 17.1853C138.805 17.1557 138.805 17.1261 138.805 17.0965C138.805 16.8744 138.81 16.6572 138.82 16.4401C139.126 8.94801 144.28 2.67996 151.221 0.705773C151.493 0.626805 151.765 0.557708 152.037 0.493547C152.175 0.463934 152.313 0.429386 152.452 0.404709C152.59 0.375096 152.728 0.350419 152.872 0.325741C153.01 0.301064 153.153 0.276386 153.292 0.256645C153.504 0.222096 153.716 0.197419 153.929 0.172742C154.215 0.138193 154.502 0.113516 154.789 0.093774C155.154 0.0690966 155.52 0.0592257 155.885 0.0592257ZM147.501 31.9276C148.751 32.5939 150.075 33.0923 151.444 33.4082C152.718 33.7043 154.072 33.8524 155.48 33.8524C155.638 33.8524 155.796 33.8524 155.955 33.8475C158.356 33.7932 160.624 33.3292 162.694 32.4754C164.754 31.6265 166.587 30.3976 168.148 28.8281C168.894 28.0779 169.571 27.2487 170.164 26.3702C170.47 25.9112 170.757 25.4325 171.019 24.9439C168.173 30.4025 162.457 34.1387 155.88 34.1387C152.842 34.1337 149.976 33.3342 147.501 31.9276Z" fill="white"/>
<path d="M54.1637 6.96008H55.6141V8.3184L55.2288 8.70326H53.6877V7.34494L53.8917 7.05064L54.1637 6.96008Z" fill="white"/>
<path d="M88.6789 17.4418H90.22V18.8001L90.016 19.0944L89.7214 19.1849H88.3616L88.271 19.0944V17.8493L88.6789 17.4418Z" fill="white"/>
<path d="M86.5488 17.4418H88.0899V18.8001L87.614 19.1849H86.1636V17.8266L86.5488 17.4418Z" fill="white"/>
<path d="M56.3848 6.96008H57.8352V8.3184L57.45 8.70326H55.8862V7.45813L56.3848 6.96008Z" fill="white"/>
<path d="M99.4665 17.4418H101.008V18.8906L100.622 19.1849H99.1719V17.7361L99.4665 17.4418Z" fill="white"/>
<path d="M101.483 17.4418H103.024V18.8906L102.639 19.1849H101.211V17.7361L101.483 17.4418Z" fill="white"/>
<path d="M34.5832 17.4418H36.1242V18.8906L35.739 19.1849H34.2886V17.7361L34.5832 17.4418Z" fill="white"/>
<path d="M83.2625 8.88437L83.7384 8.97493V11.1935H83.5345L83.6251 15.3364H87.2965L87.3871 10.0389L88.8375 9.56353L89.2228 9.65409L89.3134 9.74465V11.7595L89.2228 11.85L89.1321 15.4043L90.9678 15.3137L91.557 14.6346L92.6222 12.7103L93.4833 11.7368L94.0726 11.2614L94.9338 10.8766H96.0896L97.0641 11.2614L97.6533 11.7368L98.1292 12.5065L98.4238 13.48L98.5145 14.1592V15.0194L98.4238 15.4043H101.71V10.1069L102.571 9.722L103.16 9.51826L103.636 9.60881V11.8274H103.432V16.8305L97.7439 16.9211L97.268 17.2154H96.2029L94.7525 16.6268L93.3927 15.8571L93.0074 15.5628L92.4182 16.2419L91.4437 16.8305H82.288L82.084 16.74L80.543 16.6494L79.3872 16.2646L78.526 15.6759L77.9368 14.9968L77.5515 14.1365V12.7782L77.8461 11.9179L78.526 11.0577L79.5005 10.3785L80.5656 9.99366L81.0416 9.90311H81.8121V9.4277L82.6733 9.04284L83.2625 8.88437ZM81.5401 11.4878L80.2937 11.8727L79.6138 12.4613L79.3192 13.0499V13.9101L79.7045 14.4987L80.1804 14.8836L81.0416 15.1779H81.8121V11.5105H81.5401V11.4878ZM95.2284 12.4386L94.4578 13.0272L93.8686 13.8875L93.9593 14.2724L94.6391 14.861L95.9989 15.5401L96.5881 15.7439L96.7921 15.2685V13.9101L96.4975 13.0499L96.0216 12.5745L95.8176 12.4839H95.2284V12.4386Z" fill="white"/>
<path d="M11.9432 9.56353L12.3285 9.65409L12.4191 9.74465V11.7595L12.3285 11.85L12.2378 15.4043H15.5239V10.1069L16.6797 9.63145L17.3596 9.54089L17.4502 9.63145V11.85H17.2463V15.4269H19.8525V11.8727L20.827 11.4878L21.5975 11.2841L21.8015 11.4878V13.6158L21.7108 13.7064L21.6202 15.4496L22.8666 15.359V11.035L24.6116 10.4464L24.8156 10.537V12.7556L24.7249 12.8461V15.0647L25.4048 15.359H25.6994L25.7901 10.0616L27.1498 9.58617L27.6258 9.67672L27.7164 9.76728V11.7821L27.6258 11.8727L27.5351 15.7212L27.2405 16.3098L26.7646 16.6947L26.3793 16.8984H25.0196L24.1584 16.6041H23.8638L23.1839 16.8984H0.95183L0.475915 16.5136L0.0906509 15.5401L0 15.1553V14.0007L0.294613 13.0272L0.883843 12.167L1.74502 11.4878L2.90082 11.0124H3.10478L3.69401 12.7556L2.53822 13.3442L2.0623 14.1139V15.1779L2.15295 15.3816H10.4475L10.5381 10.0842L11.9432 9.56353Z" fill="white"/>
<path d="M63.7047 6.75638H63.9087V8.5901L63.4328 9.17871L61.8917 10.1522L61.3025 10.537L62.9342 10.7408L63.9994 11.1256L64.5886 11.601L65.0645 12.3707L65.3591 13.231L65.5631 14.6799V16.8985H51.3536V17.6682L51.059 18.8227L50.4698 19.5925L49.4953 20.1811L49.2006 20.2716H47.9542L46.9797 19.8868L46.3905 19.2981L46.5944 18.9133L47.6596 18.1436L48.1355 18.5284L48.7247 18.619L49.2006 18.3247L49.4046 18.0304L49.4953 16.4004L49.2913 16.491H48.4301L47.365 16.2872L46.5944 15.8118L45.9146 15.1327L45.5293 14.1592V12.9367L45.9146 11.9633L46.7757 11.103L47.6369 10.7181H49.2686L49.7446 10.9219L50.6057 10.7181L51.3763 10.6276L51.4669 10.8313V12.8461L51.3763 12.9367L51.3536 15.427H54.6397V10.1295L55.7955 9.65411L56.4754 9.56355L56.566 9.65411V11.8727H56.362V15.427L63.5914 15.3364L63.5008 13.797L63.1155 12.733L62.5263 12.4387L61.9371 12.3481H59.2402L58.4697 12.2576V10.1295L60.1014 9.06552L62.8889 7.23178L63.7047 6.75638ZM48.4754 12.2576L47.7956 12.5518L47.4103 13.0273L47.3197 13.7064L47.6143 14.3856L48.0902 14.7704L48.3848 14.861H49.3593L49.5633 14.7704V12.8461L48.974 12.3707L48.4754 12.2576Z" fill="white"/>
<path d="M115.081 5.0358L115.557 5.12636L115.647 5.42066L115.851 7.63923L115.375 7.54869L115.466 15.359L123.285 15.4495L123.194 14.0912L122.899 13.0272L122.514 12.5518L121.54 12.3481H118.843L118.072 12.2575V10.22L119.137 9.45032L120.973 8.29576L123.285 6.75634H123.489V8.68062L123.013 9.15602L121.086 10.4011H120.882V10.6049H121.947L122.922 10.8086L123.896 11.2841L124.576 12.0538L124.962 13.0272L125.166 14.0912V16.8758H113.698V5.60176L114.559 5.21692L115.081 5.0358Z" fill="white"/>
<path d="M30.4359 5.0358H30.9118L31.0025 5.12636L31.2065 6.75634V7.6166L30.8212 7.52604V15.4269H34.9685V10.1295L35.8296 9.74463L36.4189 9.54088L36.8948 9.63144V11.85H36.6908V16.8531H29.0762V5.48857L30.4359 5.0358Z" fill="white"/>
<path d="M106.129 10.6049H109.415L110.48 10.9898L111.251 11.5784L111.727 12.3481L112.021 13.2084L112.225 14.6572V16.8758H105.29L104.701 16.491L104.611 16.2872V15.427L110.299 15.3364L110.208 13.8875L109.914 12.9141L109.438 12.4387L108.962 12.3481H106.741L105.97 12.2576L106.061 11.103L106.129 10.6049Z" fill="white"/>
<path d="M68.0333 10.6049H71.3194L72.2939 10.8992L73.1551 11.5784L73.631 12.3481L73.9256 13.2084L74.1295 14.4535V16.8532H67.1948L66.7189 16.5589L66.5149 16.2646V15.427H72.2939L71.9993 13.4121L71.614 12.6424L71.3194 12.4387L70.8435 12.3481H68.6225L67.852 12.2576L67.9426 11.103L68.0333 10.6049Z" fill="white"/>
<path d="M127.704 5.0358L128.18 5.12636L128.384 6.75634V7.6166L127.998 7.52604V15.608L127.704 16.1966L127.115 16.672L126.639 16.8758L126.253 16.7852V5.51122L127.704 5.0358Z" fill="white"/>
<path d="M44.1243 10.6049H44.6002L44.6909 10.8087V12.8235L44.6002 12.9141L44.5096 17.7361L44.215 18.8001L43.6257 19.5698L42.9459 20.0452L42.3566 20.249H41.1555L40.181 19.8641L39.5918 19.2755L39.7958 18.8907L40.8609 18.121L41.3368 18.5058L41.926 18.5964L42.402 18.3021L42.6059 18.0078L42.6966 17.5324L42.7872 11.0804L44.1243 10.6049Z" fill="white"/>
<path d="M126.548 1.75323H127.523L127.908 2.13809L127.998 2.7267L127.794 3.11155H128.089L128.86 2.90781L128.769 3.76807L128.384 4.24348L125.211 5.30749L125.302 4.33404L125.596 3.85863L125.392 3.38322L125.483 2.61351L125.959 2.0249L126.548 1.75323ZM126.843 2.81725L126.548 3.11155L126.752 3.49641L127.523 3.40586L127.319 3.3153L127.228 2.8399H126.843V2.81725Z" fill="#EFC660"/>
<path d="M4.98568 8.79382H6.43609V10.2427L6.14148 10.537H4.50977V9.29187L4.98568 8.79382Z" fill="white"/>
<path d="M7.79599 8.79382H9.24639V10.1521L8.86113 10.537H7.32007V9.29187L7.79599 8.79382Z" fill="white"/>
<path d="M15.9771 6.96008H17.4275V8.40896L17.1329 8.70326H15.5918V7.34494L15.9771 6.96008Z" fill="white"/>
<path d="M81.9252 6.57523H83.5569V7.93354L83.2622 8.22784L81.7212 8.31839V6.77896L81.9252 6.57523Z" fill="white"/>
<path d="M79.5231 6.57523H81.1548V7.93354L80.8602 8.22784L79.3191 8.31839V6.77896L79.5231 6.57523Z" fill="white"/>
<path d="M113.064 23.124L113.268 23.5089V24.4823H113.177L113.086 30.7306L80.9733 30.8211L80.6787 31.0249H79.9988L78.639 30.4363L77.7778 29.7571L77.3019 29.1685L77.098 29.078H76.5087L76.0328 29.5534L75.9422 33.2208L75.8515 33.3114H75.1716V29.4628L75.4662 28.8742L76.0555 28.3988L76.3501 28.3083H77.7098L78.2991 27.5385L78.8883 27.1537L79.1829 27.0631H80.0441L80.6333 27.3574L81.2226 28.0366L81.4265 28.7158V30.0741H98.1062V23.4183L98.6955 23.2146H99.0807L99.1714 24.4597H98.8768L98.9674 29.9382L102.14 30.0288L101.755 29.2591L100.78 28.5799L100.191 28.1951L100.282 27.5159L101.438 26.8368L102.118 26.633H103.477L104.452 27.0179L104.928 27.4027L105.018 27.9913L103.953 29.2364L103.477 29.9156H107.149L107.239 26.4519L107.829 26.1576H108.214V27.3122L108.123 27.4027L108.032 30.0062H109.868V23.3504L110.457 23.1467H110.843L110.933 24.3918H110.843L110.752 29.9835H112.293V23.441L113.064 23.124ZM102.163 27.3801L101.392 27.6744L101.098 27.8781V28.0819L102.072 28.761L102.661 29.5307L103.047 29.327L103.817 28.3535L104.112 27.9687L104.021 27.6744L103.341 27.3801H102.163ZM79.2282 27.8555L78.5484 28.4441L78.2538 28.9195L78.4577 29.3044L79.2282 29.893L80.0894 30.2778H80.384L80.4747 30.0741V28.6252L80.0894 27.946L79.8855 27.8555H79.2282Z" fill="white"/>
<path d="M42.9682 26.2256H43.3535V27.3801L43.2628 27.4707L43.1722 30.7533H14.6399L14.2546 30.3684V30.0741H18.1073L17.9033 28.6252L17.6087 27.9461L17.1328 27.7423L15.2065 27.6518V27.0632L15.2971 26.8594H17.4274L18.1979 27.2443L18.6739 27.8329L18.9685 28.8969V30.0515H37.2799L36.8946 29.2818L35.9201 28.6026L35.4442 28.3083V27.6292L36.4187 26.95L37.2799 26.6557H38.6396L39.7954 27.1311L40.1807 27.516V27.9914L38.8209 29.6213L38.617 29.9156L42.379 30.0062V26.4519L42.9682 26.2256ZM37.3932 27.3801L36.6227 27.6518L36.3281 27.8555V28.0593L37.1892 28.6479L37.7785 29.327L37.8691 29.5308L38.2544 29.327L39.0249 28.3536L39.3195 27.9687L39.2289 27.6744L38.549 27.3801H37.3932Z" fill="white"/>
<path d="M51.8517 26.4972H52.237V27.6518L52.1464 27.7423L52.0557 30.0514H68.8261L68.5314 29.4628L68.4408 28.7837L68.7354 27.9234L69.3246 27.2443L70.0952 26.95H70.9564L71.6362 27.2443L72.2255 27.7197L72.5201 28.3083V28.7837H71.6589L71.3643 28.1045L70.8884 27.8102H70.2085L69.6193 28.1951L69.4153 28.9648L69.7099 29.6439L70.1858 29.9382L72.792 30.0288L72.7014 30.6174L72.4974 30.708H51.9651L51.7611 31.3871L50.8999 32.3606L49.9254 32.836L49.5401 32.9265H48.0897L47.0246 32.5417L46.1634 31.772L45.7781 31.0023L45.6875 30.6174V29.6892L46.0728 28.6252L46.5487 27.9461L47.0246 28.1498L47.2286 28.5347L46.8433 29.1233L46.6393 29.5987V30.6627L47.0246 31.4324L47.6138 31.9078L48.0897 32.1116H49.5401L50.3107 31.7267L50.9906 30.957L51.1945 30.2778L51.2852 26.7236L51.8517 26.4972Z" fill="white"/>
<path d="M48.7698 26.882H49.631V27.5612L49.5404 27.6518H48.6792V26.9726L48.7698 26.882Z" fill="white"/>
<path d="M108.055 24.4824H108.916V25.1615L108.826 25.2521H107.965V24.5729L108.055 24.4824Z" fill="white"/>
<path d="M106.605 24.4824H107.466V25.1615L107.375 25.2521H106.514V24.5729L106.605 24.4824Z" fill="white"/>
<path d="M42.0161 31.4098H42.7867V32.1795L42.1068 32.27L41.9028 32.1795V31.5003L42.0161 31.4098Z" fill="white"/>
</svg>
