<svg width="18" height="18" viewBox="0 0 18 18" fill="none" xmlns="http://www.w3.org/2000/svg">
<path d="M8.96875 12.2812C10.7809 12.2812 12.25 10.8122 12.25 9C12.25 7.18782 10.7809 5.71875 8.96875 5.71875C7.15657 5.71875 5.6875 7.18782 5.6875 9C5.6875 10.8122 7.15657 12.2812 8.96875 12.2812Z" stroke="#C56D1C" stroke-width="2" stroke-linecap="round" stroke-linejoin="round"/>
<path d="M13.7188 15.5625C12.4711 16.3918 10.7353 16.875 9.125 16.875C7.56748 16.875 6.04493 16.4131 4.74989 15.5478C3.45485 14.6825 2.44549 13.4526 1.84945 12.0136C1.25341 10.5747 1.09746 8.99127 1.40132 7.46367C1.70518 5.93607 2.4552 4.53288 3.55654 3.43154C4.65788 2.3302 6.06107 1.58018 7.58867 1.27632C9.11627 0.972461 10.6997 1.12841 12.1386 1.72445C13.5776 2.32049 14.8075 3.32985 15.6728 4.62489C16.5381 5.91993 17 7.44248 17 9C17 10.8121 16.3438 12.2813 14.7031 12.2813C13.0625 12.2813 12.4063 10.8121 12.4063 9V5.71875" stroke="#C56D1C" stroke-width="2" stroke-linecap="round" stroke-linejoin="round"/>
</svg>
