<svg width="22" height="22" viewBox="0 0 22 22" fill="none" xmlns="http://www.w3.org/2000/svg">
<g clip-path="url(#clip0_59_1888)">
<path d="M22 11C22 4.92489 17.0751 2.47955e-05 11 2.47955e-05C4.92487 2.47955e-05 0 4.92489 0 11C0 16.4904 4.02254 21.0412 9.28125 21.8663V14.1797H6.48828V11H9.28125V8.57659C9.28125 5.81971 10.9235 4.2969 13.4361 4.2969C14.6396 4.2969 15.8984 4.51174 15.8984 4.51174V7.21877H14.5113C13.1449 7.21877 12.7188 8.06669 12.7188 8.93661V11H15.7695L15.2818 14.1797H12.7188V21.8663C17.9775 21.0412 22 16.4904 22 11Z" fill="#C56D1C"/>
<path d="M15.2818 14.1797L15.7695 11H12.7188V8.93661C12.7188 8.06669 13.1449 7.21877 14.5113 7.21877H15.8984V4.51174C15.8984 4.51174 14.6396 4.2969 13.4361 4.2969C10.9235 4.2969 9.28125 5.81971 9.28125 8.57659V11H6.48828V14.1797H9.28125V21.8663C10.4202 22.0446 11.5798 22.0446 12.7188 21.8663V14.1797H15.2818Z" fill="white"/>
</g>
<defs>
<clipPath id="clip0_59_1888">
<rect width="22" height="22" fill="white"/>
</clipPath>
</defs>
</svg>
