<svg width="15" height="15" viewBox="0 0 15 15" fill="none" xmlns="http://www.w3.org/2000/svg">
<path d="M1.4458 13.5509L0.926396 14.0919L1.44579 13.5509C1.29659 13.4076 1.21875 13.2201 1.21875 13.0312V5.90625C1.21875 5.79507 1.24564 5.68413 1.29889 5.58188L0.633708 5.23543L1.29889 5.58188C1.35223 5.47948 1.43122 5.38745 1.53198 5.3149L1.09375 4.70625L1.53198 5.3149L7.00073 1.3774C7.14159 1.27598 7.31677 1.21875 7.5 1.21875C7.68323 1.21875 7.85841 1.27598 7.99927 1.3774L13.468 5.3149C13.5688 5.38745 13.6478 5.47948 13.7011 5.58188C13.7544 5.68412 13.7812 5.79507 13.7812 5.90625V13.0312C13.7812 13.2201 13.7034 13.4076 13.5542 13.5509C13.404 13.6951 13.1939 13.7812 12.9688 13.7812H2.03125C1.80611 13.7812 1.59604 13.6951 1.4458 13.5509Z" stroke="#C56D1C" stroke-width="1.5"/>
</svg>
