<svg width="22" height="22" viewBox="0 0 22 22" fill="none" xmlns="http://www.w3.org/2000/svg">
<g clip-path="url(#clip0_249_723)">
<circle cx="11.0001" cy="11" r="8.13043" fill="white"/>
<path d="M15.4666 7.62096C15.3712 7.37375 15.225 7.14927 15.0375 6.96198C14.85 6.77469 14.6254 6.62876 14.3781 6.53357C14.0375 6.40744 13.6779 6.34077 13.3147 6.33648C12.7109 6.30898 12.5299 6.30211 11.0002 6.30211C9.47048 6.30211 9.28943 6.30898 8.68558 6.33648C8.32208 6.34064 7.962 6.40731 7.6211 6.53357C7.37389 6.62902 7.14941 6.77519 6.96212 6.96267C6.77483 7.15016 6.6289 7.37479 6.5337 7.62211C6.40758 7.96264 6.34091 8.32232 6.33662 8.68544C6.30912 9.28929 6.30225 9.47034 6.30225 11C6.30225 12.5297 6.30912 12.7108 6.33662 13.3146C6.34078 13.6781 6.40745 14.0382 6.5337 14.3791C6.62916 14.6263 6.77533 14.8508 6.96281 15.0381C7.1503 15.2254 7.37493 15.3713 7.62225 15.4665C7.96278 15.5926 8.32246 15.6593 8.68558 15.6636C9.28943 15.6911 9.47048 15.6979 11.0002 15.6979C12.5299 15.6979 12.7109 15.6911 13.3147 15.6636C13.6782 15.6594 14.0383 15.5927 14.3792 15.4665C14.6264 15.371 14.8509 15.2249 15.0382 15.0374C15.2255 14.8499 15.3714 14.6253 15.4666 14.3779C15.5927 14.0374 15.6594 13.6777 15.6637 13.3146C15.6912 12.7108 15.6981 12.5297 15.6981 11C15.6981 9.47034 15.6912 9.28929 15.6637 8.68544C15.6595 8.32194 15.5929 7.96186 15.4666 7.62096ZM11.0002 13.9425C10.4182 13.9425 9.84929 13.7699 9.3654 13.4466C8.88151 13.1233 8.50436 12.6637 8.28165 12.1261C8.05894 11.5884 8.00066 10.9968 8.1142 10.426C8.22774 9.85518 8.50798 9.33088 8.9195 8.91936C9.33102 8.50785 9.85532 8.2276 10.4261 8.11406C10.9969 8.00053 11.5885 8.0588 12.1262 8.28151C12.6639 8.50422 13.1234 8.88137 13.4468 9.36526C13.7701 9.84915 13.9427 10.4181 13.9427 11C13.9427 11.7804 13.6327 12.5289 13.0808 13.0807C12.529 13.6325 11.7806 13.9425 11.0002 13.9425ZM14.0584 8.62929C13.9224 8.62929 13.7895 8.58897 13.6764 8.51343C13.5634 8.43789 13.4753 8.33051 13.4232 8.20489C13.3712 8.07927 13.3576 7.94103 13.3841 7.80767C13.4106 7.67431 13.4761 7.55181 13.5723 7.45566C13.6684 7.35951 13.7909 7.29403 13.9243 7.2675C14.0576 7.24098 14.1959 7.25459 14.3215 7.30663C14.4471 7.35866 14.5545 7.44678 14.63 7.55984C14.7056 7.6729 14.7459 7.80582 14.7459 7.94179C14.7459 8.12413 14.6735 8.299 14.5445 8.42793C14.4156 8.55686 14.2407 8.62929 14.0584 8.62929Z" fill="#C56D1C"/>
<path d="M11.0002 12.9101C12.0551 12.9101 12.9103 12.0549 12.9103 11C12.9103 9.9451 12.0551 9.08992 11.0002 9.08992C9.94527 9.08992 9.09009 9.9451 9.09009 11C9.09009 12.0549 9.94527 12.9101 11.0002 12.9101Z" fill="#C56D1C"/>
<path d="M11 2.47955e-05C8.82441 2.47955e-05 6.69767 0.645163 4.88873 1.85386C3.07979 3.06255 1.66989 4.78052 0.83733 6.79051C0.00476611 8.80049 -0.213071 11.0122 0.211367 13.146C0.635804 15.2798 1.68345 17.2398 3.22183 18.7782C4.76021 20.3166 6.72022 21.3642 8.85401 21.7887C10.9878 22.2131 13.1995 21.9953 15.2095 21.1627C17.2195 20.3301 18.9375 18.9202 20.1462 17.1113C21.3549 15.3024 22 13.1756 22 11C22 8.08264 20.8411 5.28475 18.7782 3.22185C16.7153 1.15895 13.9174 2.47955e-05 11 2.47955e-05ZM16.6948 13.3627C16.685 13.8378 16.5947 14.3077 16.4278 14.7526C16.2807 15.1331 16.0556 15.4787 15.7672 15.7672C15.4787 16.0557 15.1331 16.2807 14.7526 16.4278C14.3077 16.5947 13.8378 16.685 13.3627 16.6948C12.7508 16.7223 12.556 16.7292 11 16.7292C9.44396 16.7292 9.24917 16.7223 8.6373 16.6948C8.16224 16.685 7.69229 16.5947 7.2474 16.4278C6.86689 16.2807 6.52133 16.0557 6.23285 15.7672C5.94437 15.4787 5.71935 15.1331 5.57219 14.7526C5.40531 14.3077 5.31504 13.8378 5.30521 13.3627C5.27771 12.7509 5.27084 12.5561 5.27084 11C5.27084 9.44398 5.27771 9.24919 5.30521 8.63732C5.31504 8.16226 5.40531 7.69231 5.57219 7.24742C5.71935 6.86691 5.94437 6.52135 6.23285 6.23287C6.52133 5.94439 6.86689 5.71936 7.2474 5.57221C7.69229 5.40533 8.16224 5.31506 8.6373 5.30523C9.24917 5.27773 9.44396 5.27086 11 5.27086C12.556 5.27086 12.7508 5.27773 13.3627 5.30523C13.8378 5.31506 14.3077 5.40533 14.7526 5.57221C15.1331 5.71936 15.4787 5.94439 15.7672 6.23287C16.0556 6.52135 16.2807 6.86691 16.4278 7.24742C16.5947 7.69231 16.685 8.16226 16.6948 8.63732C16.7223 9.24919 16.7292 9.44398 16.7292 11C16.7292 12.5561 16.7223 12.7509 16.6948 13.3627Z" fill="#C56D1C"/>
</g>
<defs>
<clipPath id="clip0_249_723">
<rect width="22" height="22" fill="white"/>
</clipPath>
</defs>
</svg>
