<svg width="15" height="15" viewBox="0 0 15 15" fill="none" xmlns="http://www.w3.org/2000/svg">
<g clip-path="url(#clip0_71_198)">
<path d="M0.427019 9.96923C-0.142084 8.37226 -0.142084 6.62774 0.427019 5.03077C0.435973 4.99722 0.447547 4.96443 0.461634 4.93269C0.991648 3.49256 1.95067 2.24967 3.20928 1.37174C4.4679 0.4938 5.96553 0.0230713 7.5001 0.0230713C9.03466 0.0230713 10.5323 0.4938 11.7909 1.37174C13.0495 2.24967 14.0085 3.49256 14.5386 4.93269C14.5526 4.96443 14.5642 4.99722 14.5732 5.03077C15.1423 6.62774 15.1423 8.37226 14.5732 9.96923C14.5642 10.0028 14.5526 10.0356 14.5386 10.0673C14.0085 11.5074 13.0495 12.7503 11.7909 13.6283C10.5323 14.5062 9.03466 14.9769 7.5001 14.9769C5.96553 14.9769 4.4679 14.5062 3.20928 13.6283C1.95067 12.7503 0.991648 11.5074 0.461634 10.0673C0.447547 10.0356 0.435973 10.0028 0.427019 9.96923ZM9.36933 10.3846H5.6251C5.99402 11.5945 6.63545 12.7037 7.5001 13.6269C8.35923 12.7006 8.99819 11.5923 9.36933 10.3846ZM9.65779 9.23077C9.85776 8.08559 9.85776 6.91441 9.65779 5.76923H5.3424C5.24265 6.34076 5.19247 6.91983 5.1924 7.5C5.19247 8.08017 5.24265 8.65924 5.3424 9.23077H9.65779ZM13.8462 7.5C13.8464 6.91421 13.7629 6.3314 13.5982 5.76923H10.8289C11.0059 6.9163 11.0059 8.08371 10.8289 9.23077H13.5982C13.7629 8.66861 13.8464 8.08579 13.8462 7.5ZM5.63087 4.61539H9.3751C9.00618 3.40549 8.36474 2.2963 7.5001 1.37308C6.64096 2.29941 6.002 3.40772 5.63087 4.61539ZM4.17125 5.76923H1.40202C1.07125 6.89937 1.07125 8.10063 1.40202 9.23077H4.17125C4.08382 8.65798 4.03946 8.07943 4.03856 7.5C4.03946 6.92057 4.08382 6.34203 4.17125 5.76923ZM1.86356 4.61539H4.4251C4.74763 3.43078 5.28971 2.31725 6.02317 1.33269C5.13319 1.54879 4.3001 1.95378 3.58041 2.52018C2.86071 3.08657 2.27125 3.80113 1.85202 4.61539H1.86356ZM8.97702 1.33269C9.71048 2.31725 10.2526 3.43078 10.5751 4.61539H13.1482C12.7289 3.80113 12.1395 3.08657 11.4198 2.52018C10.7001 1.95378 9.867 1.54879 8.97702 1.33269ZM13.1482 10.3846H10.5751C10.2526 11.5692 9.71048 12.6827 8.97702 13.6673C9.867 13.4512 10.7001 13.0462 11.4198 12.4798C12.1395 11.9134 12.7289 11.1989 13.1482 10.3846ZM6.02317 13.6673C5.28971 12.6827 4.74763 11.5692 4.4251 10.3846H1.85202C2.27125 11.1989 2.86071 11.9134 3.58041 12.4798C4.3001 13.0462 5.13319 13.4512 6.02317 13.6673Z" fill="#C56D1C"/>
</g>
<defs>
<clipPath id="clip0_71_198">
<rect width="15" height="15" fill="white" transform="matrix(-1 0 0 1 15 0)"/>
</clipPath>
</defs>
</svg>
