<svg width="147" height="184" viewBox="0 0 147 184" fill="none" xmlns="http://www.w3.org/2000/svg">
<g clip-path="url(#clip0_28_1774)">
<path d="M64.3762 159.307H65.7341V160.579L65.3734 160.939H63.9306V159.667L64.1215 159.392L64.3762 159.307Z" fill="#EFC763"/>
<path d="M96.6916 169.121H98.1344V170.392L97.9434 170.668L97.6676 170.753H96.3945L96.3096 170.668V169.502L96.6916 169.121Z" fill="#EFC762"/>
<path d="M94.697 169.121H96.1399V170.392L95.6943 170.753H94.3363V169.481L94.697 169.121Z" fill="#EFC762"/>
<path d="M66.4555 159.307H67.8135V160.579L67.4528 160.939H65.9887V159.773L66.4555 159.307Z" fill="#EFC763"/>
<path d="M106.791 169.121H108.234V170.477L107.874 170.753H106.516V169.396L106.791 169.121Z" fill="#EEC660"/>
<path d="M108.68 169.121H110.123V170.477L109.762 170.753H108.425V169.396L108.68 169.121Z" fill="#EEC65F"/>
<path d="M46.0436 169.121H47.4864V170.477L47.1257 170.753H45.7678V169.396L46.0436 169.121Z" fill="#EEC65F"/>
<path d="M91.6204 161.109L92.066 161.193V163.271H91.875L91.9599 167.149H95.3973L95.4821 162.19L96.8401 161.744L97.2008 161.829L97.2857 161.914V163.8L97.2008 163.885L97.1159 167.213L98.8346 167.128L99.3863 166.492L100.384 164.691L101.19 163.779L101.742 163.334L102.548 162.974H103.63L104.542 163.334L105.094 163.779L105.54 164.5L105.815 165.411L105.9 166.047V166.853L105.815 167.213H108.892V162.253L109.698 161.893L110.25 161.702L110.696 161.787V163.864H110.505V168.548L105.179 168.633L104.733 168.909H103.736L102.378 168.358L101.105 167.637L100.744 167.361L100.193 167.997L99.2802 168.548H90.708L90.5171 168.464L89.0742 168.379L87.9921 168.018L87.1858 167.467L86.6341 166.831L86.2734 166.026V164.754L86.5492 163.949L87.1858 163.143L88.0982 162.508L89.0954 162.147L89.541 162.062H90.2624V161.617L91.0687 161.257L91.6204 161.109ZM90.0078 163.546L88.8408 163.906L88.2043 164.458L87.9284 165.009V165.814L88.2891 166.365L88.7347 166.725L89.541 167.001H90.2624V163.567H90.0078V163.546ZM102.824 164.436L102.102 164.987L101.551 165.793L101.635 166.153L102.272 166.704L103.545 167.34L104.097 167.531L104.288 167.086V165.814L104.012 165.009L103.566 164.564L103.375 164.479H102.824V164.436Z" fill="#EEC65F"/>
<path d="M24.8466 161.745L25.2073 161.829L25.2921 161.914V163.8L25.2073 163.885L25.1224 167.213H28.199V162.253L29.2812 161.808L29.9177 161.723L30.0026 161.808V163.885H29.8116V167.234H32.2517V163.906L33.1641 163.546L33.8855 163.355L34.0765 163.546V165.539L33.9916 165.623L33.9068 167.255L35.0738 167.171V163.122L36.7076 162.571L36.8985 162.656V164.733L36.8137 164.818V166.895L37.4502 167.171H37.726L37.8109 162.211L39.084 161.766L39.5296 161.85L39.6145 161.935V163.822L39.5296 163.906L39.4447 167.51L39.1689 168.061L38.7233 168.421L38.3626 168.612H37.0895L36.2832 168.336H36.0074L35.3708 168.612H14.5557L14.1101 168.252L13.7494 167.34L13.6646 166.98V165.899L13.9404 164.987L14.4921 164.182L15.2984 163.546L16.3805 163.101H16.5714L17.1231 164.733L16.041 165.284L15.5954 166.005V167.001L15.6803 167.192H23.4462L23.531 162.232L24.8466 161.745Z" fill="#EEC65F"/>
<path d="M73.3091 159.116H73.5V160.833L73.0544 161.384L71.6116 162.296L71.0599 162.656L72.5876 162.847L73.5849 163.207L74.1366 163.652L74.5822 164.373L74.858 165.178L75.049 166.535V168.612H61.7451V169.333L61.4693 170.414L60.9176 171.134L60.0052 171.685L59.7294 171.77H58.5624L57.65 171.41L57.0983 170.859L57.2893 170.498L58.2865 169.778L58.7321 170.138L59.2838 170.223L59.7294 169.947L59.9203 169.672L60.0052 168.146L59.8143 168.23H59.008L58.0107 168.04L57.2893 167.595L56.6527 166.959L56.292 166.047V164.903L56.6527 163.991L57.459 163.186L58.2653 162.825H59.793L60.2386 163.016L61.0449 162.825L61.7663 162.741L61.8512 162.931V164.818L61.7663 164.903L61.7451 167.234H64.8218V162.274L65.9039 161.829L66.5404 161.745L66.6253 161.829V163.906H66.4343V167.234L73.203 167.149L73.1181 165.708L72.7574 164.712L72.2057 164.436L71.654 164.352H69.1291L68.4076 164.267V162.274L69.9354 161.278L72.5452 159.561L73.3091 159.116ZM59.0504 164.267L58.4138 164.542L58.0531 164.987L57.9683 165.623L58.2441 166.259L58.6897 166.62L58.9655 166.704H59.8779L60.0689 166.62V164.818L59.5172 164.373L59.0504 164.267Z" fill="#EEC65F"/>
<path d="M121.411 157.505L121.856 157.59L121.941 157.866L122.132 159.943L121.687 159.858L121.772 167.171L129.092 167.255L129.007 165.984L128.731 164.987L128.37 164.542L127.458 164.352H124.933L124.212 164.267V162.359L125.209 161.639L126.928 160.558L129.092 159.116H129.283V160.918L128.837 161.363L127.034 162.529H126.843V162.72H127.84L128.752 162.91L129.665 163.355L130.301 164.076L130.662 164.987L130.853 165.984V168.591H120.117V158.035L120.923 157.675L121.411 157.505Z" fill="#EEC65F"/>
<path d="M42.1607 157.505H42.6063L42.6912 157.59L42.8821 159.116V159.922L42.5214 159.837V167.234H46.4043V162.274L47.2106 161.914L47.7623 161.723L48.2079 161.808V163.885H48.0169V168.57H40.8876V157.929L42.1607 157.505Z" fill="#EEC65F"/>
<path d="M113.03 162.72H116.106L117.104 163.08L117.825 163.631L118.271 164.352L118.546 165.157L118.737 166.514V168.591H112.245L111.693 168.23L111.608 168.04V167.234L116.934 167.149L116.849 165.793L116.573 164.881L116.127 164.436L115.682 164.352H113.603L112.881 164.267L112.966 163.186L113.03 162.72Z" fill="#EEC65F"/>
<path d="M77.3617 162.72H80.4384L81.3507 162.995L82.157 163.631L82.6026 164.352L82.8785 165.157L83.0694 166.323V168.57H76.5766L76.1311 168.294L75.9401 168.018V167.234H81.3507L81.0749 165.348L80.7142 164.627L80.4384 164.436L79.9928 164.352H77.9134L77.192 164.267L77.2768 163.186L77.3617 162.72Z" fill="#EEC65F"/>
<path d="M133.229 157.505L133.675 157.59L133.866 159.116V159.922L133.505 159.837V167.404L133.229 167.955L132.678 168.4L132.232 168.591L131.871 168.506V157.95L133.229 157.505Z" fill="#EEC65E"/>
<path d="M54.9765 162.72H55.4221L55.507 162.91V164.797L55.4221 164.881L55.3372 169.396L55.0614 170.392L54.5097 171.113L53.8731 171.558L53.3215 171.749H52.1969L51.2845 171.389L50.7328 170.837L50.9238 170.477L51.9211 169.757L52.3667 170.117L52.9183 170.202L53.3639 169.926L53.5549 169.651L53.6397 169.205L53.7246 163.165L54.9765 162.72Z" fill="#EEC65F"/>
<path d="M132.147 154.432H133.06L133.42 154.792L133.505 155.343L133.314 155.704H133.59L134.312 155.513L134.227 156.318L133.866 156.764L130.895 157.76L130.98 156.848L131.256 156.403L131.065 155.958L131.15 155.237L131.596 154.686L132.147 154.432ZM132.423 155.428L132.147 155.704L132.338 156.064L133.06 155.979L132.869 155.895L132.784 155.449H132.423V155.428Z" fill="#EFC660"/>
<path d="M18.3326 161.024H19.6905V162.38L19.4147 162.656H17.887V161.49L18.3326 161.024Z" fill="#EFC762"/>
<path d="M20.9637 161.024H22.3216V162.296L21.9609 162.656H20.5181V161.49L20.9637 161.024Z" fill="#EFC762"/>
<path d="M28.6234 159.307H29.9814V160.664L29.7056 160.939H28.2627V159.667L28.6234 159.307Z" fill="#EFC661"/>
<path d="M90.3685 158.947H91.8962V160.218L91.6204 160.494L90.1776 160.579V159.137L90.3685 158.947Z" fill="#EEC65E"/>
<path d="M88.1194 158.947H89.6471V160.218L89.3713 160.494L87.9284 160.579V159.137L88.1194 158.947Z" fill="#EEC65E"/>
<path d="M119.522 174.441L119.713 174.801V175.712H119.628L119.544 181.562L89.4774 181.647L89.2015 181.838H88.565L87.2919 181.287L86.4856 180.651L86.04 180.1L85.8491 180.015H85.2974L84.8518 180.46L84.7669 183.894L84.682 183.979H84.0455V180.376L84.3213 179.824L84.873 179.379L85.1488 179.295H86.4219L86.9736 178.574L87.5253 178.214L87.8011 178.129H88.6074L89.1591 178.404L89.7108 179.04L89.9017 179.676V180.948H105.518V174.716L106.07 174.526H106.431L106.516 175.691H106.24L106.325 180.821L109.295 180.905L108.935 180.185L108.022 179.549L107.47 179.189L107.555 178.553L108.637 177.917L109.274 177.726H110.547L111.459 178.086L111.905 178.447L111.99 178.998L110.993 180.164L110.547 180.799H113.984L114.069 177.557L114.621 177.281H114.982V178.362L114.897 178.447L114.812 180.884H116.531V174.653L117.082 174.462H117.443L117.528 175.628H117.443L117.358 180.863H118.801V174.737L119.522 174.441ZM109.316 178.426L108.595 178.701L108.319 178.892V179.083L109.232 179.718L109.783 180.439L110.144 180.248L110.865 179.337L111.141 178.977L111.056 178.701L110.42 178.426H109.316ZM87.8436 178.871L87.207 179.422L86.9312 179.867L87.1221 180.227L87.8436 180.778L88.6499 181.139H88.9257L89.0106 180.948V179.591L88.6499 178.955L88.4589 178.871H87.8436Z" fill="#EFC661"/>
<path d="M53.8944 177.345H54.2551V178.426L54.1702 178.51L54.0853 181.584H27.3715L27.0108 181.223V180.948H30.6179L30.427 179.591L30.1511 178.955L29.7056 178.765L27.902 178.68V178.129L27.9869 177.938H29.9814L30.7028 178.298L31.1484 178.849L31.4242 179.846V180.927H48.5686L48.2079 180.206L47.2955 179.57L46.8499 179.295V178.659L47.7623 178.023L48.5686 177.747H49.8417L50.9238 178.192L51.2845 178.553V178.998L50.0114 180.524L49.8204 180.799L53.3427 180.884V177.557L53.8944 177.345ZM48.6747 178.426L47.9532 178.68L47.6774 178.871V179.061L48.4837 179.613L49.0354 180.248L49.1202 180.439L49.481 180.248L50.2024 179.337L50.4782 178.977L50.3933 178.701L49.7568 178.426H48.6747Z" fill="#EFC661"/>
<path d="M62.2119 177.599H62.5726V178.68L62.4878 178.765L62.4029 180.927H78.1044L77.8285 180.376L77.7437 179.74L78.0195 178.934L78.5712 178.298L79.2926 178.023H80.0989L80.7354 178.298L81.2871 178.743L81.563 179.295V179.74H80.7567L80.4808 179.104L80.0352 178.828H79.3987L78.847 179.189L78.6561 179.909L78.9319 180.545L79.3775 180.821L81.8176 180.905L81.7327 181.457L81.5417 181.541H62.318L62.127 182.177L61.3207 183.089L60.4084 183.534L60.0477 183.618H58.6897L57.6924 183.258L56.8861 182.538L56.5254 181.817L56.4406 181.457V180.588L56.8013 179.591L57.2468 178.955L57.6924 179.146L57.8834 179.507L57.5227 180.058L57.3317 180.503V181.499L57.6924 182.22L58.2441 182.665L58.6897 182.855H60.0477L60.7691 182.495L61.4056 181.774L61.5966 181.139L61.6815 177.811L62.2119 177.599Z" fill="#EFC661"/>
<path d="M59.3262 177.959H60.1325V178.595L60.0476 178.68H59.2413V178.044L59.3262 177.959Z" fill="#F0C763"/>
<path d="M114.833 175.712H115.639V176.348L115.555 176.433H114.748V175.797L114.833 175.712Z" fill="#F0C763"/>
<path d="M113.475 175.712H114.281V176.348L114.197 176.433H113.39V175.797L113.475 175.712Z" fill="#F0C763"/>
<path d="M53.0032 182.198H53.7246V182.919L53.0881 183.004L52.8971 182.919V182.283L53.0032 182.198Z" fill="#EEC65F"/>
<path d="M68.5349 40.3778H75.5794L75.4945 40.8229H72.6937L72.7785 50.3822L73.5848 49.6615L75.2186 48.5805L77.6587 47.1392L78.8257 46.3338L79.7381 45.5284L80.2898 44.7229L80.4808 44.1718V43.0061L80.1201 42.2006L79.7593 41.7555L78.6772 41.1197L78.7621 40.399H79.4835L80.9263 40.7593L81.8387 41.2044L82.4753 41.7555L82.9209 42.4762L83.1118 43.0273V44.4686L82.836 45.274L82.1994 46.0795L81.478 46.7153L79.9503 47.5208L78.2316 48.1566L79.3986 48.517L80.2049 49.1528L80.7566 50.0642L82.1146 54.3034L82.836 56.0202L83.3877 56.9317L83.9393 57.292H84.6608H85.0215L84.8305 57.7371L84.2788 58.1822L83.4725 58.4578H82.6662L81.7539 58.1822L80.8415 57.3768L80.2898 56.4654L79.5684 54.6637L78.4862 51.0604L78.0407 49.9795L77.489 49.2588L76.9373 48.9833H76.131L75.0489 49.4284L74.0516 50.0642L72.9695 51.0604L72.7785 51.2512V55.5327L72.9695 56.8893L73.2453 57.6099L73.6061 57.9703L74.4123 58.161V58.4366H68.5349V58.161L69.2563 57.9703L69.7019 57.5251L69.9777 56.7197L70.0626 56.2746V42.561L69.7868 41.48L69.4261 40.9289L68.7895 40.6534L68.5137 40.5686V40.3778H68.5349Z" fill="#EEC65F"/>
<path d="M63.0182 29.0169H71.7813L73.309 29.2925L74.8367 29.8436L75.834 30.4794L76.7464 31.2849L77.5527 32.5566L78.1043 33.8284L78.465 35.3545L78.5499 35.9903V39.424L78.2741 41.4164L77.8285 42.773L77.192 44.0447L76.3857 45.0409L75.4733 45.7616L74.0304 46.4822L73.1181 46.7578L73.0332 46.673V45.9523L73.8395 45.3164L74.6458 44.2355L75.2823 42.8789L75.7279 41.3528L75.9189 40.1871L76.0037 38.661V37.2197L75.8128 35.418L75.5369 34.0615L74.9853 32.5354L74.3487 31.4544L73.7122 30.7338L72.7998 30.0979L71.8025 29.7376L71.3569 29.6528L67.2618 29.462V46.5034H69.7868V47.0545H63.0182V46.7789L63.8245 46.5882L64.27 46.0371L64.5459 45.2317L64.6308 44.6806V31.3273L64.3549 30.0555L63.9942 29.5044L63.4425 29.2289L62.9969 29.1441V29.0169H63.0182Z" fill="#EEC65F"/>
<path d="M21.2182 68.229C21.0909 68.0594 22.0457 68.1866 22.3216 68.1442C24.9951 68.123 31.1272 68.0594 32.2517 68.3562C34.3523 68.9496 35.3072 70.5817 34.5433 72.6801C34.0128 74.0154 32.7822 74.7997 31.5091 75.4567C31.212 75.6051 30.8938 75.7323 31.4454 75.8595C33.8431 76.3046 35.2011 78.4453 34.9677 80.8192C34.9252 82.4725 33.8643 84.0198 32.3154 84.6133C30.9786 85.1644 24.0827 84.8464 21.2819 84.91C20.7939 84.8676 22.0457 84.3801 22.0882 84.2106C22.3428 83.9138 22.4701 83.4263 22.5338 82.96C22.7035 80.9676 22.6186 75.7535 22.5974 71.7687C22.5762 70.9632 22.555 70.3062 22.5125 69.9247C22.4913 69.6279 22.3852 69.3736 22.2155 69.0768C22.0457 68.6953 21.5153 68.4833 21.2182 68.229ZM25.2073 68.5893C25.1436 68.6105 25.1224 68.6317 25.1224 68.6741C25.1224 68.9073 25.1224 69.6703 25.1224 70.6665C25.1224 72.4469 25.1224 77.2584 25.1224 78.1698C25.1436 78.3605 25.5043 77.979 25.6104 77.9366C27.6898 76.241 30.915 75.0328 32.1244 72.5741C32.7185 71.26 32.379 69.7551 31.0635 69.0556C29.7692 68.3774 26.8411 68.5681 25.2073 68.5893ZM28.6446 76.7497C27.4988 76.9828 26.4379 77.7035 25.5255 78.5089C25.3558 78.6573 25.1648 78.8057 25.1436 79.0176C25.1224 80.0774 25.1436 83.5111 25.1436 84.2954C25.1436 84.4861 25.2497 84.4861 25.4407 84.4861C26.1197 84.4861 28.0505 84.4861 28.9417 84.4861C29.5146 84.5285 30.0026 84.4013 30.533 84.1894C32.5912 83.2144 33.1429 80.3741 32.2305 78.4241C31.5303 77.0464 30.1936 76.5589 28.7083 76.7497H28.6446Z" fill="#EEC65F"/>
<path d="M57.6288 68.1442C60.0689 67.9958 62.6575 68.6105 64.7157 69.9458C64.9066 70.0518 65.0764 70.2426 65.1188 70.4333C65.1612 70.5605 65.1612 70.6877 65.0976 70.8361C64.9703 71.1752 64.5884 72.1714 64.4398 72.5317C64.355 72.7437 64.2489 72.6377 64.0367 72.4045C63.6123 71.9382 63.1879 71.3236 62.7636 70.8361C61.8512 69.7975 60.4084 68.9496 59.0292 68.7165C58.5836 68.6529 58.0744 68.6953 57.65 68.6741C57.4378 68.6741 57.3529 68.6953 57.1195 68.7377C56.7164 68.8649 56.1435 68.9284 55.7403 69.1404C54.8492 69.5219 54.1278 70.2002 53.8307 71.1328C53.4488 72.9132 55.4008 73.7611 56.8225 74.2274C59.5596 75.1388 63.3153 74.9904 64.7793 77.8942C66.3282 81.5187 63.8457 84.5497 60.175 84.8888C58.8806 84.9948 57.2256 84.9312 55.8889 84.6133C54.7855 84.2953 53.6185 83.829 52.6637 83.172C52.3879 82.9812 52.1332 82.7904 51.9211 82.5785C51.7513 82.4089 51.624 82.3241 51.624 82.1122C51.624 81.4763 51.624 78.8904 51.624 78.3605C51.6664 78.0638 51.9635 78.3181 52.0059 78.5089C52.5364 80.1622 53.4276 81.6883 54.6794 82.7692C55.5282 83.5111 56.5679 84.041 57.7561 84.2953C58.2865 84.4013 58.9231 84.3377 59.496 84.3589C60.2174 84.3589 61.1722 84.0622 61.8512 83.7866C62.3817 83.4899 62.8697 83.0872 63.1879 82.5785C64.3337 80.7133 63.1031 78.6361 61.2571 77.8942C59.4535 77.1524 57.0983 76.8768 55.1038 76.2198C54.5309 76.0502 54.0641 75.7323 53.4912 75.4567C53.2366 75.3296 53.1517 75.2872 52.9608 75.1176C52.112 74.4605 51.4967 73.4643 51.6452 72.3833C51.9635 69.6703 55.125 68.3986 57.5439 68.1442H57.6288Z" fill="#EEC660"/>
<path d="M72.7149 68.1442C74.6034 68.0806 76.7252 68.3562 78.3802 69.1616C79.0167 69.5007 79.9716 69.8399 80.2686 70.4757C80.2898 70.6241 80.2474 70.7513 80.205 70.8997C80.0777 71.26 79.8443 71.8535 79.7169 72.2138C79.6109 72.4893 79.4411 72.6801 79.1653 72.3834C77.8497 70.6029 76.0674 68.7377 73.7334 68.6741C72.3754 68.5681 70.9538 68.9285 69.8717 69.7551C68.5137 70.9209 68.6622 72.6165 70.2324 73.5067C72.8422 74.8421 75.9825 74.6725 78.4651 76.241C80.7354 77.5975 80.9688 81.0312 79.3775 82.9812C76.3857 86.0546 70.3597 85.2492 67.2194 82.7269C66.986 82.5361 66.8375 82.3877 66.8375 82.1122C66.8375 81.4127 66.8375 79.1448 66.8375 78.4453C66.8375 78.2758 66.9223 78.1698 67.0497 78.3606C67.1345 78.4665 67.2406 78.6785 67.2831 78.8481C67.7711 80.3317 68.6198 81.7095 69.7868 82.7481C70.7841 83.6595 72.0784 84.253 73.4576 84.3589C74.4973 84.4013 75.4733 84.3801 76.4281 83.9774C77.8497 83.5535 78.8258 82.5149 78.7621 81.0312C78.7409 79.0388 76.8949 77.873 75.155 77.4491C73.1817 76.9404 70.7628 76.5589 68.9593 75.6051C66.9011 74.4817 66.0948 72.4681 67.6438 70.4757C68.832 68.9708 70.8689 68.3562 72.7361 68.123L72.7149 68.1442Z" fill="#EEC65F"/>
<path d="M87.3343 68.3138C87.6101 68.123 87.9708 68.1654 88.3103 68.1442C89.053 68.1654 89.7107 68.017 90.0078 68.7377C91.7053 73.0828 93.3603 78.1062 94.9941 82.4513C95.2487 83.0448 95.4397 83.7655 95.864 84.2106C96.5854 84.8041 97.3281 84.8888 95.8852 84.8888C94.6546 84.8676 92.8723 84.9524 92.0447 84.8464C91.875 84.7829 92.2357 84.6133 92.3206 84.5497C92.6601 84.3589 92.8723 84.1046 92.7449 83.7019C92.5328 82.7057 91.7689 80.5437 91.3445 79.5263C91.0475 78.7209 90.4958 79.8231 90.1139 80.035C88.6074 81.2644 86.7614 80.1198 85.0852 79.929C84.2576 79.8231 83.4514 80.1198 83.1755 80.9676C82.9633 81.5399 82.6875 82.1334 82.7087 82.7481C82.7724 83.6595 83.1967 84.3801 84.0667 84.6557C84.4698 84.8253 84.003 84.8464 83.8121 84.8676C83.0906 84.8676 81.6478 84.8676 80.8627 84.8676C80.7142 84.8676 80.2686 84.8676 80.3747 84.7193C80.4596 84.6133 80.8627 84.4013 81.1386 84.2106C81.3932 84.0198 81.5205 83.7443 81.6266 83.4687C83.4089 78.8481 85.0852 73.6127 86.9099 68.9921C87.016 68.7377 87.1009 68.441 87.2919 68.2926L87.3343 68.3138ZM87.504 68.9073C87.3767 68.9709 87.2706 69.2676 87.207 69.4372C86.2522 72.0866 84.9791 75.6475 84.0667 78.2758C84.0242 78.4241 83.8969 78.7421 84.003 78.8269C84.1516 78.8481 84.3213 78.7209 84.4486 78.6785C85.9763 77.8095 87.6101 78.6573 89.1378 78.954C89.9654 79.166 91.2597 78.7633 90.7929 77.7035C89.9866 75.3932 88.6498 71.6415 87.8011 69.3524C87.7587 69.1616 87.6526 68.8649 87.504 68.9073Z" fill="#EEC65F"/>
<path d="M42.0758 68.1442H44.5159C46.2346 72.5953 48.1442 78.4453 49.7568 82.9388C49.8841 83.278 50.266 84.2318 50.5631 84.4649L51.4755 84.7405V84.9312H46.5104V84.7405L47.4228 84.5497L47.5077 83.7443L45.8739 79.1448L45.789 78.954C45.1312 80.141 44.2188 80.7981 42.8184 80.6709C42.1395 80.5013 40.7815 80.1622 40.1025 79.9502H38.9355C38.1292 80.2046 37.8534 81.6247 37.5775 82.303C37.5775 82.8329 37.6624 83.3628 37.8321 83.8714C37.8958 84.0834 38.0231 84.253 38.1929 84.4013L38.3838 84.5497L39.1901 84.7405L39.275 84.9312H35.1162V84.7405L36.1135 84.3801C36.9622 82.8541 37.7473 80.0562 38.3626 78.4241C39.3174 75.8807 41.0149 70.6029 42.0758 68.1442ZM42.2668 68.8649C41.2483 71.5567 39.7418 76.0078 38.7445 78.6997L38.8294 78.8905C39.1052 78.6997 39.763 78.2334 40.1025 78.1698H41.4605L43.0943 78.6149L44.0915 78.8905H44.8129L45.5344 78.5301L45.6192 78.085C44.7705 75.6051 43.2852 71.3236 42.3728 68.8861H42.2668V68.8649Z" fill="#EEC65F"/>
<path d="M97.4978 68.1866C97.7312 68.0594 100.171 68.1866 100.893 68.1442C101.062 68.1442 101.084 68.1442 101.232 68.2714C104.754 71.3872 108.086 75.4779 110.314 79.3991C110.292 78.2334 110.42 70.2638 110.165 69.5431C109.932 69.0344 109.72 68.5681 109.125 68.4197C109.041 68.3774 108.659 68.229 108.871 68.1442C109.316 68.1442 111.947 68.1442 112.329 68.1442C112.52 68.2926 112.266 68.4833 112.054 68.4833C109.847 68.4621 111.311 83.4263 110.887 84.8464C110.823 84.9524 110.674 84.8888 110.462 84.91C110.25 84.91 110.123 84.9312 110.038 84.804C108.192 78.954 104.182 74.0578 99.7894 69.8823C99.6833 69.7975 99.5984 69.6703 99.5772 69.7763C99.6197 70.3062 99.5984 71.7051 99.556 73.4219C99.5136 77.6187 99.2589 83.6807 100.235 84.4649C100.341 84.5497 101.317 84.6557 101.02 84.91C100.617 84.91 97.8585 84.91 97.5403 84.91C97.4554 84.8676 97.4978 84.7616 97.6039 84.6981C97.7737 84.6133 98.1556 84.5285 98.2829 84.4437C98.6648 84.041 98.877 83.3415 98.9195 82.7904C98.7709 81.4551 99.365 69.7551 98.4527 68.7377C98.2405 68.4621 97.5403 68.6105 97.4978 68.1866Z" fill="#EEC660"/>
<path d="M113.645 68.1442H125.824L126.821 71.6627V71.8535H126.546L125.994 70.8573L125.082 69.9459L123.915 69.2252L122.641 68.7801C122.281 68.6741 121.305 68.6953 120.923 68.6953C120.944 69.5219 120.859 82.6421 121.008 83.0236L121.283 84.0198L121.644 84.4649L122.45 84.7405V84.9312H116.955V84.7405L117.761 84.4649C117.952 84.253 118.228 83.8291 118.313 83.5535C118.61 83.1084 118.546 69.4372 118.589 68.5893L116.785 68.7801L115.512 69.2252C114.472 69.7763 113.348 70.7301 112.902 71.8323H112.669C112.839 70.9421 113.39 69.0344 113.645 68.1442Z" fill="#EEC65F"/>
<path d="M132.699 38.661H132.975L133.42 39.5724V40.0175L132.508 41.2893L131.341 43.0061L131.256 43.0909L135.224 43.0061L135.776 43.8116L135.86 44.2567L133.505 45.5284L131.426 46.6942L130.874 46.8849L130.429 46.0795V45.7828L132.147 44.8714L133.314 44.2355H133.505V44.0447L133.06 44.1295H130.174L129.813 43.6844L129.898 43.1333L131.532 40.6958L130.174 41.4165L128.54 42.3279L128.264 42.0523L127.904 41.4165V41.2257L130.259 39.954L132.338 38.7882L132.699 38.661Z" fill="#EEC660"/>
<path d="M115.364 18.9278L115.809 19.2033L117.082 20.2843L117.528 20.7294L117.889 21.1745L118.249 22.1707V22.8914L117.973 23.8028L117.422 24.5234L116.785 25.0745L115.873 25.4348H114.876L113.963 25.0745L113.412 24.7142L112.138 23.6332L111.778 23.3577L111.969 22.9973L113.242 21.4713L114.239 20.3055L115.045 19.3093L115.364 18.9278ZM115.724 20.5386L114.727 21.7044L113.921 22.7006L113.475 23.3365L114.281 24.0571L114.642 24.2479H115.555L116.191 23.8876L116.828 23.1669L117.104 22.3615L116.913 21.556L116.467 21.1109L115.83 20.5598H115.724V20.5386Z" fill="#EEC660"/>
<path d="M79.1653 5.04459H79.9716L80.6081 5.12937L82.2419 10.725V10.9158H81.1598L80.7991 10.6403L80.6293 9.53808L78.4651 9.45329L78.0195 10.4495L77.8285 10.5343H77.0222L76.5767 10.4495L77.383 8.73264L78.8258 5.85002L79.1653 5.04459ZM79.717 6.37992L78.9107 8.18155V8.4571L79.1016 8.54188L80.3747 8.62666L80.1838 7.54568L79.9079 6.4647L79.717 6.37992Z" fill="#EEC660"/>
<path d="M104.988 12.4207L105.433 12.5055L106.24 12.9506L106.155 14.2223L105.603 18.5462L105.518 18.9914L105.073 18.8006L104.436 18.4403L104.351 17.8892L104.542 16.9778L103.991 16.787L102.824 16.1511L102.463 16.2359L101.826 16.787L101.19 16.7022L100.553 16.3419L100.638 16.0663L101.635 15.2609L102.633 14.3495L103.63 13.5441L104.627 12.6326L104.988 12.4207ZM104.903 13.862V14.0528L104.542 14.2435L103.375 15.4093L103.736 15.6848L104.542 16.1299H104.733L105.094 14.1375V13.862H104.903Z" fill="#EEC660"/>
<path d="M125.379 28.4871L125.824 28.9322L126.906 30.2039L127.713 31.2001V31.3909L126.991 31.942L126.546 31.4969L125.739 30.5854L125.548 30.3099L125.188 30.5007L124.636 30.9458L124.827 31.3909L125.548 32.3023L125.464 32.5778L125.018 32.9382L124.657 32.8534L123.851 31.8572H123.575L122.854 32.4083L122.939 32.7686L124.021 34.0403L124.106 34.4007L123.469 34.9518H123.278L122.281 33.68L121.199 32.4083L121.114 32.0479L122.281 31.0517L123.278 30.2463L124.445 29.2501L125.379 28.4871Z" fill="#EEC660"/>
<path d="M91.7265 7.46088H92.8935L93.8908 7.8212L94.6122 8.37229L94.888 8.73262L94.697 9.09295L94.2515 9.36849L93.8059 9.28371L93.2542 8.8386L92.8086 8.64784H92.1721L91.4507 9.00816L91.0051 9.72882L90.9202 10.0044V11.1701L91.2809 11.7212L91.6416 11.9968L92.0023 12.0815H92.7238L93.1693 11.9968L93.53 12.4419L93.6149 12.887L92.8086 13.2473H91.8962L90.9839 12.9718L90.1776 12.4207L89.8169 11.9756L89.541 11.4245L89.4561 11.0641V9.89838L89.8169 8.90218L90.1776 8.3511L90.8141 7.80001L91.7265 7.46088Z" fill="#EEC660"/>
<path d="M139.107 52.1838H139.298L139.659 53.3496L139.383 53.7947L137.94 55.1512L137.664 55.4268L140.274 55.7871L140.55 56.0627L140.826 56.9741V57.2496L138.576 56.8045L136.858 56.4442L135.139 56.9953L134.778 56.9105L134.503 55.9991V55.7235L136.497 55.0877L137.579 53.9219L138.385 53.0105L139.107 52.1838Z" fill="#EEC660"/>
<path d="M18.6084 32.6202L19.4147 33.1713L20.8576 34.2523L22.4914 35.418L23.1279 35.8632L22.937 36.3083L22.4914 36.7534L18.3326 36.9441L18.7782 37.3892L20.0513 38.3007L20.8576 38.9365L20.7727 39.2969L20.3271 39.9327L19.9664 39.742L16.72 37.3892L15.7227 36.6686L15.9137 36.2235L16.4654 35.7784L18.7145 35.6936H20.709V35.5028L20.2635 35.3121L19.0964 34.4007L18.0143 33.5952L18.2053 33.1501L18.6084 32.6202Z" fill="#EEC660"/>
<path d="M46.956 10.4495H47.2318L48.3988 12.887L49.481 15.2397L49.3961 15.6001L48.5898 15.8756L46.5104 14.8794L44.7069 13.968L45.9799 16.5751L46.1709 17.1261L45.2585 17.5713H45.0676L43.7096 14.7734L42.7123 12.6115V12.4207L43.3489 12.1452L43.9854 12.2299L47.5077 13.9468L46.7014 12.1452L46.1497 11.0642V10.8098L46.956 10.4495Z" fill="#EEC660"/>
<path d="M11.8398 45.0621H12.9219L13.7282 45.3377L14.5345 45.8888L15.0862 46.6094L15.362 47.3301V48.4958L14.9164 49.5768L14.2799 50.2975L13.4736 50.8486L13.1129 50.9333H11.8398L10.7577 50.4882L10.206 50.0431L9.65431 49.1317L9.46335 48.4111L9.54822 47.4149L9.90893 46.5034L10.5455 45.698L11.4579 45.1469L11.8398 45.0621ZM11.8398 46.3339L11.2881 46.6094L10.8425 47.1605L10.6516 47.5208V48.4323L11.0123 48.9833L11.7337 49.5344L12.2854 49.7252H13.1978L13.7494 49.3649L14.195 48.729L14.2799 47.8176L14.0041 47.2665L13.2826 46.6306L12.5612 46.3551H11.8398V46.3339Z" fill="#EEC660"/>
<path d="M58.8594 6.4859H59.305L59.496 7.03699L59.4111 7.4821L57.6924 7.92721H57.3317L57.6076 9.19895L59.0504 8.83863L59.4111 8.90221L59.6021 9.70765L58.0744 10.1528H57.8834L58.1592 11.149V11.4457L60.4084 10.8946L60.6842 11.7V11.8908L59.0504 12.3359L57.3317 12.781H57.1408L56.6952 11.149L55.804 7.65166V7.29134L58.8594 6.4859Z" fill="#EEC660"/>
<path d="M25.377 24.9686L25.7377 25.1593L26.735 26.1555L27.3715 26.8762L28.6446 28.1479L29.0054 27.9572L30.0875 26.8762L30.4482 27.0669L30.8938 27.618L28.6446 29.8648L28.2839 29.78L26.926 28.4235L26.2894 27.7028L24.5707 25.986L24.7617 25.6256L25.377 24.9686Z" fill="#EEC660"/>
<path d="M34.7767 17.2109L35.0526 17.2957L36.2196 19.0126L37.3017 20.5387L38.108 21.7044V21.8952L37.1956 22.5311L36.8349 22.3403L35.3921 20.2631L34.3099 18.737L33.8643 18.1012L34.0553 17.7408L34.7767 17.2109Z" fill="#EEC660"/>
<path d="M146.979 75.2236C147 74.5453 147 73.973 147 73.5279V73.422C147 73.104 147 72.8073 147 72.4893C147 71.8747 146.979 71.26 146.958 70.6453C146.936 70.3274 146.936 70.0306 146.915 69.7127C146.491 61.1072 144.581 52.7561 141.229 44.8289C140.995 44.2779 140.762 43.748 140.507 43.1969C140.147 42.3914 139.765 41.586 139.361 40.7806C137.919 37.8555 136.264 35.0365 134.439 32.3447C132.635 29.674 130.641 27.1093 128.498 24.693C127.904 24.0359 127.309 23.3789 126.694 22.743C126.291 22.3191 125.867 21.8952 125.463 21.4713C124.848 20.8566 124.212 20.2419 123.554 19.6272C120.753 17.0202 117.74 14.625 114.579 12.5055C113.348 11.6788 112.096 10.8946 110.823 10.1316C109.55 9.36851 108.255 8.69024 106.94 8.01198C105.349 7.20654 103.736 6.4435 102.102 5.76523C95.5882 3.00979 88.7771 1.22935 81.7963 0.44511C81.181 0.381523 80.5869 0.317936 79.9716 0.254349C77.8285 0.0847829 75.6643 0 73.5 0C73.1817 0 72.8847 0 72.5664 0C72.3754 0 72.1845 0 71.9935 0.0211957C71.9086 0.0211957 71.8238 0.0211957 71.7389 0.0211957C71.7389 0.0211957 71.7389 0.0211957 71.7177 0.0211957C71.7177 0.0211957 71.7177 0.0211957 71.6964 0.0211957C71.6964 0.0211957 71.6964 0.0211957 71.6752 0.0211957C71.6752 0.0211957 71.6752 0.0211957 71.654 0.0211957C71.654 0.0211957 71.654 0.0211957 71.6328 0.0211957C71.6328 0.0211957 71.6328 0.0211957 71.6116 0.0211957C71.6116 0.0211957 71.6116 0.0211957 71.5904 0.0211957C71.5904 0.0211957 71.5904 0.0211957 71.5691 0.0211957C71.5691 0.0211957 71.5691 0.0211957 71.5479 0.0211957C61.2995 0.29674 51.6452 2.54349 42.7335 6.71904C39.1477 8.37231 35.6891 10.3223 32.4003 12.5267C28.5173 15.1549 24.8466 18.1647 21.5153 21.4925C18.184 24.8202 15.171 28.4658 12.54 32.3659C9.8877 36.2871 7.59613 40.4838 5.77136 44.8289C4.6468 47.4784 3.69197 50.1491 2.9069 52.8833C1.06091 58.9029 0.084873 64.8165 0.0636547 70.391C0.0212182 71.3872 0 72.4046 0 73.422C0 83.3416 1.95208 92.9432 5.77136 101.994C7.61735 106.339 9.8877 110.536 12.54 114.457C15.171 118.336 18.184 122.003 21.5153 125.33C24.8466 128.658 28.4961 131.668 32.4003 134.296C36.3256 136.946 40.5268 139.235 44.8766 141.057C53.9368 144.894 63.5699 146.823 73.4788 146.823C83.4089 146.823 93.0208 144.873 102.081 141.057C106.431 139.213 110.632 136.946 114.557 134.296C118.44 131.668 122.111 128.658 125.442 125.33C127.628 123.147 129.686 120.794 131.596 118.357C134.014 115.517 136.179 112.401 138.067 109.01C140.741 104.198 142.841 98.8356 144.369 93.0704C144.687 91.8834 144.963 90.7177 145.196 89.5943C146.279 84.8888 146.873 80.0986 146.979 75.2236ZM22.067 117.679C26.8623 121.409 31.8061 123.974 37.6412 125.775C42.9882 127.429 48.5898 128.298 55.0826 129.315C59.6445 130.036 64.843 130.841 70.5294 132.049C73.988 132.77 77.1283 133.533 79.9079 134.211C85.0427 135.441 89.4773 136.522 93.7634 136.924C95.0153 137.051 96.246 137.094 97.4342 137.094C100.044 137.094 102.548 136.818 105.158 136.225C101.975 136.988 99.0255 137.306 96.0974 137.306C90.5382 137.306 85.0215 136.161 78.0831 134.72C75.8128 134.254 73.4576 133.766 70.8902 133.279C66.4131 132.41 62.3392 131.753 58.3926 131.117C43.752 128.743 33.1853 127.026 22.1094 118.145C16.6988 113.8 12.0944 108.268 8.52973 102.057C12.1368 108.204 16.7624 113.545 22.067 117.679ZM7.65979 100.065C11.4579 106.826 16.4441 112.634 22.2155 117C26.735 120.392 31.3181 122.744 36.7076 124.334C41.609 125.797 46.6589 126.538 52.5152 127.407C57.6924 128.17 63.5486 129.04 70.2324 130.566C74.4336 131.541 78.1044 132.558 81.3295 133.448C86.04 134.762 90.1139 135.886 94.1241 136.394C95.5882 136.585 97.0098 136.67 98.4314 136.67C100.468 136.67 102.484 136.479 104.564 136.098C102.039 136.628 99.7045 136.84 97.3917 136.84C91.9174 136.84 86.6765 135.568 79.9716 133.957C77.192 133.279 74.0517 132.537 70.5931 131.795C64.9066 130.587 59.7081 129.781 55.1462 129.061C42.0546 127.005 32.5912 125.521 22.2579 117.467C16.338 112.888 11.373 106.869 7.65979 100.065ZM98.4102 136.437C92.9571 136.437 87.9072 135.038 81.372 133.215C78.1468 132.325 74.476 131.307 70.2748 130.332C63.5911 128.785 57.7136 127.937 52.5364 127.153C41.121 125.479 32.1032 124.143 22.364 116.788C15.9349 111.935 10.5879 105.364 6.78984 97.9242C10.7152 105.385 16.0834 111.744 22.364 116.322C31.6788 123.126 39.954 124.228 50.4358 125.627C56.0586 126.369 62.4029 127.238 69.9353 129.103C74.7731 130.311 78.847 131.604 82.4117 132.728C88.6498 134.72 93.6573 136.31 99.3226 136.31C100.765 136.31 102.251 136.204 103.821 135.971C101.932 136.288 100.15 136.437 98.4102 136.437ZM6.38669 98.6661C10.206 106.445 15.5742 113.27 21.9184 118.357C27.032 122.469 32.4215 125.309 38.8506 127.323C44.7493 129.167 51.0299 130.184 58.329 131.371C62.2755 132.007 66.3282 132.664 70.8265 133.533C73.3939 134.021 75.7491 134.508 78.0195 134.974C84.9791 136.416 90.517 137.56 96.0762 137.56C99.2377 137.56 102.399 137.2 105.837 136.31C101.869 137.412 98.198 137.857 94.4424 137.857C88.7135 137.857 82.836 136.818 75.5369 135.525C74.1366 135.271 72.6725 135.017 71.166 134.762C68.1742 134.254 65.331 133.787 62.5726 133.342C45.9375 130.672 33.928 128.743 21.9609 118.844C15.3832 113.397 10.0574 106.381 6.34425 98.5389C6.34425 98.5601 6.36547 98.6025 6.38669 98.6661ZM99.3226 136.055C93.6786 136.055 88.6923 134.466 82.4753 132.494C78.8894 131.35 74.8367 130.057 69.9778 128.849C62.4453 126.984 56.0798 126.136 50.457 125.373C40.0176 123.974 31.7637 122.872 22.4913 116.11C16.9958 112.083 12.2217 106.678 8.52973 100.489C12.2854 106.593 17.0595 111.786 22.4701 115.623C31.3818 121.897 39.0416 122.787 48.6959 123.931C54.637 124.631 61.3632 125.415 69.5958 127.619C75.0065 129.061 79.3775 130.629 83.218 132.028C89.35 134.232 94.2302 135.992 99.9804 135.992C100.872 135.992 101.784 135.949 102.739 135.865C101.572 135.992 100.447 136.055 99.3226 136.055ZM21.7911 119.035C33.8007 128.976 45.8526 130.926 62.5302 133.597C65.2673 134.042 68.1106 134.487 71.1236 135.017C72.6513 135.271 74.0941 135.547 75.4945 135.78C82.0934 136.946 87.3131 137.878 92.3842 138.09C93.0844 138.111 93.7846 138.132 94.4636 138.132C98.6648 138.132 102.484 137.581 106.516 136.373C101.635 137.942 97.1583 138.535 92.4479 138.535C86.4856 138.535 80.1413 137.56 72.0996 136.331L71.4418 136.225C70.4021 136.055 69.3624 135.907 68.344 135.759C48.9929 132.834 35.0101 130.714 21.8124 119.501C16.1046 114.626 11.3518 108.586 7.7871 101.867C11.4366 108.543 16.232 114.436 21.7911 119.035ZM101.826 135.674C95.2699 136.098 90.0714 134.211 83.3241 131.774C79.4623 130.375 75.0914 128.806 69.6807 127.365C61.4268 125.161 54.6794 124.376 48.7383 123.677C39.1052 122.554 31.4879 121.663 22.6186 115.411C16.9322 111.362 12.0095 105.851 8.2539 99.5139C12.0944 105.809 17.017 111.087 22.5974 114.923C31.1696 120.752 38.2777 121.451 47.2743 122.32C53.4488 122.914 60.4296 123.592 69.2988 126.115C75.1975 127.789 79.8018 129.654 83.8545 131.307C89.9229 133.766 94.6546 135.695 100.553 135.695C100.999 135.695 101.402 135.695 101.826 135.674ZM21.6426 119.713C24.8678 122.448 28.1778 124.694 31.7849 126.581C35.095 128.319 38.6384 129.76 42.6275 130.968C50.2024 133.279 58.5836 134.55 68.3015 136.013C69.32 136.161 70.3597 136.331 71.3994 136.479L72.0572 136.585C79.6109 137.73 85.5732 138.641 91.2172 138.768C91.6204 138.768 92.0235 138.79 92.4267 138.79C97.6676 138.79 102.293 138.048 107.152 136.437C95.7579 140.485 86.0612 139.616 71.7389 137.73C50.3721 134.89 35.3284 132.155 21.685 120.222C15.9349 115.156 11.1608 108.925 7.59613 102.036C11.2032 108.84 16.041 114.902 21.6426 119.713ZM83.9818 131.096C79.9291 129.442 75.3248 127.577 69.4049 125.903C60.5144 123.38 53.5124 122.702 47.3379 122.109C38.3838 121.239 31.2969 120.561 22.7884 114.754C16.5502 110.472 11.2457 104.431 7.36273 97.5003C11.3518 104.452 16.6775 110.239 22.7672 114.266C26.5652 116.767 30.2784 118.378 34.4372 119.353C38.2141 120.243 42.0546 120.519 46.1072 120.816C52.4303 121.282 59.602 121.812 69.0229 124.652C75.3884 126.56 80.1625 128.722 84.3637 130.629C90.3261 133.321 94.9516 135.419 100.935 135.441C94.9304 135.525 90.1351 133.575 83.9818 131.096ZM12.7522 110.811C15.362 114.351 18.3113 117.573 21.5153 120.392C27.9869 126.051 35.095 129.951 43.9005 132.664C52.303 135.271 61.8512 136.649 71.7177 137.963C78.6348 138.874 84.4911 139.553 89.9654 139.553C96.0126 139.553 101.635 138.726 107.767 136.479C96.6279 140.846 86.528 140.803 72.0572 139.192C50.266 136.755 35.0101 132.982 21.5577 120.879C16.4866 116.28 12.1793 110.79 8.80557 104.749C9.99379 106.848 11.3093 108.882 12.7522 110.811ZM84.4698 130.396C80.2474 128.488 75.4521 126.326 69.0866 124.398C59.6657 121.557 52.4727 121.028 46.1285 120.561C37.7473 119.947 31.1272 119.459 22.8945 114.054C16.2956 109.688 10.694 103.308 6.7474 95.953C6.85349 96.1226 6.93837 96.3133 7.04446 96.4829C11.1184 103.668 16.6139 109.582 22.8945 113.588C26.5652 115.919 30.1299 117.403 34.1189 118.251C37.7048 119.014 41.3119 119.184 45.11 119.374C51.5391 119.692 58.8382 120.031 68.7259 123.189C75.4945 125.351 80.3959 127.81 84.7457 129.972C88.2467 131.731 91.2809 133.257 94.5061 134.19C96.4157 134.741 98.2829 135.08 100.214 135.186C94.6122 134.996 90.1563 132.982 84.4698 130.396ZM12.6249 111.299C15.2135 114.881 18.1628 118.166 21.3668 121.07C24.7617 124.122 28.2839 126.666 32.1244 128.849C35.774 130.905 39.6357 132.6 43.943 134.042C51.2633 136.458 59.6445 138.09 71.9935 139.468C78.168 140.146 82.9209 140.485 87.0585 140.485C88.6074 140.485 90.0714 140.443 91.4931 140.358C97.4978 139.977 102.866 138.768 108.362 136.543C96.5218 141.63 85.3822 141.884 72.3118 140.718C48.4837 138.556 33.7158 133.024 21.388 121.621C15.2347 115.877 10.2696 109.01 6.70497 101.443C8.40242 104.876 10.3969 108.204 12.6249 111.299ZM84.8518 129.739C80.502 127.556 75.5794 125.097 68.8108 122.935C58.9018 119.777 51.5816 119.417 45.1312 119.12C37.5563 118.76 31.0211 118.442 23.043 113.376C16.8685 109.433 11.9883 104.05 8.35999 98.1786C12.3278 104.368 17.3565 109.433 23.043 112.91C30.8513 117.679 37.0683 117.806 44.2613 117.954C50.754 118.081 58.1168 118.23 68.4076 121.685C75.5369 124.08 80.5657 126.835 85.0003 129.294C88.374 131.159 91.2809 132.749 94.4 133.787C96.0338 134.338 97.6676 134.699 99.3226 134.868C94.209 134.423 90.0714 132.346 84.8518 129.739ZM12.5188 111.786C15.1074 115.411 18.0355 118.781 21.2395 121.769C27.7959 127.853 35.2647 132.304 44.0491 135.398C51.8362 138.132 60.8115 139.913 72.3118 140.952C76.6403 141.354 80.4172 141.545 83.8333 141.545C86.6765 141.545 89.2864 141.418 91.7901 141.142C97.8798 140.485 103.333 139.044 108.934 136.585C98.3466 141.524 87.4828 143.219 72.6513 142.202C50.266 140.676 33.9492 134.338 21.3031 122.299C15.6591 116.916 11.0335 110.557 7.57491 103.626C8.99654 106.445 10.6728 109.179 12.5188 111.786ZM85.1276 129.082C80.693 126.644 75.6643 123.868 68.4925 121.473C58.1592 118.018 50.7753 117.848 44.2613 117.721C37.0895 117.573 30.915 117.445 23.1703 112.698C16.5714 108.649 11.4154 102.884 7.70222 96.6313C11.7973 103.287 17.1443 108.67 23.1915 112.231C30.8301 116.725 36.75 116.682 43.5823 116.619C50.0963 116.555 57.459 116.492 68.1318 120.222C75.5794 122.85 80.6718 125.924 85.1488 128.637C88.3952 130.587 91.196 132.282 94.2514 133.427C95.4609 133.872 96.6491 134.211 97.8586 134.444C93.4239 133.639 89.7107 131.604 85.1276 129.082ZM21.0909 122.426C27.7322 128.764 35.2647 133.427 44.1127 136.734C52.303 139.786 61.639 141.651 72.6088 142.393C75.4521 142.584 78.0831 142.69 80.5869 142.69C84.7032 142.69 88.4589 142.435 92.0447 141.884C98.1132 140.973 103.757 139.256 109.338 136.628C109.401 136.606 109.444 136.585 109.507 136.543C99.8955 141.418 89.6471 143.728 77.5739 143.728C76.0462 143.728 74.4973 143.686 72.9271 143.622C51.5816 142.647 34.1614 135.674 21.1334 122.935C15.9986 117.891 11.6913 112.062 8.38121 105.724C11.7125 111.892 15.9986 117.551 21.0909 122.426ZM85.2761 128.425C80.7779 125.712 75.6643 122.638 68.1954 119.989C58.8382 116.725 52.0059 116.364 46.0648 116.364C45.2161 116.364 44.3673 116.364 43.5398 116.386C36.7288 116.449 30.8513 116.492 23.2764 112.041C16.232 107.886 10.8213 101.739 7.02324 95.1476C7.10811 95.2959 7.19298 95.4443 7.27786 95.5927C11.4791 102.502 17.017 108.035 23.2764 111.595C30.7452 115.835 36.3681 115.601 42.8821 115.326C49.3961 115.05 56.7588 114.732 67.7711 118.802C75.5582 121.663 80.7142 125.055 85.2549 128.043C89.2652 130.672 92.7025 132.94 96.8825 134.021C92.8298 132.961 89.3288 130.862 85.2761 128.425ZM12.2854 112.74C14.8316 116.47 17.7597 119.968 20.9636 123.105C24.3161 126.369 27.9656 129.294 31.8486 131.795C35.6679 134.254 39.8266 136.373 44.1764 138.09C52.6849 141.439 62.3604 143.389 72.9059 143.877C74.5185 143.961 76.1098 143.982 77.6376 143.982C82.8785 143.982 87.7162 143.559 92.2994 142.668C98.389 141.503 104.054 139.574 109.635 136.734C109.762 136.67 109.868 136.606 109.995 136.543C109.932 136.564 109.889 136.606 109.826 136.628C99.3226 142.308 88.0133 145.106 75.3036 145.106C74.6033 145.106 73.9244 145.106 73.2242 145.085C52.5788 144.597 34.5221 137.157 21.0061 123.592C14.7042 117.233 9.71796 109.9 6.23816 101.909C7.91441 105.703 9.95136 109.349 12.2854 112.74ZM78.1892 0.402719C79.4411 0.487501 80.6718 0.59348 81.8812 0.74185C82.7936 0.847829 83.706 0.975003 84.6184 1.10218C85.2337 1.18696 85.8278 1.29294 86.4219 1.39892C87.016 1.5049 87.6101 1.61087 88.2255 1.73805C88.8196 1.86522 89.4137 1.9924 90.0078 2.11957C91.196 2.39512 92.363 2.69186 93.5088 3.03099C123.32 11.5093 145.451 38.4278 146.682 70.6029C146.724 71.5355 146.745 72.4893 146.745 73.422C146.745 73.5491 146.745 73.6763 146.745 73.8035C146.724 75.3296 146.597 79.2932 145.727 84.5709C145.727 84.5921 145.727 84.6345 145.706 84.6557C145.706 84.6769 145.706 84.6769 145.706 84.6981C145.239 87.4323 144.581 90.5057 143.648 93.791C143.414 94.6177 143.138 95.4655 142.862 96.3345C140.571 103.329 137.155 110.472 132.338 116.873C132.296 116.916 132.275 116.958 132.232 117.022C132.147 117.149 132.041 117.255 131.956 117.382L131.935 117.403C131.659 117.763 131.383 118.103 131.108 118.442C131.044 118.526 130.959 118.611 130.874 118.717C130.768 118.844 130.662 118.972 130.556 119.099C130.535 119.12 130.535 119.12 130.513 119.141C130.429 119.226 130.365 119.332 130.28 119.417C130.195 119.501 130.132 119.586 130.047 119.671C130.025 119.692 130.004 119.713 129.983 119.756C129.941 119.798 129.898 119.862 129.834 119.904C129.474 120.307 129.113 120.688 128.731 121.07C128.625 121.176 128.519 121.282 128.413 121.388C128.392 121.409 128.37 121.43 128.349 121.451C128.307 121.494 128.286 121.515 128.243 121.557C127.394 122.384 126.503 123.211 125.57 123.995C121.39 127.556 114.388 133.491 104.309 134.275C103.63 134.317 102.972 134.36 102.357 134.36C95.5033 134.36 91.0051 131.413 85.4247 127.747C80.8627 124.758 75.7067 121.345 67.8772 118.484C59.6657 115.474 53.47 114.86 48.1654 114.86C46.3194 114.86 44.5795 114.923 42.8821 115.008C36.4105 115.283 30.8089 115.517 23.4037 111.32C9.63308 103.499 1.93086 87.4747 0.615329 75.9231C0.572893 75.5415 0.530456 75.1388 0.509238 74.7573C0.509238 74.6937 0.509238 74.6301 0.48802 74.5665C0.48802 74.4605 0.466801 74.3758 0.466801 74.2698C0.445583 73.9519 0.424365 73.6339 0.424365 73.316C0.403147 72.9133 0.403147 72.4893 0.381928 72.0654C0.381928 72.0018 0.381928 71.9171 0.381928 71.8535C0.381928 71.7263 0.381928 71.5991 0.381928 71.4931V71.472C0.381928 71.3448 0.381928 71.1964 0.381928 71.0692C0.381928 70.9209 0.381928 70.7937 0.381928 70.6453C0.381928 70.5605 0.381928 70.4758 0.381928 70.391C0.381928 70.3274 0.381928 70.2638 0.381928 70.2002C0.572893 63.9687 1.69746 57.6735 3.69197 51.548C6.00476 44.5746 9.44212 37.7284 13.8343 31.4968C14.004 31.2637 14.1526 31.0305 14.3223 30.8186C14.386 30.7338 14.4496 30.649 14.5133 30.543C14.6194 30.3947 14.7255 30.2675 14.8316 30.1191C14.9589 29.9495 15.0862 29.78 15.2135 29.6104C15.2559 29.5468 15.2984 29.4832 15.362 29.4197C16.8473 27.4696 18.4174 25.562 20.0937 23.7604C21.388 22.3403 22.746 21.005 24.1251 19.712C24.1464 19.712 24.1464 19.6908 24.1676 19.6908C24.3798 19.5001 24.5707 19.3093 24.7829 19.1185C24.8253 19.0761 24.8466 19.0549 24.889 19.0126C25.0587 18.843 25.2497 18.6946 25.4407 18.5251C25.5043 18.4615 25.568 18.4191 25.6316 18.3555C25.7802 18.2071 25.9499 18.0799 26.0984 17.9528C26.1833 17.868 26.2682 17.8044 26.3531 17.7196C26.4804 17.6136 26.6077 17.4865 26.7562 17.3805C26.8623 17.2745 26.9896 17.1897 27.0957 17.0837C27.2018 16.999 27.3079 16.9142 27.414 16.8082C27.5625 16.7022 27.6898 16.575 27.8383 16.4691C27.9232 16.4055 28.0081 16.3419 28.093 16.2783C28.2627 16.1511 28.4324 16.0028 28.6022 15.8756C28.6658 15.8332 28.7083 15.7908 28.7719 15.7484C28.9629 15.6 29.1539 15.4517 29.366 15.2821C29.3873 15.2609 29.4297 15.2397 29.4509 15.2185C29.6631 15.049 29.8753 14.9006 30.0875 14.731C30.1087 14.731 30.1087 14.7098 30.1299 14.7098C30.3421 14.5403 30.5543 14.3919 30.7665 14.2435C30.8089 14.2223 30.8513 14.1799 30.8938 14.1587C31.0847 14.0316 31.2757 13.8832 31.4667 13.756C31.5303 13.7136 31.6152 13.65 31.6788 13.6076C31.8486 13.5017 31.9971 13.3745 32.1669 13.2685C32.273 13.2049 32.3578 13.1201 32.4639 13.0566C32.5912 12.9718 32.7397 12.8658 32.8671 12.781C32.9944 12.6962 33.1217 12.6115 33.249 12.5267C33.3551 12.4631 33.4612 12.3783 33.5673 12.3147C33.7158 12.2087 33.8855 12.1028 34.0341 11.9968C34.1189 11.9544 34.1826 11.8908 34.2675 11.8484C34.4584 11.7212 34.6494 11.6153 34.8191 11.4881C34.8616 11.4457 34.9252 11.4245 34.9677 11.3821C35.1799 11.2549 35.392 11.1066 35.6042 10.9794C35.6254 10.9582 35.6467 10.9582 35.6679 10.937C35.8801 10.8098 36.0922 10.6826 36.3256 10.5343C36.3681 10.5131 36.3893 10.4919 36.4317 10.4707C36.6439 10.3435 36.8349 10.2163 37.0471 10.1104C37.1107 10.068 37.1744 10.0256 37.238 10.0044C37.4078 9.8984 37.5987 9.79242 37.7685 9.70764C37.8533 9.64405 37.9594 9.60166 38.0443 9.53807C38.1928 9.45329 38.3414 9.36851 38.4899 9.28372C38.6172 9.22014 38.7445 9.15655 38.8506 9.07177C38.9779 9.00818 39.084 8.94459 39.2113 8.88101C39.3598 8.79622 39.5084 8.71144 39.6781 8.62666C39.763 8.58426 39.8691 8.52068 39.954 8.47829C40.1449 8.3935 40.3147 8.28753 40.5056 8.20274C40.5693 8.16035 40.6329 8.13916 40.6966 8.09676C40.9088 7.99079 41.121 7.88481 41.3331 7.77883C41.3756 7.75763 41.418 7.73644 41.4604 7.71524C41.6726 7.60926 41.906 7.50328 42.1182 7.39731C42.1394 7.37611 42.1607 7.37611 42.1819 7.35491C42.1819 7.35491 42.2031 7.35491 42.2031 7.33372C42.4153 7.22774 42.6275 7.12176 42.8396 7.03698C42.9033 7.01578 42.9457 6.97339 43.0094 6.95219C43.2003 6.86741 43.3913 6.78263 43.6035 6.67665C43.6884 6.63426 43.7732 6.59187 43.8581 6.54948C44.0279 6.46469 44.1976 6.40111 44.3674 6.31632C44.4734 6.27393 44.6007 6.21034 44.7068 6.16795C44.8554 6.10437 44.9827 6.04078 45.1312 5.97719C45.2797 5.9136 45.407 5.85002 45.5556 5.78643C45.6617 5.74404 45.789 5.70165 45.8951 5.63806C46.0648 5.57447 46.2346 5.48969 46.4043 5.4261C46.4892 5.38371 46.5953 5.36252 46.6801 5.32012C46.8711 5.23534 47.0621 5.17175 47.2743 5.08697C47.3379 5.06578 47.4016 5.04458 47.4652 5.00219C47.6774 4.91741 47.8896 4.85382 48.0805 4.76904C48.1018 4.76904 48.1018 4.74784 48.123 4.74784C48.1654 4.72664 48.2079 4.72664 48.2503 4.70545C48.4625 4.62067 48.6534 4.55708 48.8656 4.4723C48.9081 4.4511 48.9505 4.4299 49.0141 4.4299C49.0354 4.4299 49.0354 4.40871 49.0566 4.40871C49.2475 4.34512 49.4597 4.26034 49.6507 4.19675C49.7356 4.17556 49.7992 4.13316 49.8841 4.11197C50.0751 4.04838 50.266 3.98479 50.457 3.92121C50.5631 3.87882 50.6692 3.85762 50.7753 3.81523C50.945 3.75164 51.0935 3.70925 51.2633 3.66686C51.3906 3.62447 51.5179 3.58208 51.6452 3.53968C51.7937 3.49729 51.921 3.4549 52.0696 3.41251C52.2181 3.37012 52.3666 3.32773 52.5152 3.26414C52.6425 3.22175 52.7486 3.20055 52.8759 3.15816C53.0456 3.11577 53.2154 3.05218 53.4063 3.00979C53.5124 2.9886 53.5973 2.9462 53.7034 2.92501C53.8943 2.86142 54.0853 2.81903 54.2763 2.77664H54.2975C54.3824 2.75544 54.446 2.73425 54.5309 2.71305C54.7219 2.67066 54.8916 2.60707 55.0826 2.56468C55.125 2.56468 55.1462 2.54349 55.1887 2.54349C55.2523 2.52229 55.316 2.52229 55.3584 2.50109C55.5281 2.4587 55.7191 2.41631 55.8889 2.37392C55.9525 2.35272 56.0162 2.35272 56.0798 2.33153C56.1223 2.33153 56.1647 2.31033 56.2071 2.31033C56.3769 2.26794 56.5466 2.22555 56.7164 2.18316C56.8012 2.16196 56.8861 2.14077 56.971 2.11957C56.9922 2.11957 57.0346 2.09838 57.0559 2.09838C57.2256 2.05598 57.3741 2.03479 57.5439 1.9924C57.65 1.9712 57.7561 1.95001 57.8622 1.92881C57.8834 1.92881 57.8834 1.92881 57.9046 1.92881C58.0531 1.88642 58.2229 1.86522 58.3714 1.82283C58.4987 1.80164 58.626 1.78044 58.7321 1.73805C62.2968 1.01739 65.9463 0.551089 69.6595 0.360327C69.6807 0.360327 69.6807 0.360327 69.7019 0.360327C69.9778 0.339131 70.2536 0.339131 70.5294 0.317936C70.5719 0.317936 70.5931 0.317936 70.6355 0.317936C70.8902 0.317936 71.1448 0.29674 71.3994 0.29674C71.4631 0.29674 71.5055 0.29674 71.5691 0.29674H71.5904C71.8238 0.29674 72.0784 0.29674 72.3118 0.275544C72.333 0.275544 72.3754 0.275544 72.3967 0.275544C72.4179 0.275544 72.4179 0.275544 72.4391 0.275544C72.4603 0.275544 72.4815 0.275544 72.4815 0.275544H72.5027C72.821 0.275544 73.1393 0.275544 73.4576 0.275544C75.0702 0.254349 76.6403 0.29674 78.1892 0.402719ZM73.5 146.59C45.2585 146.59 20.709 130.544 8.4873 107.102C9.61187 109.2 10.8425 111.256 12.1581 113.228C14.7042 117.022 17.6111 120.561 20.8151 123.783C27.5201 130.523 35.4132 135.801 44.24 139.447C53.1305 143.113 62.8697 145.106 73.1817 145.339C73.8607 145.36 74.5397 145.36 75.2187 145.36C81.2659 145.36 87.0797 144.724 92.554 143.453C98.4314 142.096 104.118 139.955 109.486 137.094C98.877 143.156 86.5917 146.59 73.5 146.59Z" fill="url(#paint0_linear_28_1774)"/>
<path d="M1.78233 89.5943C2.01573 90.7177 2.29157 91.8834 2.60984 93.0704C4.11634 98.8356 6.23816 104.219 8.91166 109.01C10.8001 112.401 12.9643 115.517 15.3832 118.357C17.2929 120.816 19.351 123.147 21.5365 125.33C24.8678 128.658 28.5173 131.668 32.4215 134.296C36.3469 136.946 40.5481 139.235 44.8978 141.057C53.958 144.894 63.5911 146.823 73.5 146.823C83.4301 146.823 93.042 144.873 102.102 141.057C106.452 139.213 110.653 136.946 114.579 134.296C118.461 131.668 122.132 128.658 125.463 125.33C128.795 122.003 131.808 118.357 134.439 114.457C137.091 110.536 139.383 106.339 141.207 101.994C145.048 92.9432 146.979 83.3204 146.979 73.422C146.979 72.4046 146.958 71.4084 146.915 70.391C146.894 64.8165 145.918 58.8817 144.072 52.9045C143.287 50.1703 142.311 47.4784 141.207 44.8501C139.361 40.505 137.091 36.3083 134.439 32.3871C131.808 28.5082 128.795 24.8414 125.463 21.5137C122.132 18.1859 118.483 15.1761 114.579 12.5479C111.311 10.3435 107.831 8.3935 104.245 6.74024C95.3548 2.54349 85.7005 0.29674 75.5582 0.0211957C75.5582 0.0211957 75.5582 0.0211957 75.537 0.0211957C75.537 0.0211957 75.537 0.0211957 75.5157 0.0211957C75.5157 0.0211957 75.5157 0.0211957 75.4945 0.0211957C75.4945 0.0211957 75.4945 0.0211957 75.4733 0.0211957C75.4733 0.0211957 75.4733 0.0211957 75.4521 0.0211957C75.4521 0.0211957 75.4521 0.0211957 75.4309 0.0211957C75.4309 0.0211957 75.4309 0.0211957 75.4096 0.0211957C75.4096 0.0211957 75.4096 0.0211957 75.3884 0.0211957C75.3884 0.0211957 75.3884 0.0211957 75.3672 0.0211957C75.2823 0.0211957 75.1975 0.0211957 75.1126 0.0211957C74.9216 0.0211957 74.7307 0.0211957 74.5397 0C74.2214 0 73.9244 0 73.6061 0C71.4418 0 69.2776 0.0847829 67.1345 0.275544C66.5192 0.317936 65.9039 0.381523 65.3098 0.466306C58.3077 1.25055 51.5179 3.03099 45.0039 5.78643C43.3701 6.48589 41.7575 7.22774 40.1661 8.03318C38.8506 8.71144 37.5563 9.43209 36.262 10.1739C34.9677 10.9158 33.737 11.7212 32.5064 12.5479C29.3448 14.6886 26.3318 17.0837 23.531 19.6696C22.8945 20.2631 22.2579 20.8778 21.6214 21.5137C21.197 21.9376 20.7939 22.3403 20.3907 22.7854C19.7754 23.4213 19.1813 24.0783 18.5872 24.7354C16.4441 27.1517 14.4496 29.7164 12.6461 32.3871C10.8213 35.0789 9.16628 37.9191 7.72344 40.8229C7.3203 41.6284 6.93837 42.4126 6.57766 43.2393C6.34426 43.7692 6.08964 44.3202 5.85624 44.8713C2.41888 52.7561 0.509238 61.1072 0.084873 69.7127C0.0636547 70.0094 0.0636547 70.3274 0.0424365 70.6453C0.0212182 71.26 0 71.8747 0 72.4893C0 72.8073 0 73.104 0 73.422V73.5279C0 73.973 0 74.5453 0.0212182 75.2236C0.148528 80.0986 0.72142 84.8888 1.78233 89.5943ZM138.492 102.057C134.927 108.289 130.322 113.821 124.912 118.145C113.857 127.026 103.269 128.743 88.6286 131.117C84.682 131.753 80.6293 132.41 76.1311 133.279C73.5424 133.766 71.2084 134.254 68.9381 134.72C61.9997 136.161 56.483 137.306 50.9238 137.306C47.9745 137.306 45.0251 136.988 41.8636 136.225C44.4734 136.797 46.9984 137.094 49.587 137.094C50.7965 137.094 52.0059 137.03 53.2578 136.924C57.5439 136.522 61.9785 135.462 67.1133 134.211C69.8929 133.554 73.0332 132.791 76.4918 132.049C82.1783 130.841 87.3555 130.036 91.9387 129.315C98.4314 128.298 104.033 127.407 109.38 125.775C115.215 123.974 120.159 121.409 124.954 117.679C130.238 113.545 134.863 108.204 138.492 102.057ZM124.785 117.467C114.451 125.521 104.988 127.005 91.8962 129.061C87.3131 129.781 82.1358 130.587 76.4493 131.795C72.9908 132.516 69.8505 133.279 67.0709 133.957C60.3659 135.568 55.125 136.84 49.6507 136.84C47.3379 136.84 44.9827 136.606 42.4789 136.098C44.5371 136.479 46.5741 136.67 48.611 136.67C50.0326 136.67 51.4542 136.585 52.9183 136.394C56.9286 135.907 61.0025 134.762 65.7129 133.448C68.9381 132.558 72.6088 131.541 76.8101 130.566C83.4938 129.04 89.35 128.17 94.5273 127.407C100.384 126.538 105.433 125.797 110.335 124.334C115.703 122.723 120.307 120.392 124.827 117C130.598 112.655 135.585 106.826 139.361 100.086C135.627 106.869 130.683 112.888 124.785 117.467ZM43.2004 135.971C44.7705 136.204 46.2558 136.31 47.6986 136.31C53.3639 136.31 58.3714 134.72 64.6096 132.728C68.1954 131.583 72.2481 130.29 77.0859 129.103C84.5971 127.238 90.9626 126.39 96.5855 125.627C107.067 124.228 115.342 123.126 124.657 116.322C130.938 111.744 136.306 105.385 140.231 97.9242C136.433 105.364 131.086 111.935 124.657 116.788C114.897 124.143 105.9 125.479 94.4848 127.153C89.3076 127.916 83.4301 128.785 76.7464 130.332C72.5452 131.307 68.8744 132.325 65.6493 133.215C59.114 135.038 54.0853 136.437 48.611 136.437C46.8499 136.437 45.0888 136.288 43.2004 135.971ZM140.677 98.5177C136.964 106.381 131.638 113.376 125.06 118.823C113.093 128.722 101.084 130.65 84.4486 133.321C81.7115 133.766 78.8682 134.211 75.8552 134.741C74.3275 134.996 72.8847 135.271 71.4843 135.504C64.1852 136.797 58.3077 137.836 52.5788 137.836C48.8444 137.836 45.1524 137.391 41.1846 136.288C44.622 137.179 47.7835 137.539 50.945 137.539C56.5042 137.539 62.0422 136.394 69.0017 134.953C71.2721 134.487 73.6061 133.999 76.1947 133.512C80.6718 132.643 84.7457 131.986 88.6923 131.35C95.9701 130.163 102.272 129.145 108.171 127.301C114.6 125.288 119.968 122.448 125.103 118.336C131.447 113.228 136.836 106.424 140.635 98.6449C140.635 98.6025 140.656 98.5601 140.677 98.5177ZM44.24 135.843C45.1949 135.928 46.1073 135.971 46.9984 135.971C52.7698 135.971 57.6288 134.211 63.7608 132.007C67.6013 130.629 71.9723 129.04 77.3829 127.598C85.6156 125.415 92.3418 124.61 98.2829 123.91C107.958 122.766 115.597 121.875 124.509 115.601C129.941 111.765 134.715 106.572 138.449 100.468C134.757 106.636 130.004 112.062 124.487 116.089C115.215 122.85 106.982 123.953 96.5218 125.351C90.899 126.093 84.5335 126.962 77.001 128.828C72.142 130.036 68.0894 131.329 64.5035 132.473C58.2865 134.444 53.3002 136.034 47.6562 136.034C46.5741 136.055 45.4283 135.992 44.24 135.843ZM139.213 101.888C135.648 108.607 130.895 114.648 125.188 119.523C111.99 130.714 98.0071 132.834 78.656 135.78C77.6376 135.928 76.5979 136.098 75.5582 136.246L74.9004 136.352C66.8587 137.581 60.5144 138.556 54.5521 138.556C49.8417 138.556 45.3646 137.942 40.4844 136.394C44.5159 137.581 48.3352 138.154 52.5364 138.154C53.2154 138.154 53.9156 138.132 54.6158 138.111C59.6869 137.899 64.9066 136.967 71.5055 135.801C72.9059 135.547 74.37 135.292 75.8764 135.038C78.8682 134.529 81.7115 134.063 84.4698 133.618C101.147 130.926 113.178 128.997 125.209 119.056C130.768 114.436 135.563 108.543 139.213 101.888ZM46.4255 135.695C52.303 135.695 57.0559 133.766 63.1243 131.307C67.177 129.654 71.7813 127.81 77.68 126.115C86.5492 123.592 93.53 122.914 99.7045 122.32C108.701 121.451 115.809 120.752 124.381 114.923C129.983 111.087 134.906 105.788 138.725 99.5139C134.969 105.83 130.068 111.362 124.36 115.411C115.491 121.642 107.874 122.532 98.2405 123.677C92.2994 124.376 85.552 125.161 77.2981 127.365C71.8874 128.806 67.5165 130.375 63.6547 131.774C56.9073 134.211 51.6876 136.076 45.1524 135.674C45.598 135.695 46.0012 135.695 46.4255 135.695ZM139.425 102.015C135.86 108.904 131.086 115.135 125.336 120.201C111.693 132.134 96.6491 134.89 75.2823 137.709C60.96 139.616 51.2633 140.485 39.8691 136.416C44.7281 138.026 49.3536 138.768 54.5945 138.768C54.9977 138.768 55.4008 138.768 55.804 138.747C61.4693 138.62 67.4316 137.709 74.9641 136.564L75.6218 136.458C76.6615 136.288 77.7012 136.14 78.7197 135.992C88.4377 134.529 96.8401 133.236 104.394 130.947C108.383 129.739 111.926 128.298 115.236 126.56C118.843 124.673 122.153 122.426 125.379 119.692C130.959 114.902 135.797 108.84 139.425 102.015ZM46.0648 135.441C52.0484 135.419 56.6739 133.321 62.6363 130.629C66.8587 128.722 71.6328 126.56 77.9771 124.652C87.3767 121.812 94.5485 121.282 100.893 120.816C104.967 120.519 108.807 120.222 112.563 119.353C116.722 118.378 120.435 116.767 124.233 114.266C130.322 110.239 135.648 104.452 139.637 97.5003C135.754 104.431 130.45 110.472 124.233 114.732C115.703 120.519 108.637 121.218 99.6833 122.087C93.5088 122.681 86.5068 123.359 77.6163 125.881C71.6964 127.556 67.0921 129.421 63.0394 131.074C56.8649 133.575 52.0696 135.525 46.0648 135.441ZM138.216 104.749C134.842 110.79 130.535 116.28 125.463 120.879C112.011 132.982 96.7552 136.755 74.9641 139.192C60.472 140.803 50.3933 140.846 39.2538 136.479C45.3858 138.726 50.9874 139.553 57.0559 139.553C62.5302 139.553 68.3864 138.874 75.3036 137.963C85.17 136.649 94.7183 135.271 103.121 132.664C111.926 129.951 119.034 126.03 125.506 120.392C128.71 117.573 131.659 114.33 134.269 110.811C135.691 108.882 137.006 106.848 138.216 104.749ZM46.8075 135.186C48.7383 135.08 50.6055 134.762 52.5152 134.19C55.7403 133.236 58.7745 131.731 62.2756 129.972C66.6041 127.81 71.5267 125.33 78.2953 123.189C88.183 120.053 95.4609 119.692 101.911 119.374C105.731 119.184 109.338 119.014 112.902 118.251C116.87 117.403 120.435 115.919 124.127 113.588C130.429 109.582 135.903 103.647 139.977 96.4829C140.083 96.3133 140.168 96.1438 140.274 95.953C136.306 103.308 130.726 109.688 124.127 114.054C115.894 119.459 109.274 119.947 100.893 120.561C94.5485 121.028 87.3555 121.557 77.9346 124.398C71.5691 126.326 66.7738 128.488 62.5514 130.396C56.8437 132.982 52.3879 134.996 46.8075 135.186ZM140.274 101.4C136.709 108.967 131.744 115.835 125.591 121.579C113.263 133.003 98.4951 138.535 74.667 140.676C61.5966 141.863 50.457 141.587 38.6172 136.5C44.1127 138.726 49.4809 139.934 55.4857 140.316C56.9073 140.4 58.3714 140.443 59.9203 140.443C64.0579 140.443 68.832 140.125 74.9853 139.425C87.3343 138.048 95.7155 136.416 103.036 133.999C107.364 132.579 111.226 130.862 114.854 128.806C118.716 126.623 122.238 124.08 125.612 121.028C128.816 118.124 131.765 114.838 134.354 111.256C136.624 108.204 138.598 104.876 140.274 101.4ZM47.6562 134.868C49.3324 134.699 50.945 134.338 52.5788 133.787C55.6979 132.749 58.6048 131.138 61.9785 129.294C66.4131 126.856 71.4206 124.08 78.5712 121.685C88.8832 118.23 96.2247 118.081 102.718 117.954C109.911 117.806 116.127 117.679 123.936 112.91C129.622 109.412 134.651 104.347 138.619 98.1786C134.99 104.05 130.11 109.455 123.936 113.376C115.958 118.42 109.422 118.738 101.848 119.12C95.3972 119.438 88.0769 119.777 78.168 122.935C71.3782 125.097 66.4555 127.556 62.127 129.739C56.9498 132.346 52.791 134.423 47.6562 134.868ZM139.468 103.583C136.009 110.514 131.383 116.852 125.739 122.257C113.093 134.296 96.7764 140.634 74.3912 142.16C59.5596 143.177 48.6959 141.503 38.108 136.543C43.7096 139.002 49.1627 140.464 55.2523 141.1C57.7561 141.375 60.3659 141.503 63.2092 141.503C66.6253 141.503 70.3809 141.312 74.7307 140.909C86.231 139.871 95.2063 138.111 102.993 135.356C111.778 132.261 119.225 127.81 125.803 121.727C129.007 118.738 131.956 115.389 134.524 111.744C136.327 109.179 138.003 106.445 139.468 103.583ZM49.1202 134.423C50.3297 134.19 51.5391 133.851 52.7273 133.406C55.7828 132.282 58.5836 130.587 61.83 128.616C66.3282 125.903 71.3994 122.829 78.847 120.201C89.5198 116.47 96.8825 116.534 103.397 116.598C110.25 116.661 116.149 116.704 123.787 112.21C129.834 108.649 135.16 103.266 139.277 96.6101C135.563 102.863 130.407 108.607 123.808 112.676C116.064 117.424 109.868 117.551 102.718 117.7C96.2035 117.827 88.8196 117.975 78.4863 121.451C71.3357 123.847 66.307 126.623 61.8512 129.061C57.2893 131.604 53.5761 133.639 49.1202 134.423ZM138.64 105.724C135.309 112.062 131.023 117.891 125.888 122.935C112.86 135.674 95.4397 142.647 74.1153 143.643C72.5452 143.707 70.9963 143.749 69.4685 143.749C57.4166 143.749 47.1682 141.439 37.5351 136.564C37.5987 136.585 37.6412 136.606 37.7048 136.649C43.2852 139.277 48.9293 141.015 54.9977 141.905C58.5836 142.435 62.318 142.711 66.4556 142.711C68.9593 142.711 71.6116 142.605 74.4336 142.414C85.4034 141.651 94.7395 139.807 102.93 136.755C111.757 133.448 119.289 128.785 125.952 122.448C131.023 117.551 135.288 111.892 138.64 105.724ZM50.0538 133.957C54.2338 132.876 57.6712 130.608 61.6814 127.98C66.2222 124.991 71.3782 121.6 79.1653 118.738C90.1776 114.69 97.5615 115.008 104.054 115.262C110.568 115.538 116.191 115.771 123.66 111.532C129.919 107.971 135.457 102.439 139.658 95.5291C139.743 95.3807 139.828 95.2324 139.913 95.084C136.115 101.697 130.726 107.823 123.66 111.977C116.085 116.449 110.208 116.386 103.397 116.322C102.569 116.322 101.741 116.301 100.872 116.301C94.9304 116.301 88.1194 116.661 78.7409 119.925C71.2721 122.575 66.1797 125.648 61.6602 128.361C57.6712 130.862 54.1702 132.961 50.0538 133.957ZM140.783 101.93C137.282 109.921 132.317 117.255 126.015 123.613C112.499 137.2 94.4424 144.618 73.7971 145.106C73.0969 145.127 72.3967 145.127 71.7177 145.127C59.0079 145.127 47.6986 142.35 37.1956 136.649C37.1319 136.628 37.0895 136.585 37.0258 136.564C37.1531 136.628 37.2592 136.691 37.3866 136.755C42.9669 139.574 48.6322 141.524 54.7219 142.69C59.305 143.559 64.1428 144.004 69.3837 144.004C70.9326 144.004 72.5027 143.961 74.1153 143.898C84.6608 143.41 94.3151 141.46 102.845 138.111C107.195 136.394 111.353 134.275 115.173 131.816C119.056 129.315 122.726 126.39 126.058 123.126C129.262 119.989 132.19 116.492 134.736 112.761C137.049 109.349 139.086 105.703 140.783 101.93ZM73.5 0.254349C73.8183 0.254349 74.1366 0.254349 74.4548 0.254349H74.476C74.4973 0.254349 74.5185 0.254349 74.5185 0.254349C74.5397 0.254349 74.5397 0.254349 74.5609 0.254349C74.5821 0.254349 74.6246 0.254349 74.6458 0.254349C74.8792 0.254349 75.1338 0.254349 75.3672 0.275544H75.3884C75.4521 0.275544 75.4945 0.275544 75.5582 0.275544C75.8128 0.275544 76.0674 0.29674 76.322 0.29674C76.3645 0.29674 76.3857 0.29674 76.4281 0.29674C76.704 0.317936 76.9798 0.317936 77.2556 0.339131C77.2769 0.339131 77.2768 0.339131 77.2981 0.339131C81.0113 0.529893 84.6608 0.996199 88.2255 1.71685C88.3528 1.73805 88.4801 1.75924 88.5862 1.80164C88.7347 1.84403 88.9045 1.86522 89.053 1.90761C89.0742 1.90761 89.0742 1.90761 89.0954 1.90761C89.2015 1.92881 89.3076 1.95001 89.4137 1.9712C89.5834 2.01359 89.732 2.03479 89.9017 2.07718C89.9229 2.07718 89.9654 2.09838 89.9866 2.09838C90.0715 2.11957 90.1563 2.14077 90.2412 2.16196C90.4109 2.20435 90.5807 2.24675 90.7504 2.28914C90.7929 2.28914 90.8353 2.31033 90.8777 2.31033C90.9414 2.33153 91.0051 2.33153 91.0687 2.35272C91.2385 2.39512 91.4294 2.43751 91.5992 2.4799C91.6628 2.50109 91.7265 2.50109 91.7689 2.52229C91.8113 2.52229 91.8326 2.54349 91.875 2.54349C92.066 2.58588 92.2357 2.64946 92.4267 2.69186C92.5116 2.71305 92.5752 2.73425 92.6601 2.75544H92.6813C92.8723 2.79783 93.0632 2.86142 93.2542 2.90381C93.3603 2.92501 93.4452 2.9674 93.5512 2.9886C93.721 3.03099 93.8907 3.09457 94.0817 3.13697C94.209 3.17936 94.3151 3.20055 94.4424 3.24294C94.5909 3.28534 94.7395 3.32773 94.888 3.39131C95.0365 3.43371 95.1638 3.4761 95.3124 3.51849C95.4397 3.56088 95.567 3.60327 95.6943 3.64566C95.864 3.68805 96.0126 3.75164 96.1823 3.79403C96.2884 3.83642 96.3945 3.85762 96.5006 3.90001C96.6915 3.9636 96.8825 4.02719 97.0735 4.09077C97.1583 4.11197 97.222 4.15436 97.3069 4.17556C97.4978 4.23914 97.71 4.32393 97.901 4.38751C97.9222 4.38751 97.9222 4.40871 97.9434 4.40871C97.9859 4.4299 98.0283 4.4511 98.0919 4.4511C98.3041 4.51469 98.4951 4.59947 98.7073 4.68425C98.7497 4.70545 98.7922 4.70545 98.8346 4.72664C98.8558 4.72664 98.8558 4.74784 98.877 4.74784C99.0892 4.83262 99.3014 4.89621 99.4924 4.98099C99.556 5.00219 99.6197 5.02338 99.6833 5.06578C99.8743 5.15056 100.065 5.21415 100.277 5.29893C100.362 5.34132 100.468 5.36252 100.553 5.40491C100.723 5.46849 100.893 5.55328 101.063 5.61686C101.169 5.65926 101.296 5.70165 101.402 5.76523C101.551 5.82882 101.678 5.89241 101.826 5.956C101.975 6.01958 102.102 6.08317 102.251 6.14676C102.357 6.18915 102.484 6.25274 102.59 6.29513C102.76 6.35872 102.93 6.4435 103.099 6.52828C103.184 6.57067 103.269 6.61306 103.354 6.65545C103.545 6.74024 103.736 6.82502 103.948 6.931C104.012 6.95219 104.054 6.99459 104.118 7.01578C104.33 7.12176 104.542 7.22774 104.754 7.31252C104.754 7.31252 104.776 7.31252 104.776 7.33372C104.797 7.35491 104.818 7.35491 104.839 7.37611C105.052 7.48209 105.285 7.58807 105.497 7.69404C105.54 7.71524 105.582 7.73644 105.624 7.75763C105.837 7.86361 106.049 7.96959 106.261 8.07557C106.325 8.11796 106.388 8.13915 106.452 8.18155C106.643 8.26633 106.813 8.37231 107.004 8.45709C107.088 8.49948 107.195 8.56307 107.279 8.60546C107.428 8.69024 107.577 8.77503 107.746 8.85981C107.874 8.9234 107.98 8.98698 108.107 9.05057C108.234 9.11416 108.362 9.17774 108.468 9.26253C108.616 9.34731 108.765 9.43209 108.913 9.51688C108.998 9.55927 109.104 9.62286 109.189 9.68644C109.359 9.79242 109.55 9.8984 109.72 9.98318C109.783 10.0256 109.847 10.068 109.911 10.0892C110.123 10.2163 110.314 10.3223 110.526 10.4495C110.568 10.4707 110.59 10.4919 110.632 10.5131C110.844 10.6402 111.056 10.7674 111.29 10.9158C111.311 10.937 111.332 10.937 111.353 10.9582C111.566 11.0854 111.778 11.2337 111.99 11.3609C112.032 11.4033 112.096 11.4245 112.138 11.4669C112.329 11.5941 112.52 11.7 112.69 11.8272C112.775 11.8696 112.839 11.9332 112.924 11.9756C113.072 12.0816 113.242 12.1875 113.39 12.2935C113.496 12.3571 113.602 12.4419 113.709 12.5055C113.836 12.5903 113.963 12.675 114.091 12.7598C114.218 12.8446 114.366 12.9506 114.494 13.0354C114.6 13.099 114.685 13.1837 114.791 13.2473C114.96 13.3533 115.109 13.4805 115.279 13.5865C115.342 13.6288 115.427 13.6924 115.491 13.7348C115.682 13.862 115.873 14.0104 116.064 14.1375C116.106 14.1587 116.149 14.2011 116.191 14.2223C116.403 14.3707 116.615 14.5403 116.828 14.6886C116.849 14.6886 116.849 14.7098 116.87 14.7098C117.082 14.8794 117.294 15.0278 117.507 15.1973C117.528 15.2185 117.57 15.2397 117.592 15.2609C117.782 15.4093 117.973 15.5577 118.186 15.7272C118.249 15.7696 118.292 15.812 118.355 15.8544C118.525 15.9816 118.695 16.1299 118.865 16.2571C118.949 16.3207 119.034 16.3843 119.119 16.4479C119.268 16.5539 119.395 16.681 119.544 16.787C119.65 16.8718 119.756 16.9566 119.862 17.0626C119.968 17.1685 120.095 17.2533 120.201 17.3593C120.329 17.4653 120.477 17.5924 120.605 17.6984C120.689 17.7832 120.774 17.8468 120.859 17.9316C121.008 18.0588 121.177 18.2071 121.326 18.3343C121.39 18.3979 121.453 18.4403 121.517 18.5039C121.708 18.6734 121.878 18.8218 122.069 18.9914C122.111 19.0338 122.132 19.0549 122.175 19.0973C122.387 19.2881 122.578 19.4789 122.79 19.6696C122.811 19.6696 122.811 19.6908 122.832 19.6908C124.212 20.9838 125.57 22.3403 126.864 23.7392C128.54 25.562 130.11 27.4485 131.596 29.3985C131.638 29.462 131.702 29.5256 131.744 29.5892C131.871 29.7588 131.999 29.9284 132.126 30.0979C132.232 30.2463 132.338 30.3735 132.444 30.5218C132.508 30.6066 132.572 30.6914 132.635 30.7974C132.805 31.0305 132.954 31.2425 133.123 31.4756C137.537 37.7284 140.974 44.5534 143.266 51.5268C145.26 57.6523 146.406 63.9687 146.576 70.179C146.576 70.2426 146.576 70.3062 146.576 70.3698C146.576 70.4546 146.576 70.5393 146.576 70.6241C146.576 70.7725 146.576 70.8997 146.576 71.048C146.576 71.1752 146.576 71.3236 146.576 71.4508V71.472C146.576 71.5991 146.576 71.7263 146.576 71.8323C146.576 71.8959 146.576 71.9807 146.576 72.0442C146.576 72.4681 146.554 72.8709 146.533 73.2948C146.512 73.6127 146.512 73.9307 146.491 74.2486C146.491 74.3546 146.47 74.4394 146.47 74.5453C146.47 74.6089 146.47 74.6725 146.448 74.7361C146.406 75.1176 146.385 75.5203 146.342 75.9019C145.027 87.4747 137.303 103.477 123.49 111.32C116.085 115.517 110.483 115.283 104.012 115.008C102.336 114.944 100.574 114.86 98.7285 114.86C93.4027 114.86 87.2282 115.474 79.0167 118.484C71.2084 121.367 66.0312 124.758 61.4693 127.747C55.9101 131.413 51.4118 134.36 44.5371 134.36C43.9006 134.36 43.2428 134.338 42.585 134.275C32.5064 133.491 25.5043 127.556 21.3243 123.995C20.3907 123.211 19.4996 122.384 18.6508 121.557C18.6084 121.515 18.5872 121.494 18.5447 121.451C18.5235 121.43 18.5023 121.409 18.4811 121.388C18.375 121.282 18.2689 121.176 18.1628 121.07C17.7809 120.688 17.4202 120.286 17.0595 119.904C17.017 119.862 16.9746 119.798 16.9109 119.756C16.8897 119.735 16.8685 119.713 16.8473 119.671C16.7624 119.586 16.6988 119.501 16.6139 119.417C16.529 119.332 16.4441 119.226 16.3805 119.141C16.3593 119.12 16.3593 119.12 16.338 119.099C16.232 118.972 16.1259 118.844 16.0198 118.717C15.9349 118.632 15.8712 118.548 15.7864 118.442C15.5105 118.103 15.2347 117.742 14.9589 117.403L14.9376 117.382C14.8528 117.255 14.7467 117.149 14.6618 117.022C14.6194 116.979 14.5982 116.937 14.5557 116.873C9.76039 110.472 6.34426 103.329 4.03147 96.3345C3.75563 95.4655 3.50101 94.6177 3.24639 93.791C2.31279 90.5057 1.65502 87.4323 1.18822 84.6981C1.18822 84.6769 1.18822 84.6769 1.18822 84.6557C1.18822 84.6345 1.18822 84.5921 1.167 84.5709C0.297055 79.2932 0.169746 75.3084 0.148528 73.8035C0.148528 73.6763 0.148528 73.5491 0.148528 73.422C0.148528 72.4681 0.169746 71.5355 0.212182 70.6029C1.52771 38.4278 23.6583 11.5093 53.47 3.03099C54.637 2.69186 55.804 2.39512 56.971 2.11957C57.5651 1.9924 58.1592 1.84403 58.7533 1.73805C59.3474 1.61087 59.9415 1.5049 60.5569 1.39892C61.151 1.29294 61.7663 1.18696 62.3604 1.10218C63.2728 0.953807 64.1852 0.847829 65.0976 0.74185C66.3282 0.59348 67.5589 0.487501 68.7896 0.402719C70.3597 0.29674 71.9299 0.254349 73.5 0.254349ZM37.4926 137.115C42.8609 139.977 48.5473 142.117 54.4248 143.474C59.8991 144.746 65.7129 145.381 71.7601 145.381C72.4391 145.381 73.1181 145.381 73.7971 145.36C84.1091 145.127 93.8483 143.135 102.739 139.468C111.587 135.822 119.459 130.544 126.164 123.804C129.368 120.582 132.275 117.022 134.821 113.249C136.136 111.278 137.367 109.222 138.492 107.123C126.27 130.566 101.72 146.611 73.4788 146.611C60.4296 146.59 48.123 143.156 37.4926 137.115Z" fill="url(#paint1_linear_28_1774)"/>
</g>
<defs>
<linearGradient id="paint0_linear_28_1774" x1="73.5011" y1="147.912" x2="73.5011" y2="1.46512" gradientUnits="userSpaceOnUse">
<stop stop-color="#EEC65F"/>
<stop offset="0.3101" stop-color="#AB8935"/>
<stop offset="0.662" stop-color="#EEC65F"/>
<stop offset="1" stop-color="#8A702B"/>
</linearGradient>
<linearGradient id="paint1_linear_28_1774" x1="73.9888" y1="143.517" x2="72.9874" y2="-0.554004" gradientUnits="userSpaceOnUse">
<stop stop-color="#EEC65F"/>
<stop offset="0.3101" stop-color="#AB8935"/>
<stop offset="0.662" stop-color="#EEC65F"/>
<stop offset="1" stop-color="#8A702B"/>
</linearGradient>
<clipPath id="clip0_28_1774">
<rect width="147" height="184" fill="white"/>
</clipPath>
</defs>
</svg>
