<svg width="18" height="18" viewBox="0 0 18 18" fill="none" xmlns="http://www.w3.org/2000/svg">
<path d="M11.8978 10.8265C11.9926 10.7634 12.1017 10.725 12.2151 10.7147C12.3286 10.7043 12.4428 10.7225 12.5475 10.7675L16.5843 12.5762C16.7204 12.6343 16.8339 12.735 16.908 12.863C16.9821 12.9911 17.0127 13.1397 16.9952 13.2867C16.8622 14.2805 16.3728 15.1922 15.618 15.8523C14.8631 16.5123 13.8943 16.8758 12.8916 16.875C9.80403 16.875 6.84295 15.6485 4.65974 13.4653C2.47652 11.282 1.25 8.32097 1.25 5.23343C1.24923 4.23072 1.61267 3.26186 2.27271 2.50703C2.93276 1.75219 3.84449 1.26277 4.83834 1.12978C4.98526 1.11233 5.13388 1.14293 5.26195 1.21699C5.39003 1.29106 5.49067 1.40462 5.54882 1.54066L7.35754 5.58097C7.40198 5.68474 7.42008 5.79789 7.41022 5.91035C7.40037 6.0228 7.36286 6.13108 7.30105 6.22553L5.47178 8.40062C5.40689 8.49854 5.36852 8.61161 5.36042 8.72879C5.35232 8.84597 5.37476 8.96325 5.42556 9.06916C6.13347 10.5184 7.63146 11.9984 9.08494 12.6994C9.19141 12.75 9.30923 12.772 9.42677 12.7631C9.54431 12.7542 9.6575 12.7149 9.75519 12.6489L11.8978 10.8265Z" stroke="#C56D1C" stroke-width="2" stroke-linecap="round" stroke-linejoin="round"/>
</svg>
