<svg width="15" height="15" viewBox="0 0 15 15" fill="none" xmlns="http://www.w3.org/2000/svg">
<g clip-path="url(#clip0_71_5)">
<path d="M3.5625 5.625C3.5625 7.79962 5.32538 9.5625 7.5 9.5625C9.67462 9.5625 11.4375 7.79962 11.4375 5.625C11.4375 3.45038 9.67462 1.6875 7.5 1.6875C5.32538 1.6875 3.5625 3.45038 3.5625 5.625Z" stroke="#C56D1C" stroke-width="1.5" stroke-linecap="round" stroke-linejoin="round"/>
<mask id="path-2-inside-1_71_5" fill="white">
<path d="M14.5312 14.5312C13.1125 12.0098 10.5359 10.3125 7.5 10.3125C4.46411 10.3125 1.88745 12.0098 0.46875 14.5312"/>
</mask>
<path d="M15.8385 13.7957C16.2448 14.5177 15.9888 15.4323 15.2668 15.8385C14.5448 16.2448 13.6302 15.9888 13.224 15.2668L15.8385 13.7957ZM1.77603 15.2668C1.3698 15.9888 0.455198 16.2448 -0.266792 15.8385C-0.988782 15.4323 -1.24476 14.5177 -0.838529 13.7957L1.77603 15.2668ZM13.224 15.2668C12.0446 13.1707 9.94231 11.8125 7.5 11.8125V8.8125C11.1295 8.8125 14.1805 10.8489 15.8385 13.7957L13.224 15.2668ZM7.5 11.8125C5.05769 11.8125 2.9554 13.1707 1.77603 15.2668L-0.838529 13.7957C0.819501 10.8489 3.87053 8.8125 7.5 8.8125V11.8125Z" fill="#C56D1C" mask="url(#path-2-inside-1_71_5)"/>
</g>
<defs>
<clipPath id="clip0_71_5">
<rect width="15" height="15" fill="white" transform="matrix(-1 0 0 1 15 0)"/>
</clipPath>
</defs>
</svg>
