<svg width="15" height="15" viewBox="0 0 15 15" fill="none" xmlns="http://www.w3.org/2000/svg">
<path d="M8.90625 2.625H8.15625V1.125H8.90625V2.625ZM12.6562 1.875V1.125C13.0705 1.125 13.4062 1.46079 13.4062 1.875L12.6562 1.875ZM12.6562 13.125H13.4062C13.4062 13.5392 13.0705 13.875 12.6562 13.875V13.125ZM8.90625 13.875C8.49204 13.875 8.15625 13.5392 8.15625 13.125C8.15625 12.7108 8.49204 12.375 8.90625 12.375V13.875ZM8.90625 1.125H12.6562V2.625H8.90625V1.125ZM13.4062 1.875V13.125H11.9062V1.875H13.4062ZM12.6562 13.875H8.90625V12.375H12.6562V13.875Z" fill="#C56D1C"/>
<path d="M8.90625 6.75H9.65625V8.25H8.90625V6.75ZM1.40625 8.25C0.992037 8.25 0.65625 7.91421 0.65625 7.5C0.65625 7.08579 0.992037 6.75 1.40625 6.75V8.25ZM8.90625 8.25H1.40625V6.75H8.90625V8.25Z" fill="#C56D1C"/>
<path d="M3.68842 4.15717L4.21875 3.62684L5.27941 4.6875L4.74908 5.21783L3.68842 4.15717ZM1.40625 7.5L0.87592 8.03033C0.583027 7.73744 0.583027 7.26256 0.87592 6.96967L1.40625 7.5ZM4.74908 9.78217C5.04197 10.0751 5.04197 10.5499 4.74908 10.8428C4.45619 11.1357 3.98131 11.1357 3.68842 10.8428L4.74908 9.78217ZM4.74908 5.21783L1.93658 8.03033L0.87592 6.96967L3.68842 4.15717L4.74908 5.21783ZM1.93658 6.96967L4.74908 9.78217L3.68842 10.8428L0.87592 8.03033L1.93658 6.96967Z" fill="#C56D1C"/>
</svg>
