<svg width="243" height="243" viewBox="0 0 243 243" fill="none" xmlns="http://www.w3.org/2000/svg">
<path d="M243 185.846H0V185.968H243V185.846Z" fill="#EBEBEB"/>
<path d="M218.651 193.666H202.555V193.788H218.651V193.666Z" fill="#EBEBEB"/>
<path d="M160.973 194.988H156.75V195.11H160.973V194.988Z" fill="#EBEBEB"/>
<path d="M202.069 189.156H192.743V189.278H202.069V189.156Z" fill="#EBEBEB"/>
<path d="M46.4859 189.973H25.4956V190.094H46.4859V189.973Z" fill="#EBEBEB"/>
<path d="M53.8923 189.973H50.8159V190.094H53.8923V189.973Z" fill="#EBEBEB"/>
<path d="M109.423 192.023H63.8945V192.145H109.423V192.023Z" fill="#EBEBEB"/>
<path d="M115.182 164.171H21.34C20.6049 164.17 19.9003 163.877 19.3809 163.356C18.8615 162.836 18.5698 162.131 18.5698 161.396V29.4808C18.5762 28.7498 18.8708 28.0509 19.3894 27.5359C19.9081 27.0209 20.6091 26.7313 21.34 26.73H115.182C115.918 26.73 116.624 27.0224 117.144 27.5428C117.664 28.0632 117.957 28.7691 117.957 29.5051V161.396C117.957 162.132 117.664 162.838 117.144 163.358C116.624 163.878 115.918 164.171 115.182 164.171ZM21.34 26.8272C20.6371 26.8285 19.9634 27.1086 19.4668 27.6061C18.9702 28.1036 18.6913 28.7778 18.6913 29.4808V161.396C18.6913 162.099 18.9702 162.773 19.4668 163.27C19.9634 163.768 20.6371 164.048 21.34 164.049H115.182C115.885 164.048 116.559 163.768 117.057 163.271C117.554 162.773 117.834 162.099 117.835 161.396V29.4808C117.834 28.7774 117.554 28.1032 117.057 27.6058C116.559 27.1085 115.885 26.8285 115.182 26.8272H21.34Z" fill="#EBEBEB"/>
<path d="M220.309 164.171H126.462C125.726 164.17 125.021 163.877 124.501 163.357C123.981 162.836 123.688 162.131 123.687 161.396V29.4808C123.695 28.7494 123.99 28.0505 124.51 27.5356C125.029 27.0207 125.731 26.7312 126.462 26.73H220.309C221.039 26.7325 221.738 27.0227 222.256 27.5376C222.774 28.0525 223.068 28.7507 223.074 29.4808V161.396C223.074 162.13 222.783 162.834 222.265 163.355C221.746 163.875 221.043 164.168 220.309 164.171ZM126.462 26.8272C125.759 26.8285 125.084 27.1085 124.587 27.6058C124.09 28.1032 123.81 28.7774 123.809 29.4808V161.396C123.81 162.099 124.09 162.773 124.587 163.271C125.084 163.768 125.759 164.048 126.462 164.049H220.309C221.012 164.048 221.686 163.768 222.184 163.271C222.681 162.773 222.961 162.099 222.962 161.396V29.4808C222.961 28.7774 222.681 28.1032 222.184 27.6058C221.686 27.1085 221.012 26.8285 220.309 26.8272H126.462Z" fill="#EBEBEB"/>
<path d="M29.5779 95.6885H65.2114L65.2114 36.7708L29.5779 36.7708L29.5779 95.6885Z" fill="#F5F5F5"/>
<path d="M29.5729 36.7659H28.8682V95.6837H29.5729V36.7659Z" fill="#E0E0E0"/>
<path d="M33.1939 93.0933H61.6006L61.6006 39.3611H33.1939L33.1939 93.0933Z" fill="#FAFAFA"/>
<path d="M73.6194 116.368H109.253L109.253 57.4501L73.6194 57.4501V116.368Z" fill="#F5F5F5"/>
<path d="M73.6192 57.4549H72.9146V116.373H73.6192V57.4549Z" fill="#E0E0E0"/>
<path d="M77.2349 113.777H105.642V60.0453H77.2349V113.777Z" fill="#FAFAFA"/>
<path d="M50.641 170.62C51.5255 154.582 49.183 128.824 46.6509 119.886C46.3156 118.705 45.9365 117.335 45.3582 117.155C43.7058 116.63 42.9622 119.221 43.1663 120.115C44.1383 124.421 45.0471 135.108 45.9365 153.697C46.3788 162.931 45.9365 169.288 47.1224 170.625L50.641 170.62Z" fill="#E6E6E6"/>
<path d="M48.007 134.875C50.3301 127.366 80.083 119.653 71.5051 127.731C69.3716 129.743 59.4378 135.045 55.3602 140.619C52.1915 144.949 48.9888 152.235 48.1431 156.273C47.7738 147.778 46.4616 139.881 48.007 134.875Z" fill="#E6E6E6"/>
<path d="M51.3945 144.395C56.5752 132.97 73.143 130.919 68.6912 136.95C66.9416 139.317 60.5264 142.019 56.444 147.593C53.2753 151.924 50.0725 159.204 49.2318 163.247C48.8575 154.747 49.2318 149.168 51.3945 144.395Z" fill="#E6E6E6"/>
<path d="M44.8823 143.423C38.749 128.727 16.5923 127.556 22.4874 134.384C24.7279 136.984 32.5574 141.742 38.472 147.875C43.0695 152.638 48.2503 160.511 50.0145 164.885C48.8724 155.87 47.3561 149.353 44.8823 143.423Z" fill="#E6E6E6"/>
<path d="M47.4579 126.977C52.9497 116.912 69.5709 115.833 64.8227 121.34C62.9613 123.507 56.9057 126.253 52.9497 131.662C49.8733 135.861 46.1797 141.343 45.3584 145.27C44.9987 137.018 45.023 131.444 47.4579 126.977Z" fill="#E6E6E6"/>
<path d="M42.6755 127.176C38.3452 120.917 18.9538 114.035 23.9888 119.702C29.291 125.646 33.0575 124.625 38.0828 129.815C41.9708 133.849 46.3448 140.537 47.8514 144.201C46.8745 136.566 45.7762 131.648 42.6755 127.176Z" fill="#E6E6E6"/>
<path d="M47.8222 119.969C50.573 115.022 61.9162 111.381 58.9565 115.177C56.891 117.811 54.4124 119.619 51.7831 123.206C49.7468 125.995 46.9766 129.5 46.4371 132.1C46.1941 126.632 46.1698 122.919 47.8222 119.969Z" fill="#E6E6E6"/>
<path d="M43.3465 121.466C40.5763 118.394 25.7582 111.104 29.1602 115.785C30.487 117.627 36.1392 122.103 39.9445 126.059C42.9043 129.12 46.1508 131.619 47.2831 134.403C46.5347 128.615 46.1216 124.533 43.3465 121.466Z" fill="#E6E6E6"/>
<path d="M47.1419 132.245C43.0935 127.765 13.5787 121.991 21.1652 126.938C23.7604 128.63 35.1717 131.536 40.7364 137.305C45.0569 141.781 46.6121 149.207 48.2694 153.275C52.6337 146.126 51.1951 136.731 47.1419 132.245Z" fill="#E6E6E6"/>
<path d="M42.0876 169.969L42.4667 183.378C42.5056 185.924 43.0985 185.846 43.8178 185.846H53.358C54.0724 185.846 54.6653 185.924 54.7091 183.378L55.0881 169.969C55.1319 167.208 54.5147 164.88 53.7371 164.88H43.4387C42.6611 164.88 42.0439 167.208 42.0876 169.969Z" fill="#F5F5F5"/>
<path d="M41.5191 167.325H55.6569C55.7496 167.331 55.8413 167.303 55.9152 167.247C55.9892 167.19 56.0407 167.11 56.0602 167.019L56.3956 164.453C56.3979 164.4 56.3889 164.347 56.3692 164.298C56.3494 164.249 56.3195 164.205 56.2812 164.169C56.243 164.133 56.1974 164.105 56.1476 164.088C56.0977 164.07 56.0447 164.064 55.9922 164.069H41.1789C41.1266 164.065 41.0739 164.072 41.0244 164.089C40.9749 164.107 40.9297 164.135 40.8916 164.171C40.8536 164.207 40.8236 164.251 40.8036 164.299C40.7836 164.348 40.774 164.4 40.7755 164.453L41.1109 167.019C41.1315 167.11 41.1839 167.191 41.2587 167.247C41.3335 167.303 41.4258 167.331 41.5191 167.325Z" fill="#F5F5F5"/>
<path d="M141.363 110.594H130.661V182.6H141.363V110.594Z" fill="#F0F0F0"/>
<path d="M213.84 182.6H132.717V185.846H213.84V182.6Z" fill="#F0F0F0"/>
<path d="M141.363 182.6H215.896V110.594L141.363 110.594V182.6Z" fill="#F5F5F5"/>
<path d="M140.255 107.761H129.315V110.594H140.255V107.761Z" fill="#F0F0F0"/>
<path d="M140.255 110.594L217.242 110.594V107.761L140.255 107.761V110.594Z" fill="#FAFAFA"/>
<path d="M211.993 144.59H145.266V116.591H211.993V144.59ZM145.897 143.977H211.381V117.204H145.878L145.897 143.977Z" fill="#E0E0E0"/>
<path d="M211.993 176.603H145.266V148.993H211.993V176.603ZM145.897 175.99H211.381V149.605H145.878L145.897 175.99Z" fill="#E0E0E0"/>
<path d="M191.62 122.098H165.639C165.334 122.097 165.041 121.975 164.826 121.759C164.61 121.543 164.488 121.251 164.487 120.946C164.488 120.641 164.61 120.349 164.826 120.133C165.041 119.917 165.334 119.795 165.639 119.794H191.62C191.925 119.795 192.218 119.917 192.433 120.133C192.649 120.349 192.771 120.641 192.772 120.946C192.771 121.251 192.649 121.543 192.433 121.759C192.218 121.975 191.925 122.097 191.62 122.098Z" fill="#E0E0E0"/>
<path d="M191.625 152.196H165.639C165.003 152.196 164.487 152.711 164.487 153.348C164.487 153.984 165.003 154.499 165.639 154.499H191.625C192.261 154.499 192.777 153.984 192.777 153.348C192.777 152.711 192.261 152.196 191.625 152.196Z" fill="#E0E0E0"/>
<path d="M175.159 107.732H206.069L208.577 80.1706H177.667L175.159 107.732Z" fill="#E6E6E6"/>
<path d="M174.109 107.732H205.019L207.527 80.1706H176.617L174.109 107.732Z" fill="#F0F0F0"/>
<path d="M202.244 104.68L204.198 83.2226H179.392L177.438 104.68H202.244Z" fill="white"/>
<path d="M168.001 87.6064L166.168 107.732H180.982L182.814 87.6064H168.001Z" fill="#E6E6E6"/>
<path d="M167.233 87.6064L165.4 107.732H180.214L182.046 87.6064H167.233Z" fill="#F0F0F0"/>
<path d="M169.259 89.8322L167.831 105.506H178.192L179.616 89.8322H169.259Z" fill="white"/>
<path d="M121.5 207.794C173.542 207.794 215.731 205.331 215.731 202.293C215.731 199.254 173.542 196.791 121.5 196.791C69.458 196.791 27.2695 199.254 27.2695 202.293C27.2695 205.331 69.458 207.794 121.5 207.794Z" fill="#F5F5F5"/>
<path d="M144.012 55.2679C143.564 54.1348 142.893 53.1038 142.037 52.2368C141.181 51.3697 140.159 50.6846 139.032 50.2225C137.905 49.7604 136.696 49.5309 135.478 49.5477C134.26 49.5645 133.058 49.8274 131.944 50.3204C127.803 52.1478 125.558 57.4598 127.118 61.7026C127.897 63.8448 129.461 65.6113 131.492 66.6452C132.337 67.0501 133.054 67.6808 133.563 68.4677L134.846 70.5186C135.267 71.1899 135.909 71.6931 136.661 71.9416C137.413 72.19 138.229 72.168 138.967 71.8794L142.204 70.6012C142.94 70.3079 143.551 69.7666 143.93 69.071C144.31 68.3753 144.435 67.5689 144.284 66.791L143.798 64.3318C143.642 63.4612 143.731 62.5643 144.055 61.7414C144.845 59.653 144.829 57.3455 144.012 55.2679Z" fill="#EFC75E"/>
<path d="M139.395 75.9715C139.187 75.9709 138.982 75.9279 138.792 75.8452C138.609 75.7676 138.443 75.6541 138.304 75.5114C138.166 75.3686 138.057 75.1995 137.985 75.0141C137.843 74.6433 137.853 74.2315 138.012 73.8678C138.171 73.504 138.467 73.2175 138.836 73.0701L143.127 71.374C143.498 71.2307 143.91 71.2396 144.274 71.3989C144.638 71.5582 144.925 71.8549 145.071 72.2245C145.148 72.4076 145.188 72.6042 145.188 72.8028C145.188 73.0014 145.148 73.1981 145.071 73.3811C144.911 73.7491 144.613 74.0391 144.24 74.1879L139.968 75.8646C139.786 75.9385 139.591 75.9749 139.395 75.9715ZM143.681 71.7385C143.553 71.7378 143.426 71.7626 143.307 71.8114L138.996 73.5075C138.807 73.5806 138.643 73.7084 138.527 73.8748C138.411 74.0411 138.347 74.2384 138.343 74.4413C138.339 74.6443 138.396 74.8437 138.507 75.0141C138.617 75.1845 138.775 75.3182 138.962 75.398C139.087 75.451 139.22 75.4783 139.356 75.4783C139.491 75.4783 139.625 75.451 139.749 75.398L144.041 73.7068C144.166 73.6568 144.279 73.5825 144.375 73.4882C144.471 73.394 144.548 73.2816 144.6 73.1576C144.654 73.0343 144.682 72.9011 144.682 72.7664C144.682 72.6317 144.654 72.4984 144.6 72.3751C144.522 72.1812 144.388 72.0152 144.214 71.899C144.041 71.7828 143.836 71.7217 143.628 71.7239L143.681 71.7385Z" fill="#263238"/>
<path d="M141.582 78.5862C141.452 78.5848 141.323 78.5584 141.203 78.5084C140.981 78.4028 140.807 78.217 140.717 77.9884L140.644 77.7989C140.598 77.684 140.576 77.5613 140.578 77.4377C140.58 77.3142 140.606 77.1922 140.655 77.0788C140.704 76.9655 140.776 76.863 140.865 76.7772C140.954 76.6914 141.059 76.6241 141.174 76.579L143.852 75.5195C144.085 75.4349 144.341 75.4426 144.569 75.5411C144.797 75.6395 144.978 75.8214 145.076 76.0493L145.149 76.2388C145.239 76.471 145.233 76.729 145.134 76.9573C145.035 77.1855 144.85 77.3656 144.619 77.4587L141.912 78.5182C141.807 78.5609 141.695 78.584 141.582 78.5862ZM144.182 75.9375C144.125 75.9391 144.069 75.9506 144.017 75.9715L141.339 77.031C141.283 77.0525 141.232 77.0848 141.189 77.126C141.146 77.1673 141.112 77.2167 141.088 77.2714C141.064 77.326 141.051 77.3849 141.05 77.4446C141.049 77.5043 141.059 77.5636 141.081 77.6191L141.154 77.8086C141.176 77.8645 141.209 77.9155 141.251 77.9586C141.292 78.0018 141.342 78.0364 141.397 78.0603C141.452 78.0842 141.512 78.097 141.572 78.0981C141.632 78.0991 141.691 78.0882 141.747 78.0662L144.425 77.0067C144.481 76.9848 144.532 76.9521 144.576 76.9104C144.619 76.8687 144.654 76.8189 144.678 76.7637C144.701 76.7091 144.712 76.6504 144.712 76.5912C144.712 76.5319 144.701 76.4733 144.678 76.4186L144.605 76.2291C144.569 76.1459 144.51 76.0744 144.435 76.0229C144.36 75.9714 144.273 75.9418 144.182 75.9375Z" fill="#263238"/>
<path d="M133.607 63.8896C133.275 63.8902 132.95 63.8004 132.666 63.6299C132.382 63.4594 132.149 63.2147 131.994 62.922C131.838 62.6293 131.766 62.2998 131.783 61.9689C131.801 61.638 131.909 61.3182 132.095 61.0439C132.281 60.7697 132.538 60.5514 132.839 60.4124C133.14 60.2735 133.473 60.2193 133.803 60.2555C134.132 60.2917 134.445 60.4171 134.709 60.6182C134.972 60.8192 135.176 61.0882 135.298 61.3964L135.969 63.0925L134.272 63.7583C134.061 63.8443 133.835 63.8888 133.607 63.8896ZM133.607 60.7306C133.409 60.7285 133.213 60.7703 133.034 60.8529C132.854 60.9356 132.695 61.0571 132.568 61.2086C132.441 61.3601 132.349 61.5379 132.299 61.7292C132.249 61.9205 132.242 62.1205 132.279 62.3148C132.316 62.5091 132.395 62.6928 132.511 62.8527C132.627 63.0126 132.778 63.1448 132.951 63.2396C133.125 63.3345 133.317 63.3897 133.514 63.4012C133.712 63.4127 133.909 63.3803 134.093 63.3064L135.337 62.8204L134.851 61.5811C134.75 61.3331 134.577 61.1211 134.354 60.9729C134.132 60.8247 133.869 60.747 133.602 60.75L133.607 60.7306Z" fill="white"/>
<path d="M138.981 72.0446L135.341 62.8155L138.69 61.4936L142.33 70.7227L141.878 70.9025L138.413 62.1254L135.968 63.0925L139.433 71.8648L138.981 72.0446Z" fill="white"/>
<path d="M138.413 62.1254L137.747 60.4292C137.614 60.0939 137.584 59.7268 137.66 59.3743C137.736 59.0218 137.915 58.6998 138.174 58.4491C138.433 58.1983 138.761 58.03 139.116 57.9656C139.471 57.9011 139.837 57.9434 140.167 58.087C140.498 58.2306 140.779 58.4691 140.974 58.7723C141.169 59.0756 141.27 59.4299 141.264 59.7904C141.258 60.151 141.145 60.5015 140.939 60.7978C140.733 61.0941 140.444 61.3227 140.109 61.4547L138.413 62.1254ZM139.438 58.4221C139.272 58.4243 139.107 58.4573 138.952 58.5193C138.789 58.5836 138.64 58.6795 138.514 58.8017C138.387 58.9238 138.287 59.0698 138.217 59.231C138.147 59.3923 138.11 59.5657 138.108 59.7413C138.106 59.917 138.138 60.0913 138.204 60.2543L138.69 61.4936L139.929 61.0076C140.219 60.8939 140.46 60.6827 140.61 60.4105C140.761 60.1382 140.812 59.8219 140.754 59.5161C140.697 59.2103 140.534 58.9341 140.295 58.7353C140.056 58.5365 139.754 58.4274 139.443 58.4269L139.438 58.4221Z" fill="white"/>
<path d="M145.961 85.2881C144.136 85.2906 142.313 85.1427 140.513 84.8459L140.595 84.3599C142.362 84.6516 144.15 84.7979 145.941 84.7973L145.961 85.2881Z" fill="#EFC75E"/>
<path d="M156.006 90.3231L156.264 89.7982C157.16 87.8028 157.34 85.5592 156.774 83.4462C154.883 84.124 152.93 84.6124 150.942 84.9042L150.869 84.4182C152.906 84.1134 154.906 83.5988 156.837 82.8824L157.08 82.795L157.153 83.038C157.77 85.1468 157.69 87.3984 156.925 89.458C162.898 87.0815 169.133 78.6445 169.133 68.594C169.133 59.6711 158.728 52.4102 145.936 52.4102C133.145 52.4102 122.744 59.6711 122.744 68.594C122.744 75.0821 128.27 80.9287 136.838 83.4851L136.697 83.9711C127.949 81.3515 122.273 75.3251 122.273 68.6135C122.273 59.4232 132.897 51.9437 145.951 51.9437C159.005 51.9437 169.634 59.4232 169.634 68.6135C169.634 79.1791 162.83 88.0097 156.56 90.1336L156.006 90.3231Z" fill="#EFC75E"/>
<path d="M169.498 56.0475L153.308 58.9401C152.146 59.1478 151.372 60.2587 151.579 61.4213L153.302 71.0663C153.51 72.2289 154.621 73.003 155.784 72.7952L171.974 69.9026C173.136 69.6949 173.91 68.5841 173.702 67.4215L171.979 57.7765C171.772 56.6139 170.661 55.8398 169.498 56.0475Z" fill="#EFC75E"/>
<path d="M165.61 63.9041L159.875 61.8338L160.949 67.831L165.61 63.9041Z" fill="white"/>
<path d="M104.616 144.182H63.3257C62.4695 144.182 61.7754 144.876 61.7754 145.732V147.934C61.7754 148.79 62.4695 149.484 63.3257 149.484H104.616C105.473 149.484 106.167 148.79 106.167 147.934V145.732C106.167 144.876 105.473 144.182 104.616 144.182Z" fill="#EFC75E"/>
<path d="M104.15 199.377H105.379L103.965 149.484H102.259L104.15 199.377Z" fill="#EFC75E"/>
<path opacity="0.3" d="M104.15 199.377H105.379L103.965 149.484H102.259L104.15 199.377Z" fill="white"/>
<path d="M92.8111 199.377H91.5815L93.0007 149.484H94.7017L92.8111 199.377Z" fill="#EFC75E"/>
<path opacity="0.3" d="M92.8111 199.377H91.5815L93.0007 149.484H94.7017L92.8111 199.377Z" fill="white"/>
<path d="M75.1308 199.377H76.3652L74.9461 149.484H73.2402L75.1308 199.377Z" fill="#EFC75E"/>
<path opacity="0.3" d="M75.1308 199.377H76.3652L74.9461 149.484H73.2402L75.1308 199.377Z" fill="white"/>
<path d="M63.7969 199.377H62.5625L63.9816 149.484H65.6826L63.7969 199.377Z" fill="#EFC75E"/>
<path opacity="0.3" d="M63.7969 199.377H62.5625L63.9816 149.484H65.6826L63.7969 199.377Z" fill="white"/>
<path d="M117.277 186.697L121.66 185.215L118.054 174.979L113.675 176.462L117.277 186.697Z" fill="#FFC3BD"/>
<path d="M121.335 183.523L116.533 185.652C116.493 185.666 116.457 185.688 116.427 185.718C116.396 185.747 116.373 185.782 116.358 185.822C116.342 185.861 116.336 185.903 116.338 185.945C116.341 185.987 116.353 186.028 116.373 186.065L118.195 189.768C118.309 189.963 118.489 190.109 118.703 190.181C118.916 190.254 119.148 190.247 119.357 190.162C121.014 189.399 121.757 188.957 123.872 188.029C125.174 187.46 127.794 186.444 129.417 185.399C131.04 184.354 129.767 182.848 128.97 183.149C127.079 183.868 123.935 183.839 122.214 183.47C121.923 183.397 121.615 183.415 121.335 183.523Z" fill="#263238"/>
<path opacity="0.2" d="M113.675 176.467L118.059 174.979L120.115 180.836L115.658 182.109L113.675 176.467Z" fill="black"/>
<path d="M86.2262 130.34C86.2262 130.34 108.096 134.287 109.86 141.47C113.326 155.671 121.14 177.881 121.14 177.881L112.82 180.311C112.82 180.311 100.923 154.84 99.426 146.267C87.1545 146.267 72.21 147.239 70.266 142.048C68.5601 137.441 69.1676 130.36 69.1676 130.36L86.2262 130.34Z" fill="#263238"/>
<path d="M112.363 181.764L122.083 178.556L121.252 174.168L110.652 177.9L112.363 181.764Z" fill="#EFC75E"/>
<path d="M98.2255 188.252L103.066 188.621L100.223 176.676L95.708 177.696L98.2255 188.252Z" fill="#FFC3BD"/>
<path d="M102.944 187.455L97.7295 186.877C97.6875 186.869 97.6444 186.87 97.6031 186.881C97.5617 186.891 97.5231 186.911 97.4899 186.937C97.4567 186.964 97.4296 186.998 97.4106 187.036C97.3916 187.074 97.381 187.116 97.3796 187.159L97.1074 191.28C97.1167 191.503 97.2024 191.716 97.3502 191.883C97.498 192.05 97.6989 192.162 97.919 192.198C99.7318 192.369 100.602 192.354 102.896 192.607C104.305 192.762 107.085 193.195 109.014 193.093C110.944 192.991 110.594 191.051 109.748 190.92C107.751 190.595 105.049 189.001 103.741 187.82C103.521 187.617 103.242 187.49 102.944 187.455Z" fill="#263238"/>
<path opacity="0.2" d="M95.708 177.701L100.223 176.68L101.657 182.717L97.0931 183.518L95.708 177.701Z" fill="black"/>
<path d="M74.8439 130.34C74.8439 130.34 101.433 134.321 100.213 144.386C98.4586 158.898 102.964 179.888 102.964 179.888L94.4345 181.414C94.4345 181.414 88.1651 155.326 88.1165 146.621C79.4657 146.621 64.3511 147.239 62.4169 142.029C60.711 137.421 61.3185 130.34 61.3185 130.34H74.8439Z" fill="#263238"/>
<path d="M93.8465 182.833L103.853 180.656L103.484 176.209L92.5488 178.809L93.8465 182.833Z" fill="#EFC75E"/>
<path d="M88.87 102.371C89.5796 105.151 90.2746 107.955 90.955 110.75C91.6354 113.544 92.3012 116.344 93.0059 119.104L93.5356 121.16L93.8078 122.171L93.9487 122.657V122.72V122.749C93.9487 122.749 93.9487 122.705 93.9244 122.686C93.8877 122.586 93.8422 122.49 93.7883 122.399L93.7154 122.287L93.662 122.214L93.5648 122.108C93.4627 122.01 93.4481 122.025 93.4724 122.049C93.5248 122.103 93.5835 122.15 93.6474 122.19C93.8613 122.334 94.0855 122.463 94.3181 122.574C94.843 122.832 95.4553 123.06 96.0823 123.313C98.6095 124.251 101.399 125.048 104.111 125.908L103.683 129.009C102.191 129.026 100.699 128.968 99.2121 128.834C97.6995 128.709 96.1954 128.498 94.7069 128.202C93.9077 128.047 93.1188 127.842 92.3449 127.59C91.8983 127.447 91.4615 127.275 91.0376 127.074C90.7769 126.953 90.5252 126.813 90.2843 126.656C89.9492 126.443 89.6408 126.19 89.3657 125.903C89.2783 125.806 89.1956 125.714 89.0984 125.587L88.9624 125.403L88.8263 125.174C88.7261 125.003 88.64 124.824 88.5687 124.64L88.4909 124.416L88.3014 123.881L87.9369 122.822C87.6988 122.117 87.4509 121.413 87.2516 120.713C86.372 117.904 85.5701 115.109 84.8216 112.295C84.0732 109.481 83.3636 106.672 82.7124 103.824L88.87 102.371Z" fill="#FFC3BD"/>
<path d="M82.0368 99.0079C84.7049 96.0336 88.9331 98.1137 90.7167 104.772C91.5818 108.009 91.3097 109.7 91.3097 109.7L82.1048 112.538C80.1268 108.164 78.4064 103.061 82.0368 99.0079Z" fill="#EFC75E"/>
<g opacity="0.2">
<path d="M82.0368 99.0079C84.7049 96.0336 88.9331 98.1137 90.7167 104.772C91.5818 108.009 91.3097 109.7 91.3097 109.7L82.1048 112.538C80.1268 108.164 78.4064 103.061 82.0368 99.0079Z" fill="black"/>
</g>
<path d="M108.937 124.659L108.11 124.406C107.61 124.255 107.084 124.207 106.565 124.265L104.791 124.474C104.219 124.61 103.682 124.865 103.216 125.223C102.749 125.58 102.364 126.033 102.084 126.55L101.481 127.726C101.783 129.893 106.176 129.184 106.176 129.184H110.322L110.186 126.239C110.165 125.879 110.034 125.534 109.81 125.252C109.587 124.969 109.282 124.762 108.937 124.659Z" fill="#FFC3BD"/>
<path d="M111.78 119.916C111.662 120.714 111.326 121.464 110.808 122.083C110.366 122.73 109.909 123.371 109.447 124.027C108.519 125.296 107.571 126.545 106.531 127.735C106.486 127.787 106.423 127.82 106.355 127.828C106.286 127.837 106.218 127.82 106.161 127.781C106.104 127.742 106.063 127.684 106.047 127.618C106.03 127.551 106.038 127.481 106.069 127.419C106.789 126.01 107.6 124.669 108.431 123.337C108.849 122.673 109.277 122.014 109.714 121.359C110.092 120.644 110.658 120.045 111.352 119.629C111.404 119.597 111.463 119.581 111.523 119.582C111.583 119.582 111.642 119.6 111.693 119.632C111.743 119.665 111.784 119.711 111.81 119.765C111.835 119.82 111.845 119.88 111.838 119.94L111.78 119.916Z" fill="#263238"/>
<path d="M82.6538 96.1259L77.4682 94.6679L70.7954 94.3569C69.7835 94.3094 68.784 94.5957 67.9507 95.1718C67.1174 95.7478 66.4964 96.5816 66.1833 97.5451C64.9099 101.433 63.7533 107.032 62.8882 111.877C61.8618 117.98 61.34 124.157 61.3281 130.345H86.2259C86.7362 116.519 88.3643 109.763 89.3266 104.869C89.6088 103.419 89.4016 101.917 88.7375 100.597C88.0734 99.2777 86.99 98.2161 85.6573 97.5791L82.6538 96.1259Z" fill="#EFC75E"/>
<path d="M75.6992 97.0979C76.331 98.7212 78.7756 102.191 81.6187 103.547C83.1982 102.405 83.5384 99.9119 83.7765 98.7455L75.6992 97.0979Z" fill="white"/>
<path d="M83.7767 98.7455C83.961 98.104 83.8842 97.4156 83.5628 96.8306C83.1594 96.1988 83.2615 95.4747 83.6649 94.7311C83.9847 94.139 84.3855 93.5943 84.8556 93.1127L81.5945 89.2976L78.9361 86.2164C78.7077 89.0984 78.4841 92.6705 76.2096 94.9061C75.4077 95.6983 75.2376 95.9364 75.6993 97.0979C76.3311 98.7212 78.6153 100.986 81.4341 102.342C82.0447 101.929 82.5665 101.398 82.9688 100.78C83.3711 100.163 83.6458 99.4709 83.7767 98.7455Z" fill="#FFC3BD"/>
<path opacity="0.2" d="M83.8545 92.4566L82.0125 89.4677C81.9785 89.5455 81.9348 89.6281 81.891 89.7156C81.7252 90.0856 81.5918 90.4694 81.4925 90.8626C81.1572 92.1893 82.2847 94.0847 83.5191 94.9887C83.5726 94.9061 83.6163 94.8186 83.6649 94.7311C83.9792 94.1699 84.3523 93.6437 84.7779 93.1613C84.8022 93.1427 84.8282 93.1265 84.8556 93.1127L83.8545 92.4566Z" fill="black"/>
<path d="M90.2892 85.3124C90.7168 88.0681 94.6632 80.9773 92.4567 79.4221C89.7643 77.517 89.4824 80.0685 90.2892 85.3124Z" fill="#263238"/>
<path d="M79.0577 81.716C78.805 86.1921 78.421 88.7922 80.4768 91.3777C83.5678 95.2657 89.5018 93.9827 91.1397 89.701C92.5977 85.8422 92.7775 79.1743 88.4764 76.8123C84.1753 74.4503 79.3104 77.2448 79.0577 81.716Z" fill="#FFC3BD"/>
<path d="M87.8783 79.0285C87.8783 79.0285 90.7408 81.8375 92.782 80.676C94.8232 79.5145 95.2363 76.5061 92.782 73.872C91.6011 72.6035 89.8126 71.3642 86.3037 71.442C86.5805 71.7117 86.9119 71.9188 87.2757 72.0495C87.2757 72.0495 82.8239 71.3059 79.7232 72.5841C79.9715 72.9578 80.3045 73.2675 80.6952 73.4881C77.6772 73.2596 74.7417 74.4601 76.8072 77.2934C74.071 77.5607 73.4587 81.0599 74.9167 83.3684C76.3747 85.6769 76.6323 87.4071 78.5811 88.4569C78.5811 85.3124 79.3053 84.5689 79.3053 84.5689C80.7098 83.9711 82.3282 80.9773 82.0026 79.4659C85.006 80.676 88.2088 81.0745 87.8783 79.0285Z" fill="#263238"/>
<path d="M77.5268 77.1914C76.5745 76.5126 75.8346 75.5772 75.3933 74.4941C75.0434 76.059 76.6618 77.8426 76.6618 77.8426L77.5268 77.1914Z" fill="#263238"/>
<path d="M76.8217 84.1606C76.8549 85.1856 77.257 86.1641 77.954 86.9162C78.8823 87.8882 80.1459 87.062 80.384 85.813C80.5784 84.6904 80.1022 82.9748 78.926 82.4693C77.7499 81.9639 76.7877 82.9067 76.8217 84.1606Z" fill="#FFC3BD"/>
<path d="M86.3863 84.0245C86.3134 84.3939 86.4447 84.739 86.6828 84.7973C86.9209 84.8556 87.1688 84.6029 87.2514 84.2335C87.334 83.8642 87.1931 83.5191 86.9549 83.4608C86.7168 83.4025 86.4592 83.66 86.3863 84.0245Z" fill="#263238"/>
<path d="M90.5175 85.0111C90.4398 85.3805 90.5759 85.7207 90.814 85.779C91.0521 85.8373 91.3 85.5846 91.3826 85.2152C91.4652 84.8459 91.3194 84.5008 91.0813 84.4474C90.8432 84.3939 90.5904 84.6418 90.5175 85.0111Z" fill="#263238"/>
<path d="M89.1418 84.982C89.2492 86.0406 89.4976 87.0801 89.8805 88.0729C89.2001 88.418 88.3447 87.898 88.3447 87.898L89.1418 84.982Z" fill="#ED847E"/>
<path d="M87.5817 89.9635C87.1537 89.8739 86.7483 89.6985 86.39 89.4479C86.0317 89.1973 85.7278 88.8767 85.4968 88.5055C85.4875 88.4926 85.4811 88.478 85.4779 88.4625C85.4747 88.4469 85.4748 88.4309 85.4783 88.4155C85.4818 88.4 85.4885 88.3855 85.498 88.3728C85.5075 88.3601 85.5196 88.3496 85.5335 88.342C85.5474 88.3344 85.5627 88.3298 85.5785 88.3285C85.5943 88.3273 85.6102 88.3294 85.6251 88.3347C85.64 88.3401 85.6536 88.3485 85.665 88.3595C85.6764 88.3705 85.6853 88.3838 85.6912 88.3985C85.9488 88.7953 86.2938 89.1278 86.6999 89.3704C87.106 89.613 87.5623 89.7594 88.0337 89.7982C88.048 89.7988 88.0621 89.8023 88.0749 89.8086C88.0878 89.8149 88.0991 89.8239 88.1083 89.8349C88.1175 89.8459 88.1242 89.8587 88.1281 89.8725C88.132 89.8862 88.133 89.9007 88.1309 89.9149C88.1303 89.9293 88.1268 89.9436 88.1205 89.9566C88.1143 89.9697 88.1054 89.9814 88.0945 89.9909C88.0836 90.0005 88.0708 90.0077 88.0571 90.0122C88.0433 90.0166 88.0287 90.0183 88.0143 90.0169C87.8692 90.0077 87.7247 89.9898 87.5817 89.9635Z" fill="#263238"/>
<path d="M85.8418 82.5374C85.8079 82.5238 85.7779 82.5021 85.7543 82.4742C85.7176 82.4288 85.7001 82.3709 85.7056 82.3127C85.711 82.2546 85.739 82.2009 85.7835 82.1632C86.0466 81.9361 86.3617 81.7774 86.7007 81.7011C87.0398 81.6248 87.3925 81.6333 87.7275 81.7258C87.7829 81.7445 87.8287 81.7844 87.8546 81.8368C87.8806 81.8892 87.8847 81.9498 87.866 82.0052C87.8473 82.0606 87.8074 82.1064 87.755 82.1323C87.7026 82.1583 87.642 82.1624 87.5866 82.1437C87.3228 82.0769 87.0467 82.0747 86.7819 82.1373C86.5171 82.1999 86.2713 82.3255 86.0654 82.5034C86.0347 82.5289 85.9977 82.5455 85.9583 82.5515C85.9189 82.5575 85.8786 82.5526 85.8418 82.5374Z" fill="#263238"/>
<path d="M91.0279 82.62C91.0207 82.5847 91.0207 82.5484 91.0279 82.5131C91.0448 82.4573 91.0825 82.4102 91.1331 82.3813C91.1836 82.3524 91.2434 82.3439 91.3 82.3576C91.6348 82.4468 91.9427 82.6165 92.1968 82.852C92.451 83.0875 92.6436 83.3816 92.758 83.7086C92.7662 83.7364 92.7687 83.7655 92.7656 83.7943C92.7624 83.823 92.7535 83.8509 92.7395 83.8762C92.7255 83.9015 92.7066 83.9238 92.6839 83.9417C92.6612 83.9597 92.6352 83.973 92.6074 83.9808C92.5796 83.989 92.5505 83.9915 92.5217 83.9883C92.493 83.9852 92.4651 83.9763 92.4398 83.9623C92.4145 83.9483 92.3922 83.9294 92.3743 83.9067C92.3563 83.884 92.343 83.858 92.3352 83.8301C92.2417 83.5743 92.0869 83.3453 91.8844 83.1632C91.6819 82.981 91.4379 82.8513 91.1737 82.7852C91.1376 82.7718 91.1055 82.7498 91.08 82.7209C91.0546 82.6921 91.0367 82.6574 91.0279 82.62Z" fill="#263238"/>
<path d="M71.8355 101.03C70.9024 103.693 69.9693 106.468 69.1382 109.19C68.7154 110.55 68.3314 111.916 67.9864 113.262C67.6519 114.555 67.3923 115.866 67.2088 117.189C67.2088 117.335 67.1699 117.495 67.165 117.636V117.85C67.165 117.918 67.165 118.02 67.165 117.986C67.165 117.952 67.1262 118.015 67.165 118.117C67.2883 118.489 67.4887 118.83 67.7531 119.119C68.5879 120.043 69.5348 120.859 70.5719 121.549C72.9123 123.126 75.3559 124.546 77.8862 125.796L76.8462 128.79C75.3401 128.461 73.8552 128.043 72.3993 127.536C70.9159 127.028 69.4677 126.422 68.0641 125.723C66.5249 124.973 65.1011 124.005 63.8359 122.851C63.0321 122.11 62.3844 121.216 61.9308 120.222C61.6478 119.583 61.4831 118.898 61.4448 118.2C61.4448 117.981 61.4448 117.904 61.4448 117.787V117.447C61.4448 117.218 61.4448 117.009 61.4448 116.791C61.5285 115.172 61.7315 113.563 62.0523 111.974C62.3439 110.439 62.7084 108.951 63.1021 107.474C63.8906 104.54 64.8331 101.649 65.9257 98.8135L71.8355 101.03Z" fill="#FFC3BD"/>
<path d="M70.4699 94.3277C75.2229 94.284 76.122 97.9825 73.5365 103.844C72.5472 105.962 71.3385 107.97 69.9304 109.836L62.0718 105.661C63.1215 100.981 65.0412 94.3763 70.4699 94.3277Z" fill="#EFC75E"/>
<path d="M83.592 125.33L81.8522 124.358C81.5676 124.202 81.2408 124.14 80.919 124.183L78.8292 124.474C77.4247 124.62 76.3992 125.694 75.6362 126.627L74.7468 127.716C74.7031 129.913 80.2532 129.398 80.2532 129.398L85.1132 129.334L84.9626 127.419C84.9242 126.985 84.7789 126.567 84.5398 126.202C84.3007 125.838 83.9751 125.538 83.592 125.33Z" fill="#FFC3BD"/>
<path d="M187.275 128.251H55.7197V134.408H187.275V128.251Z" fill="#EFC75E"/>
<path opacity="0.3" d="M98.3905 128.251H55.7197V134.408H98.3905V128.251Z" fill="white"/>
<path d="M59.243 134.408H57.231V202.293H59.243V134.408Z" fill="#EFC75E"/>
<path opacity="0.7" d="M59.243 134.408H57.231V202.293H59.243V134.408Z" fill="white"/>
<path d="M96.8841 134.408H94.8721V202.293H96.8841V134.408Z" fill="#EFC75E"/>
<path opacity="0.7" d="M96.8841 134.408H94.8721V202.293H96.8841V134.408Z" fill="white"/>
<path d="M148.128 134.408H146.116V202.293H148.128V134.408Z" fill="#EFC75E"/>
<path opacity="0.7" d="M148.128 134.408H146.116V202.293H148.128V134.408Z" fill="white"/>
<path d="M185.768 134.408H183.756V202.293H185.768V134.408Z" fill="#EFC75E"/>
<path opacity="0.7" d="M185.768 134.408H183.756V202.293H185.768V134.408Z" fill="white"/>
<path d="M173.016 101.035H137.052C136.436 101.057 135.845 101.288 135.377 101.689C134.909 102.091 134.591 102.64 134.476 103.246L130.724 126.034C130.667 126.306 130.672 126.587 130.739 126.857C130.806 127.126 130.933 127.377 131.11 127.59C131.288 127.803 131.512 127.974 131.765 128.088C132.018 128.202 132.294 128.258 132.571 128.251H168.535C169.153 128.229 169.745 127.998 170.214 127.595C170.683 127.192 171.001 126.642 171.116 126.034L174.868 103.246C174.925 102.974 174.92 102.693 174.853 102.423C174.786 102.153 174.658 101.903 174.48 101.69C174.302 101.476 174.077 101.307 173.823 101.193C173.57 101.08 173.294 101.026 173.016 101.035Z" fill="#263238"/>
<path d="M150.179 126.763H116.319C116.096 126.763 115.916 126.944 115.916 127.167V127.847C115.916 128.07 116.096 128.251 116.319 128.251H150.179C150.401 128.251 150.582 128.07 150.582 127.847V127.167C150.582 126.944 150.401 126.763 150.179 126.763Z" fill="#263238"/>
<path opacity="0.2" d="M173.016 101.035H137.839C137.223 101.057 136.632 101.288 136.164 101.689C135.696 102.091 135.379 102.64 135.263 103.246L131.512 126.034C131.453 126.306 131.457 126.588 131.524 126.857C131.59 127.127 131.717 127.379 131.895 127.592C132.073 127.806 132.298 127.976 132.551 128.09C132.804 128.204 133.081 128.259 133.358 128.251H168.511C169.129 128.229 169.721 127.998 170.19 127.595C170.659 127.192 170.977 126.642 171.091 126.034L174.843 103.246C174.9 102.976 174.896 102.697 174.83 102.429C174.764 102.161 174.639 101.912 174.463 101.699C174.288 101.487 174.066 101.317 173.816 101.201C173.565 101.086 173.292 101.029 173.016 101.035Z" fill="white"/>
<path d="M79.9272 126.763C79.9272 126.763 91.5086 128.489 97.0976 126.209C99.7123 127.468 109.024 128.09 112.266 126.763C111.265 127.925 108.912 128.251 108.912 128.251H84.4811C82.1337 128.251 80.3403 127.225 79.9272 126.763Z" fill="#EFC75E"/>
<path opacity="0.7" d="M79.9272 126.763C79.9272 126.763 91.5086 128.489 97.0976 126.209C99.7123 127.468 109.024 128.09 112.266 126.763C111.265 127.925 108.912 128.251 108.912 128.251H84.4811C82.1337 128.251 80.3403 127.225 79.9272 126.763Z" fill="white"/>
</svg>
