<svg width="15" height="15" viewBox="0 0 15 15" fill="none" xmlns="http://www.w3.org/2000/svg">
<g clip-path="url(#clip0_71_369)">
<path d="M0 12.7911L0.393749 10.9904L1.7125 5.09603L2.23125 2.73109L2.61875 0.960378C2.65223 0.803362 2.71811 0.654375 2.8125 0.522202C2.89355 0.395538 2.99973 0.285407 3.125 0.198073C3.26312 0.10954 3.41822 0.0483238 3.58125 0.0180006C3.74463 -0.00899091 3.91162 -0.00899091 4.075 0.0180006L7.7625 0.780306C7.92304 0.813408 8.07522 0.876565 8.21035 0.966167C8.34547 1.05577 8.46088 1.17006 8.55 1.30251C8.68345 1.50088 8.75302 1.73263 8.75 1.96878V1.80071C8.75 1.48233 8.8817 1.17698 9.11612 0.951846C9.35054 0.726712 9.66848 0.600233 10 0.600233H13.75C14.0815 0.600233 14.3995 0.726712 14.6339 0.951846C14.8683 1.17698 15 1.48233 15 1.80071V13.8055C15 14.1239 14.8683 14.4292 14.6339 14.6544C14.3995 14.8795 14.0815 15.006 13.75 15.006H10C9.66848 15.006 9.35054 14.8795 9.11612 14.6544C8.8817 14.4292 8.75 14.1239 8.75 13.8055V1.97478C8.75647 2.05069 8.75647 2.12697 8.75 2.20287L7.8375 6.35053L6.54375 12.2689L6.15625 14.0336C6.1233 14.1889 6.05734 14.3361 5.9625 14.4658C5.87434 14.5986 5.75702 14.7112 5.61875 14.7959C5.47826 14.8831 5.32099 14.9423 5.15625 14.97C5.08153 14.9788 5.00597 14.9788 4.93125 14.97C4.84399 14.9788 4.75601 14.9788 4.66875 14.97L1.0125 14.2197C0.690565 14.1514 0.409767 13.9637 0.231251 13.6975C0.131659 13.5689 0.0598879 13.4224 0.0201712 13.2668C-0.0195456 13.1111 -0.0264034 12.9494 0 12.7911ZM13.75 4.20167H10V11.4046H13.75V4.20167ZM10 1.80071V3.00119H13.75V1.80071H10ZM13.75 13.8055V12.605H10V13.8055H13.75ZM6.4625 6.68667L2.80625 5.93037L1.76875 10.6783L5.425 11.4346L6.4625 6.68667ZM6.98125 4.32172L3.325 3.56542L3.0625 4.7659L6.71875 5.5102L6.98125 4.32172ZM3.85625 1.20047L3.59375 2.40095L7.2375 3.14525L7.5 1.94477L3.85625 1.20047ZM1.25 13.0492L4.90625 13.8055L5.16875 12.605L1.5125 11.8547L1.25 13.0552V13.0492Z" fill="#C56D1C"/>
</g>
<defs>
<clipPath id="clip0_71_369">
<rect width="15" height="15" fill="white" transform="matrix(-1 0 0 1 15 0)"/>
</clipPath>
</defs>
</svg>
