<svg width="15" height="15" viewBox="0 0 15 15" fill="none" xmlns="http://www.w3.org/2000/svg">
<mask id="mask0_251_460" style="mask-type:alpha" maskUnits="userSpaceOnUse" x="0" y="0" width="15" height="15">
<rect width="15" height="15" transform="matrix(-1 0 0 1 15 0)" fill="#D9D9D9"/>
</mask>
<g mask="url(#mask0_251_460)">
<path d="M12.5 13.75C12.8438 13.75 13.138 13.6276 13.3828 13.3828C13.6276 13.138 13.75 12.8438 13.75 12.5V6.25C13.75 5.90625 13.6276 5.61198 13.3828 5.36719C13.138 5.1224 12.8438 5 12.5 5H2.5C2.15625 5 1.86198 5.1224 1.61719 5.36719C1.3724 5.61198 1.25 5.90625 1.25 6.25V12.5C1.25 12.8438 1.3724 13.138 1.61719 13.3828C1.86198 13.6276 2.15625 13.75 2.5 13.75H12.5ZM12.5 12.5H2.5V6.25H12.5V12.5ZM8.75 11.875L5 9.375L8.75 6.875V11.875ZM12.5 4.375V3.125H2.5V4.375H12.5ZM10.625 2.5V1.25H4.375V2.5H10.625Z" fill="#C56D1C"/>
</g>
</svg>
