<svg width="22" height="22" viewBox="0 0 22 22" fill="none" xmlns="http://www.w3.org/2000/svg">
<g clip-path="url(#clip0_249_745)">
<path d="M22 11C22 11.12 22 11.24 21.9886 11.36C21.9029 14.24 20.6803 16.8572 18.7666 18.7715C16.8528 20.6857 14.0249 22 10.9971 22C10.8772 22 10.7572 22 10.6372 21.9886C4.75876 21.8 0 16.9315 0 11C0 7.97717 1.23968 5.22288 3.23345 3.2286C5.22721 1.23431 7.97507 2.47955e-05 10.9971 2.47955e-05C14.0192 2.47955e-05 16.7728 1.23431 18.7666 3.2286C20.7603 5.22288 22 7.97717 22 11Z" fill="#C56D1C"/>
<path fill-rule="evenodd" clip-rule="evenodd" d="M13.2539 8.47176C14.1521 9.11416 15.2559 9.49057 16.44 9.49057V7.68883C15.7777 7.5483 15.1907 7.20201 14.7491 6.72021C13.9915 6.24844 13.4496 5.47053 13.289 4.55711H11.6232V13.6913C11.6232 14.7553 10.7552 15.6185 9.6865 15.6185C9.05931 15.6185 8.50237 15.3174 8.14613 14.8557C7.51393 14.5395 7.08243 13.882 7.08243 13.1292C7.08243 12.0602 7.95045 11.197 9.01917 11.197C9.22489 11.197 9.42057 11.2271 9.60622 11.2873V9.46548C7.31323 9.51065 5.4668 11.3877 5.4668 13.6913C5.4668 14.8406 5.92841 15.8845 6.67099 16.6474C7.34333 17.099 8.15617 17.36 9.02419 17.36C11.3573 17.36 13.2539 15.4679 13.2539 13.1342V8.46674V8.47176Z" fill="white"/>
<path fill-rule="evenodd" clip-rule="evenodd" d="M16.44 7.68883V7.20201C15.8429 7.20201 15.2559 7.03639 14.7491 6.72021C15.2007 7.21205 15.7927 7.55332 16.44 7.68883ZM13.289 4.55711C13.274 4.47179 13.2639 4.38145 13.2539 4.29613V4.00002H10.9509V13.1342C10.9509 14.1982 10.0829 15.0614 9.01413 15.0614C8.70305 15.0614 8.40702 14.9861 8.14611 14.8557C8.49733 15.3174 9.05929 15.6185 9.68648 15.6185C10.7502 15.6185 11.6182 14.7553 11.6232 13.6913V4.55711H13.289ZM9.6062 9.46548V8.94854C9.41553 8.92345 9.21985 8.90839 9.02417 8.90839C6.68602 8.90839 4.79443 10.8005 4.79443 13.1342C4.79443 14.5997 5.53702 15.8895 6.67097 16.6474C5.92337 15.8845 5.46678 14.8406 5.46678 13.6913C5.46678 11.3877 7.31321 9.51065 9.6062 9.46548Z" fill="white"/>
</g>
<defs>
<clipPath id="clip0_249_745">
<rect width="22" height="22" fill="white" transform="matrix(-1 0 0 1 22 2.47955e-05)"/>
</clipPath>
</defs>
</svg>
