<svg width="22" height="22" viewBox="0 0 22 22" fill="none" xmlns="http://www.w3.org/2000/svg">
<path d="M11.0028 0H10.9973C4.93214 0 1.44333e-05 4.9335 1.44333e-05 11C-0.00375183 13.3169 0.729657 15.5749 2.09414 17.4474L0.723265 21.5339L4.95139 20.1822C6.7449 21.3721 8.85044 22.0046 11.0028 22C17.0679 22 22 17.0651 22 11C22 4.93488 17.0679 0 11.0028 0Z" fill="#C56D1C"/>
<path d="M17.4033 15.5334C17.1379 16.2828 16.0846 16.9043 15.2445 17.0858C14.6698 17.2081 13.919 17.3058 11.3918 16.258C8.15914 14.9188 6.07739 11.6339 5.91514 11.4208C5.75976 11.2076 4.60889 9.68138 4.60889 8.10288C4.60889 6.52438 5.41051 5.75575 5.73364 5.42575C5.99901 5.15488 6.43764 5.03113 6.85839 5.03113C6.99451 5.03113 7.11689 5.038 7.22689 5.0435C7.55001 5.05725 7.71226 5.0765 7.92539 5.58663C8.19076 6.226 8.83701 7.8045 8.91401 7.96675C8.99239 8.129 9.07076 8.349 8.96076 8.56213C8.85764 8.78213 8.76689 8.87975 8.60464 9.06675C8.44239 9.25375 8.28839 9.39675 8.12614 9.5975C7.97764 9.77213 7.80989 9.95913 7.99689 10.2823C8.18389 10.5985 8.83014 11.6531 9.78164 12.5001C11.0095 13.5933 12.005 13.9425 12.3611 14.091C12.6265 14.201 12.9428 14.1749 13.1366 13.9686C13.3828 13.7033 13.6866 13.2633 13.996 12.8301C14.216 12.5194 14.4938 12.4809 14.7853 12.5909C15.0823 12.694 16.6539 13.4709 16.977 13.6318C17.3001 13.794 17.5133 13.871 17.5916 14.0071C17.6686 14.1433 17.6686 14.7826 17.4033 15.5334Z" fill="#FAFAFA"/>
</svg>
