<svg width="14" height="8" viewBox="0 0 14 8" fill="none" xmlns="http://www.w3.org/2000/svg">
<path d="M13.9928 7.31212C13.9806 7.9243 13.4978 8.13096 13.0299 7.79214C12.1573 7.17166 11.2907 6.54263 10.4208 5.91873C10.423 6.20748 10.4191 6.88756 10.4206 7.18339C10.4203 7.73205 10.152 7.99905 9.60065 7.99929L4.90336 7.99978C4.10749 8.00003 3.31186 8.00027 2.516 7.99929C1.01154 7.99758 0.000480886 6.99627 0 5.50736V0.815905C0 0.259429 0.259919 0 0.817506 0C2.72927 0.0368867 6.0695 0.00415241 7.94376 0.000732447C9.27221 0.00219814 10.2333 0.841555 10.3939 2.08202C11.2729 1.45177 12.1484 0.816393 13.0299 0.189319C13.4364 -0.110416 13.9717 -0.0141681 13.9928 0.66958C13.9986 2.81585 14.0056 5.1617 13.9928 7.31212Z" fill="white"/>
</svg>
